<svg width="1440" height="646" viewBox="0 0 1440 646" fill="none" xmlns="http://www.w3.org/2000/svg">
<rect width="1440" height="646" fill="#F2F3F7"/>
<g clip-path="url(#clip0_2690_3185)">
<path d="M1258.33 0H181.667V646H1258.33V0Z" fill="#F2F3F7"/>
<path d="M702.006 392.406H619.084V568.021H702.006V392.406Z" fill="#E1E5EF"/>
<path opacity="0.68" d="M982.384 417.693H952.704V569.941H982.384V417.693Z" fill="#E1E5EF"/>
<path d="M1034.23 468.372V403.345V338.321H1025.25V273.294V208.267H1017.9V177.403H1012.76V208.267H1005.4V273.294H998.871V338.321V403.345H990.965V468.372V569.298H1049.12V468.372H1034.23Z" fill="#E1E5EF"/>
<path d="M1020.05 273.028H1005.4V273.556H1020.05V273.028Z" fill="#8296C9"/>
<path d="M1025.26 338.055H1005.4V338.583H1025.26V338.055Z" fill="#8296C9"/>
<path d="M1025.26 403.083H998.871V403.61H1025.26V403.083Z" fill="#8296C9"/>
<path d="M1034.23 468.11H1001.44V468.637H1034.23V468.11Z" fill="#8296C9"/>
<path d="M583.798 377.946V349.203H574.323V319.892H567.852V290.582H556.744V261.271H554.017V290.582H542.909V319.892H536.439V349.203H526.96V377.946H517.87V569.941H592.892V377.946H583.798Z" fill="#E1E5EF"/>
<path d="M567.817 377.724H526.961V378.169H567.817V377.724Z" fill="#8296C9"/>
<path d="M574.32 348.983H549.682V349.428H574.32V348.983Z" fill="#8296C9"/>
<path d="M544.443 348.983H536.439V349.428H544.443V348.983Z" fill="#8296C9"/>
<path d="M562.003 319.669H542.91V320.114H562.003V319.669Z" fill="#8296C9"/>
<path d="M574.474 379.572H574.029V436.061H574.474V379.572Z" fill="#8296C9"/>
<path d="M574.474 439.804H574.029V463.351H574.474V439.804Z" fill="#8296C9"/>
<path d="M1103.21 418.274H1059.39V569.944H1103.21V418.274Z" fill="#E1E5EF"/>
<path d="M1074.38 515.081H1073.86V565.975H1074.38V515.081Z" fill="#8296C9"/>
<path d="M1074.38 452.279H1073.86V510.379H1074.38V452.279Z" fill="#8296C9"/>
<path d="M1074.38 420.14H1073.86V444.053H1074.38V420.14Z" fill="#8296C9"/>
<path d="M1159.21 484.769V464.596H1120.71V484.769H1107.32V569.941H1172.6V484.769H1159.21Z" fill="#E1E5EF"/>
<path d="M1154.37 484.507H1146.07V485.035H1154.37V484.507Z" fill="#8296C9"/>
<path d="M1143.01 484.507H1120.71V485.035H1143.01V484.507Z" fill="#8296C9"/>
<path d="M1159.47 522.786H1158.94V565.971H1159.47V522.786Z" fill="#8296C9"/>
<path d="M1159.47 489.072H1158.94V517.27H1159.47V489.072Z" fill="#8296C9"/>
<path d="M751.174 129.742C687.65 129.742 636.175 181.228 636.175 244.741C636.175 368.198 751.174 534.723 751.174 534.723C751.174 534.723 866.176 368.198 866.176 244.741C866.176 181.239 814.686 129.742 751.174 129.742ZM751.174 293.664C739.902 293.664 728.883 290.322 719.51 284.059C710.138 277.797 702.833 268.896 698.52 258.482C694.206 248.068 693.078 236.608 695.277 225.553C697.477 214.498 702.905 204.343 710.876 196.372C718.846 188.402 729.002 182.975 740.057 180.776C751.113 178.577 762.572 179.706 772.986 184.021C783.4 188.335 792.3 195.64 798.562 205.013C804.824 214.385 808.166 225.404 808.165 236.676C808.164 251.791 802.159 266.286 791.471 276.973C780.784 287.66 766.288 293.664 751.174 293.664Z" fill="white"/>
<path d="M308.584 173.071H502.872C493.9 162.304 479.027 156.63 465.092 159.236C462.709 140.293 445.712 124.09 426.332 122.241C406.952 120.393 387.073 133.091 381.004 151.225C375.337 147.905 368.443 146.829 362.148 148.828C359.027 149.832 356.152 151.482 353.711 153.671C351.269 155.86 349.317 158.539 347.979 161.532C342.079 155.464 332.425 151.842 324.077 153.68C315.729 155.517 311.247 165.107 308.584 173.071Z" fill="white"/>
<path d="M430.279 469.416L379.084 492.733L327.888 469.416L276.693 492.733V569.941H291.328H298.851H356.93H363.268H379.084H481.475V492.733L430.279 469.416Z" fill="#E1E5EF"/>
<mask id="mask0_2690_3185" style="mask-type:luminance" maskUnits="userSpaceOnUse" x="721" y="212" width="267" height="358">
<path d="M987.843 212.258H721.533V569.944H987.843V212.258Z" fill="white"/>
</mask>
<g mask="url(#mask0_2690_3185)">
<path d="M934.978 230.482H759.977C748.26 230.482 738.763 239.98 738.763 251.696V619.033C738.763 630.749 748.26 640.247 759.977 640.247H934.978C946.694 640.247 956.192 630.749 956.192 619.033V251.696C956.192 239.98 946.694 230.482 934.978 230.482Z" fill="#8296C9"/>
<path d="M869.696 249.238H836.89C836.359 249.238 835.851 249.027 835.476 248.652C835.101 248.277 834.891 247.769 834.891 247.239C834.891 246.709 835.101 246.2 835.476 245.825C835.851 245.45 836.359 245.24 836.89 245.24H869.696C869.958 245.24 870.218 245.291 870.461 245.392C870.703 245.492 870.924 245.64 871.109 245.825C871.295 246.011 871.442 246.231 871.542 246.474C871.643 246.716 871.695 246.976 871.695 247.239C871.695 247.769 871.484 248.277 871.109 248.652C870.734 249.027 870.226 249.238 869.696 249.238Z" fill="#F2F3F7"/>
<path d="M937.497 262.143H756.025C755.658 262.143 755.361 262.441 755.361 262.807V621.1C755.361 621.467 755.658 621.764 756.025 621.764H937.497C937.864 621.764 938.161 621.467 938.161 621.1V262.807C938.161 262.441 937.864 262.143 937.497 262.143Z" fill="#F2F3F7"/>
<path d="M824.214 252.676C827.219 252.676 829.654 250.24 829.654 247.235C829.654 244.23 827.219 241.794 824.214 241.794C821.209 241.794 818.773 244.23 818.773 247.235C818.773 250.24 821.209 252.676 824.214 252.676Z" fill="#F2F3F7"/>
</g>
<path d="M696.292 287.961L684.104 329.951L633.831 333.16L650.996 290.822L696.292 287.961Z" fill="#F1CA89"/>
<path d="M684.104 329.952L720.24 351.033L669.221 355.609L633.831 333.16L684.104 329.952Z" fill="#F1B873"/>
<path d="M696.291 287.961L730.407 307.686L720.24 351.033L684.104 329.951L696.291 287.961Z" fill="#E5A251"/>
<path d="M668.241 289.731L658.023 317.186L668.241 316.501L679.169 289.042L668.241 289.731Z" fill="#F2F3F7"/>
<path d="M675.293 426.393C675.293 426.393 661.139 479.35 658.903 498.35C656.667 517.349 655.92 566.829 655.92 566.829H661.993L678.448 500.467L698.808 467.902L703.581 499.868C703.718 500.79 703.949 501.695 704.27 502.57L727.763 566.829H734.356C734.356 566.829 725.193 494.951 725.477 490.386C725.76 485.821 731.219 426.389 731.219 426.389L675.293 426.393Z" fill="#39548B"/>
<path d="M715.427 346.066C715.427 346.066 701.251 343.464 663.686 350.157L660.542 371.493L685.305 374.174C685.305 374.174 675.439 403.334 673.064 430.301C673.064 430.301 703.752 438.555 733.21 431.88L736.881 383.43L751.596 392.718L765.434 377.192C765.434 377.192 748.219 351.736 715.427 346.066Z" fill="#F9DD89"/>
<mask id="mask1_2690_3185" style="mask-type:luminance" maskUnits="userSpaceOnUse" x="660" y="345" width="106" height="90">
<path d="M715.427 346.066C715.427 346.066 701.251 343.464 663.686 350.157L660.542 371.493L685.306 374.174C685.306 374.174 675.44 403.334 673.064 430.301C673.064 430.301 703.753 438.555 733.21 431.88L736.882 383.43L751.596 392.718L765.435 377.192C765.435 377.192 748.219 351.736 715.427 346.066Z" fill="white"/>
</mask>
<g mask="url(#mask1_2690_3185)">
<path d="M711.107 346.561C711.107 346.561 684.294 357.105 662.036 355.609L663.393 348.255C663.393 348.255 701.894 343.033 711.448 344.731L711.089 346.561" fill="#F4C54E"/>
<path d="M679.17 373.51C679.17 373.51 686.373 371.981 689.374 369.594C692.374 367.208 681.119 388.196 681.119 397.534C681.119 406.872 684.091 427.526 688.688 430.577C693.285 433.627 724.082 431.987 724.082 431.987L722.352 436.739L667.216 432.917L679.163 373.51" fill="#F4C54E"/>
<path d="M754.454 390.022C754.454 390.022 744.093 386.433 741.132 384.402C738.171 382.371 735.095 379.794 735.095 379.794L734.582 390.464H754.228L754.454 390.022Z" fill="#F4C54E"/>
</g>
<path d="M698.808 467.901L694.383 444.782L689.269 483.161L698.808 467.901Z" fill="#343766"/>
<path d="M708.899 319.023C708.899 319.023 707.417 322.81 707.188 326.094C707.062 327.913 708.053 330.759 708.982 332.948C709.369 333.878 709.992 334.69 710.79 335.305C711.587 335.92 712.532 336.317 713.529 336.455L716.608 336.878L718.837 320.703L708.899 319.023Z" fill="#343766"/>
<path d="M734.463 322.544C734.463 322.544 734.865 326.589 734.201 329.815C733.842 331.61 732.105 334.079 730.637 335.916C730.014 336.708 729.194 337.323 728.26 337.701C727.326 338.079 726.31 338.206 725.311 338.07L722.232 337.646L724.461 321.468L734.463 322.544Z" fill="#343766"/>
<path d="M730.659 328.617C730.659 328.617 732.705 324.83 734.356 327.091C736.007 329.352 732.608 335.572 729.884 334.269C727.16 332.966 730.659 328.617 730.659 328.617Z" fill="#C17276"/>
<path d="M710.669 325.871C710.669 325.871 709.722 321.672 707.522 323.402C705.322 325.132 706.915 332.037 709.894 331.506C712.873 330.974 710.669 325.871 710.669 325.871Z" fill="#C17276"/>
<path d="M725.641 336.063L713.378 334.377L711.106 346.561C711.106 346.561 712.463 350.993 717.129 351.661C721.794 352.328 724.64 348.431 724.64 348.431L725.641 336.063Z" fill="#C17276"/>
<path d="M731.352 314.193L711.488 318.334L711.2 318.991C708.182 326.291 709.018 336.577 715.45 341.96C716.341 342.703 717.424 343.181 718.573 343.338C719.723 343.496 720.894 343.329 721.953 342.854C729.604 339.39 733.186 329.722 732.253 321.877C732.228 321.661 731.381 314.426 731.352 314.193Z" fill="#DA8C8D"/>
<mask id="mask2_2690_3185" style="mask-type:luminance" maskUnits="userSpaceOnUse" x="709" y="314" width="24" height="30">
<path d="M731.353 314.193L711.488 318.334L711.201 318.991C708.183 326.291 709.019 336.577 715.45 341.96C716.342 342.703 717.424 343.181 718.574 343.338C719.723 343.496 720.894 343.329 721.953 342.854C729.605 339.39 733.186 329.722 732.253 321.877C732.228 321.661 731.381 314.426 731.353 314.193Z" fill="white"/>
</mask>
<g mask="url(#mask2_2690_3185)">
<path d="M732.561 318.948C732.561 318.948 731.966 322.296 724.239 322.989C716.512 323.682 711.907 321.877 711.907 321.877L728.204 312.904L734.115 313.888L732.561 318.948Z" fill="#C17276"/>
</g>
<path d="M708.965 332.948C708.965 332.948 715.956 331.574 719.918 332.629C723.88 333.684 730.638 335.931 730.638 335.931C730.638 335.931 727.448 344.081 718.572 343.363C709.697 342.645 708.965 332.948 708.965 332.948Z" fill="#343766"/>
<path d="M732.465 309.682C732.465 309.682 741.638 308.605 734.586 325.562L732.493 325.275L730.408 314.537L732.465 309.682Z" fill="#343766"/>
<path d="M716.196 335.428C718.006 335.216 719.842 335.462 721.532 336.146C723.154 336.796 722.092 337.043 720.868 337.133C719.575 337.225 718.277 337.052 717.053 336.624C715.862 336.225 714.778 335.683 716.196 335.428Z" fill="#F2F3F7"/>
<path d="M730.407 314.537C730.407 314.537 724.36 315.255 724.033 318.463C723.707 321.672 721.162 325.77 709.836 323.847C709.836 323.847 704.668 316.131 707.625 308.242C710.582 300.354 727.96 301.309 732.464 309.678L730.605 315.539" fill="#343766"/>
<path d="M663.393 352.146L654.905 353.556L657.324 348.065L646.381 341.121C646.381 341.121 635.137 359.607 638.202 364.574C641.267 369.541 660.812 369.598 660.812 369.598L663.393 352.146Z" fill="#DA8C8D"/>
<mask id="mask3_2690_3185" style="mask-type:luminance" maskUnits="userSpaceOnUse" x="637" y="341" width="27" height="29">
<path d="M663.393 352.146L654.905 353.556L657.324 348.065L646.381 341.121C646.381 341.121 635.137 359.607 638.202 364.574C641.267 369.541 660.812 369.598 660.812 369.598L663.393 352.146Z" fill="white"/>
</mask>
<g mask="url(#mask3_2690_3185)">
<path d="M662.22 352.343C662.22 352.343 652.795 366.882 653.922 370.259L664.133 370.901L666.946 351.033L662.22 352.343Z" fill="#C17276"/>
</g>
<path d="M763.117 379.794C763.117 379.794 776.87 392.624 777.473 396.712C779.031 407.245 767.858 432.917 767.858 432.917V402.738L753.086 391.049L763.117 379.794Z" fill="#DA8C8D"/>
<path d="M759.273 439.219C759.273 439.219 754.669 443.063 751.406 442.941C748.144 442.819 743.077 439.219 743.077 439.219H759.273Z" fill="#DA8C8D"/>
<path d="M674.188 430.577C674.188 430.577 699.744 437.102 726.256 432.917C726.256 432.917 684.962 449.595 671.791 439.844L674.188 430.577Z" fill="#343766"/>
<path d="M729.213 392.272L688.694 385.199L694.659 366.483L731.818 372.971L729.213 392.272Z" fill="white"/>
<path d="M767.858 390.464H722.358V439.219H767.858V390.464Z" fill="#F1CA89"/>
<mask id="mask4_2690_3185" style="mask-type:luminance" maskUnits="userSpaceOnUse" x="722" y="390" width="46" height="50">
<path d="M767.858 390.464H722.358V439.219H767.858V390.464Z" fill="white"/>
</mask>
<g mask="url(#mask4_2690_3185)">
<path d="M728.994 390.471C728.994 390.471 732.224 426.392 755.699 432.924L770.018 436.402V442.951H720.628V390.022L728.994 390.464" fill="#F1B873"/>
</g>
<path d="M748.909 390.464H742.197V410.379H748.909V390.464Z" fill="#F2F3F7"/>
<path d="M663.611 560.312L655.622 559.296L655.46 564.134C655.46 564.134 645.027 565.375 643.814 569.941H662.502L663.611 560.312Z" fill="#1F1949"/>
<path d="M733.569 557.914L724.152 558.88L726.115 564.356C726.115 564.356 717.186 565.376 715.977 569.941H734.66L733.569 557.914Z" fill="#1F1949"/>
<path d="M419.761 569.944C432.438 569.944 442.715 559.667 442.715 546.99C442.715 534.312 432.438 524.035 419.761 524.035C407.083 524.035 396.806 534.312 396.806 546.99C396.806 559.667 407.083 569.944 419.761 569.944Z" fill="#343766"/>
<path d="M506.949 542.611H582.04V546.307C582.04 547.025 581.754 547.713 581.247 548.221C580.739 548.728 580.051 549.013 579.334 549.013H509.659C508.941 549.013 508.253 548.728 507.745 548.221C507.238 547.713 506.953 547.025 506.953 546.307V542.611H506.949Z" fill="#343766"/>
<path d="M544.496 569.944C557.173 569.944 567.451 559.667 567.451 546.99C567.451 534.312 557.173 524.035 544.496 524.035C531.819 524.035 521.542 534.312 521.542 546.99C521.542 559.667 531.819 569.944 544.496 569.944Z" fill="#343766"/>
<path d="M438.864 445.74H514.467V461.172H431.604V453C431.604 451.075 432.368 449.228 433.73 447.866C435.092 446.505 436.938 445.74 438.864 445.74Z" fill="#B2BFDF"/>
<path d="M636.439 542.766H504.91V453.761C504.91 451.636 505.754 449.597 507.256 448.093C508.758 446.589 510.795 445.743 512.921 445.74H628.407C629.461 445.74 630.504 445.947 631.478 446.35C632.451 446.753 633.335 447.343 634.08 448.088C634.825 448.833 635.416 449.718 635.819 450.691C636.222 451.664 636.429 452.708 636.429 453.761V542.766H636.439Z" fill="#8296C9"/>
<mask id="mask5_2690_3185" style="mask-type:luminance" maskUnits="userSpaceOnUse" x="504" y="445" width="133" height="98">
<path d="M636.439 542.766H504.91V453.761C504.91 451.636 505.754 449.597 507.256 448.093C508.758 446.589 510.795 445.743 512.921 445.74H628.407C629.461 445.74 630.504 445.947 631.478 446.35C632.451 446.753 633.335 447.343 634.08 448.088C634.825 448.833 635.416 449.718 635.819 450.691C636.222 451.664 636.429 452.708 636.429 453.761V542.766H636.439Z" fill="white"/>
</mask>
<g mask="url(#mask5_2690_3185)">
<path opacity="0.18" d="M628.418 445.74L595.2 550.639H649.744V445.288H628.418" fill="#343766"/>
</g>
<path d="M597.505 528.644C592.086 528.715 586.913 530.918 583.107 534.775C579.3 538.632 577.166 543.833 577.166 549.253C577.166 554.672 579.3 559.873 583.107 563.73C586.913 567.588 592.086 569.79 597.505 569.862H602.224V528.644H597.505Z" fill="#343766"/>
<path d="M601.656 569.862C613.037 569.862 622.264 560.636 622.264 549.254C622.264 537.873 613.037 528.647 601.656 528.647C590.275 528.647 581.049 537.873 581.049 549.254C581.049 560.636 590.275 569.862 601.656 569.862Z" fill="#343766"/>
<path d="M601.657 558.044C606.511 558.044 610.446 554.108 610.446 549.254C610.446 544.4 606.511 540.465 601.657 540.465C596.803 540.465 592.868 544.4 592.868 549.254C592.868 554.108 596.803 558.044 601.657 558.044Z" fill="#F2F3F7"/>
<path d="M601.657 544.183C602.42 544.183 603.038 543.564 603.038 542.801C603.038 542.038 602.42 541.419 601.657 541.419C600.894 541.419 600.275 542.038 600.275 542.801C600.275 543.564 600.894 544.183 601.657 544.183Z" fill="#343766"/>
<path d="M601.657 557.093C602.42 557.093 603.038 556.474 603.038 555.711C603.038 554.948 602.42 554.329 601.657 554.329C600.894 554.329 600.275 554.948 600.275 555.711C600.275 556.474 600.894 557.093 601.657 557.093Z" fill="#343766"/>
<path d="M606.221 546.074C606.984 546.074 607.603 545.456 607.603 544.693C607.603 543.93 606.984 543.311 606.221 543.311C605.458 543.311 604.839 543.93 604.839 544.693C604.839 545.456 605.458 546.074 606.221 546.074Z" fill="#343766"/>
<path d="M597.091 555.201C597.854 555.201 598.473 554.583 598.473 553.819C598.473 553.056 597.854 552.438 597.091 552.438C596.328 552.438 595.709 553.056 595.709 553.819C595.709 554.583 596.328 555.201 597.091 555.201Z" fill="#343766"/>
<path d="M608.113 550.636C608.876 550.636 609.494 550.017 609.494 549.254C609.494 548.491 608.876 547.873 608.113 547.873C607.35 547.873 606.731 548.491 606.731 549.254C606.731 550.017 607.35 550.636 608.113 550.636Z" fill="#343766"/>
<path d="M595.2 550.636C595.963 550.636 596.582 550.017 596.582 549.254C596.582 548.491 595.963 547.873 595.2 547.873C594.437 547.873 593.818 548.491 593.818 549.254C593.818 550.017 594.437 550.636 595.2 550.636Z" fill="#343766"/>
<path d="M606.221 555.201C606.984 555.201 607.603 554.583 607.603 553.819C607.603 553.056 606.984 552.438 606.221 552.438C605.458 552.438 604.839 553.056 604.839 553.819C604.839 554.583 605.458 555.201 606.221 555.201Z" fill="#343766"/>
<path d="M597.091 546.074C597.854 546.074 598.473 545.456 598.473 544.693C598.473 543.93 597.854 543.311 597.091 543.311C596.328 543.311 595.709 543.93 595.709 544.693C595.709 545.456 596.328 546.074 597.091 546.074Z" fill="#343766"/>
<path d="M598.473 529.211C595.156 530.085 592.105 531.763 589.59 534.097C587.074 536.43 585.173 539.347 584.053 542.59C582.589 546.914 582.589 551.599 584.053 555.923C585.172 559.166 587.074 562.083 589.589 564.416C592.104 566.749 595.155 568.426 598.473 569.299C596.213 568.821 594.052 567.958 592.085 566.747C590.117 565.516 588.367 563.968 586.906 562.164C585.078 559.894 583.753 557.261 583.018 554.44C582.284 551.618 582.158 548.674 582.647 545.8C583.137 542.926 584.232 540.189 585.859 537.771C587.486 535.352 589.608 533.306 592.085 531.77C594.052 530.557 596.213 529.691 598.473 529.211Z" fill="#8296C9"/>
<path d="M631.813 535.067V541.764C631.813 542.03 631.708 542.285 631.52 542.472C631.332 542.66 631.078 542.766 630.812 542.766H618.362V549.434H638.151C638.511 549.434 638.856 549.291 639.111 549.036C639.365 548.782 639.508 548.437 639.508 548.077V535.136C639.508 535.009 639.483 534.884 639.434 534.767C639.386 534.65 639.315 534.544 639.225 534.454C639.135 534.365 639.029 534.294 638.912 534.246C638.795 534.198 638.669 534.173 638.543 534.174H632.707C632.59 534.173 632.473 534.196 632.365 534.241C632.256 534.286 632.157 534.351 632.074 534.435C631.991 534.518 631.925 534.616 631.88 534.725C631.836 534.834 631.813 534.95 631.813 535.067Z" fill="#343766"/>
<path d="M622.124 550.64C621.874 550.64 621.626 550.59 621.395 550.494C621.164 550.399 620.954 550.258 620.778 550.081C620.601 549.904 620.461 549.694 620.366 549.463C620.27 549.232 620.221 548.984 620.222 548.734C620.222 543.451 618.123 538.385 614.388 534.649C610.652 530.914 605.586 528.816 600.303 528.816C595.021 528.816 589.954 530.914 586.219 534.649C582.484 538.385 580.385 543.451 580.385 548.734C580.385 549.239 580.184 549.724 579.827 550.081C579.47 550.439 578.985 550.64 578.479 550.64C577.974 550.64 577.489 550.439 577.132 550.081C576.775 549.724 576.574 549.239 576.574 548.734C576.574 542.443 579.073 536.41 583.521 531.962C587.969 527.514 594.002 525.015 600.293 525.015C606.583 525.015 612.616 527.514 617.065 531.962C621.513 536.41 624.012 542.443 624.012 548.734C624.012 549.236 623.813 549.718 623.46 550.075C623.106 550.432 622.626 550.635 622.124 550.64Z" fill="#F2F3F7"/>
<path d="M454.911 459.08V543.717H381.604V521.035C381.604 518.846 382.198 516.698 383.322 514.821C384.446 512.943 386.059 511.405 387.989 510.372L396.365 505.89C399.188 504.378 401.382 501.913 402.556 498.934L415.157 466.943C416.071 464.624 417.661 462.634 419.722 461.232C421.782 459.83 424.217 459.08 426.709 459.08H454.911Z" fill="#8296C9"/>
<path d="M504.91 459.08V543.717H431.604V521.035C431.603 518.846 432.197 516.698 433.323 514.82C434.448 512.942 436.061 511.405 437.992 510.372L446.365 505.89C449.189 504.379 451.384 501.914 452.559 498.934L465.16 466.943C466.073 464.625 467.663 462.635 469.723 461.232C471.783 459.83 474.217 459.08 476.709 459.08H504.91Z" fill="#8296C9"/>
<path d="M426.709 459.08C424.217 459.08 421.782 459.83 419.722 461.232C417.661 462.634 416.071 464.624 415.157 466.943L406.037 490.095C402.615 498.78 396.218 505.967 387.989 510.372C386.059 511.405 384.446 512.943 383.322 514.821C382.198 516.698 381.604 518.846 381.604 521.035V543.717H431.604V521.035C431.604 518.846 432.198 516.698 433.323 514.82C434.449 512.942 436.062 511.405 437.993 510.372L446.366 505.89C449.19 504.379 451.385 501.914 452.56 498.934L454.911 492.963L465.161 466.943C466.074 464.625 467.664 462.635 469.724 461.232C471.784 459.83 474.218 459.08 476.71 459.08H426.709Z" fill="#B2BFDF"/>
<path d="M440.027 535.103H381.388C381.002 535.103 380.631 534.95 380.358 534.677C380.085 534.403 379.931 534.033 379.931 533.646V523.899C379.931 523.512 380.085 523.142 380.358 522.868C380.631 522.595 381.002 522.442 381.388 522.442H441.972C442.174 522.442 442.373 522.486 442.557 522.57C442.74 522.654 442.903 522.777 443.035 522.93C443.167 523.083 443.264 523.262 443.32 523.456C443.377 523.65 443.391 523.853 443.361 524.053L441.954 533.442C441.886 533.904 441.654 534.326 441.3 534.631C440.946 534.936 440.494 535.104 440.027 535.103Z" fill="#343766"/>
<path d="M392.485 523.684H419.761V536.485C419.761 536.947 419.578 537.389 419.251 537.716C418.925 538.042 418.482 538.226 418.02 538.226H394.226C393.764 538.226 393.322 538.042 392.995 537.716C392.669 537.389 392.485 536.947 392.485 536.485V523.684Z" fill="#343766"/>
<path d="M417.062 527.208H395.206C395.141 527.209 395.077 527.196 395.016 527.172C394.956 527.147 394.902 527.111 394.856 527.065C394.81 527.02 394.773 526.965 394.748 526.905C394.723 526.846 394.71 526.781 394.71 526.716C394.71 526.585 394.763 526.459 394.856 526.366C394.948 526.273 395.074 526.221 395.206 526.221H417.062C417.127 526.221 417.191 526.234 417.251 526.259C417.311 526.284 417.365 526.32 417.411 526.366C417.457 526.413 417.493 526.467 417.517 526.527C417.542 526.587 417.554 526.652 417.554 526.716C417.554 526.847 417.502 526.972 417.41 527.064C417.318 527.156 417.192 527.208 417.062 527.208Z" fill="#8296C9"/>
<path d="M417.062 528.787H395.206C395.141 528.787 395.077 528.775 395.016 528.751C394.956 528.726 394.902 528.69 394.856 528.644C394.81 528.599 394.773 528.544 394.748 528.484C394.723 528.424 394.71 528.36 394.71 528.295C394.71 528.164 394.763 528.038 394.856 527.945C394.948 527.852 395.074 527.8 395.206 527.8H417.062C417.127 527.8 417.191 527.813 417.251 527.838C417.311 527.863 417.365 527.899 417.411 527.945C417.457 527.991 417.493 528.046 417.517 528.106C417.542 528.166 417.554 528.23 417.554 528.295C417.554 528.426 417.502 528.551 417.41 528.643C417.318 528.735 417.192 528.787 417.062 528.787Z" fill="#8296C9"/>
<path d="M417.062 530.377H395.206C395.141 530.377 395.077 530.365 395.016 530.34C394.956 530.316 394.902 530.28 394.856 530.234C394.81 530.188 394.773 530.134 394.748 530.074C394.723 530.014 394.71 529.95 394.71 529.885C394.71 529.754 394.763 529.628 394.856 529.535C394.948 529.442 395.074 529.39 395.206 529.39H417.062C417.127 529.39 417.191 529.403 417.251 529.428C417.311 529.453 417.365 529.489 417.411 529.535C417.457 529.581 417.493 529.636 417.517 529.696C417.542 529.756 417.554 529.82 417.554 529.885C417.554 530.016 417.502 530.141 417.41 530.233C417.318 530.325 417.192 530.377 417.062 530.377Z" fill="#8296C9"/>
<path d="M417.062 531.966H395.206C395.141 531.967 395.077 531.955 395.016 531.93C394.956 531.906 394.902 531.869 394.856 531.824C394.81 531.778 394.773 531.724 394.748 531.664C394.723 531.604 394.71 531.54 394.71 531.475C394.71 531.41 394.723 531.345 394.748 531.285C394.773 531.225 394.81 531.171 394.856 531.125C394.901 531.079 394.956 531.042 395.016 531.017C395.076 530.992 395.141 530.979 395.206 530.979H417.062C417.127 530.979 417.191 530.992 417.251 531.017C417.311 531.042 417.365 531.079 417.411 531.125C417.457 531.171 417.493 531.225 417.517 531.286C417.542 531.346 417.554 531.41 417.554 531.475C417.554 531.605 417.502 531.73 417.41 531.822C417.318 531.915 417.192 531.966 417.062 531.966Z" fill="#8296C9"/>
<path d="M380.976 543.716H446.168V547.743C446.168 549.236 445.575 550.669 444.519 551.725C443.463 552.781 442.03 553.374 440.537 553.374H380.961C380.824 553.374 380.688 553.347 380.562 553.295C380.435 553.242 380.32 553.165 380.223 553.068C380.126 552.971 380.049 552.856 379.996 552.729C379.944 552.603 379.917 552.467 379.917 552.33V544.761C379.917 544.484 380.027 544.218 380.223 544.022C380.419 543.826 380.684 543.716 380.961 543.716H380.976Z" fill="#343766"/>
<path d="M448.999 498.027L406.755 497.88C406.518 497.88 406.285 497.823 406.076 497.712C405.867 497.601 405.689 497.44 405.557 497.244C405.426 497.047 405.344 496.821 405.321 496.586C405.298 496.351 405.333 496.113 405.423 495.895L415.974 470.055C416.175 469.563 416.518 469.142 416.959 468.845C417.4 468.549 417.919 468.39 418.451 468.39H458.761C459.196 468.392 459.625 468.5 460.009 468.704C460.393 468.909 460.721 469.204 460.965 469.564C461.21 469.925 461.362 470.339 461.41 470.771C461.459 471.204 461.4 471.642 461.241 472.047L451.494 496.344C451.294 496.841 450.949 497.267 450.505 497.567C450.06 497.867 449.536 498.027 448.999 498.027Z" fill="#E1E5EF"/>
<mask id="mask6_2690_3185" style="mask-type:luminance" maskUnits="userSpaceOnUse" x="405" y="468" width="57" height="31">
<path d="M448.999 498.027L406.755 497.88C406.518 497.88 406.285 497.823 406.076 497.712C405.867 497.601 405.689 497.44 405.557 497.244C405.426 497.047 405.344 496.821 405.321 496.586C405.298 496.351 405.333 496.113 405.423 495.895L415.974 470.055C416.175 469.563 416.518 469.142 416.959 468.845C417.4 468.549 417.919 468.39 418.451 468.39H458.761C459.196 468.392 459.625 468.5 460.009 468.704C460.393 468.909 460.721 469.204 460.965 469.564C461.21 469.925 461.362 470.339 461.41 470.771C461.459 471.204 461.4 471.642 461.241 472.047L451.494 496.344C451.294 496.841 450.949 497.267 450.505 497.567C450.06 497.867 449.536 498.027 448.999 498.027Z" fill="white"/>
</mask>
<g mask="url(#mask6_2690_3185)">
<path opacity="0.32" d="M458.938 466.958L441.008 499.243H430.187L447.981 467.403L458.938 466.958Z" fill="#B2BFDF"/>
<path opacity="0.32" d="M444.56 467.054L426.634 499.344H408.693L427.125 467.765L444.56 467.054Z" fill="#B2BFDF"/>
</g>
<path d="M498.788 536.435H491.409C490.983 536.434 490.568 536.299 490.222 536.05C489.877 535.801 489.618 535.45 489.482 535.046C486.155 525.27 480.086 518.824 471.44 515.885C469.604 515.265 467.911 514.284 466.46 512.999C465.009 511.715 463.83 510.153 462.992 508.405C462.134 506.641 461.638 504.724 461.532 502.765C461.426 500.806 461.712 498.846 462.375 497L471.505 471.347C472.244 469.281 473.603 467.493 475.395 466.229C477.188 464.964 479.328 464.283 481.522 464.28H498.924C499.426 464.281 499.906 464.481 500.261 464.835C500.615 465.19 500.815 465.67 500.816 466.171V534.403C500.815 534.941 500.601 535.457 500.221 535.837C499.841 536.218 499.326 536.433 498.788 536.435ZM471.512 515.619C480.24 518.583 486.367 525.087 489.722 534.945C489.839 535.297 490.064 535.602 490.364 535.819C490.664 536.036 491.024 536.153 491.395 536.155H498.773C499.005 536.155 499.235 536.109 499.449 536.02C499.663 535.932 499.858 535.802 500.022 535.638C500.186 535.474 500.316 535.279 500.405 535.065C500.494 534.85 500.539 534.621 500.539 534.389V466.171C500.538 465.741 500.367 465.329 500.063 465.025C499.759 464.721 499.347 464.55 498.917 464.549H481.522C479.383 464.552 477.298 465.215 475.551 466.447C473.803 467.68 472.479 469.423 471.76 471.436L462.626 497.09C461.975 498.902 461.693 500.827 461.798 502.75C461.902 504.673 462.39 506.555 463.233 508.287C464.055 510.003 465.213 511.537 466.637 512.798C468.062 514.06 469.724 515.024 471.527 515.633L471.512 515.619Z" fill="#343766"/>
<path d="M495.267 511.09C494.961 511.09 494.668 510.969 494.451 510.753C494.234 510.537 494.112 510.244 494.111 509.938V503.701C494.111 503.394 494.233 503.1 494.45 502.884C494.667 502.667 494.96 502.545 495.267 502.545C495.573 502.546 495.866 502.668 496.082 502.885C496.298 503.102 496.419 503.395 496.419 503.701V509.938C496.419 510.244 496.298 510.537 496.082 510.753C495.866 510.969 495.572 511.09 495.267 511.09Z" fill="#343766"/>
<path d="M495.828 498.03H469.137C468.851 498.031 468.568 497.964 468.313 497.834C468.057 497.703 467.837 497.514 467.67 497.281C467.503 497.048 467.395 496.778 467.353 496.495C467.312 496.211 467.339 495.922 467.433 495.651L475.17 472.926C475.623 471.598 476.48 470.444 477.621 469.627C478.762 468.811 480.13 468.372 481.533 468.372H496.384C496.717 468.372 497.037 468.504 497.272 468.739C497.508 468.975 497.64 469.295 497.64 469.628V496.232C497.641 496.47 497.594 496.705 497.503 496.924C497.412 497.143 497.278 497.342 497.11 497.51C496.941 497.677 496.741 497.809 496.521 497.898C496.301 497.988 496.065 498.032 495.828 498.03Z" fill="#E1E5EF"/>
<mask id="mask7_2690_3185" style="mask-type:luminance" maskUnits="userSpaceOnUse" x="467" y="468" width="31" height="31">
<path d="M495.828 498.03H469.137C468.851 498.031 468.568 497.964 468.313 497.834C468.057 497.703 467.837 497.514 467.67 497.281C467.503 497.048 467.395 496.778 467.353 496.495C467.312 496.211 467.339 495.922 467.433 495.651L475.17 472.926C475.623 471.598 476.48 470.444 477.621 469.627C478.762 468.811 480.13 468.372 481.533 468.372H496.384C496.717 468.372 497.037 468.504 497.272 468.739C497.508 468.975 497.64 469.295 497.64 469.628V496.232C497.641 496.47 497.594 496.705 497.503 496.924C497.412 497.143 497.278 497.342 497.11 497.51C496.941 497.677 496.741 497.809 496.521 497.898C496.301 497.988 496.065 498.032 495.828 498.03Z" fill="white"/>
</mask>
<g mask="url(#mask7_2690_3185)">
<path d="M495.268 466.699L485.57 500.359H462.838L475.468 467.316L495.268 466.699Z" fill="#B2BFDF"/>
</g>
<path d="M469.772 494.747H458.399C457.845 494.747 457.314 494.967 456.922 495.358C456.53 495.75 456.31 496.281 456.31 496.835V499.706H454.369C454.222 499.706 454.081 499.765 453.978 499.868C453.874 499.972 453.816 500.113 453.816 500.259V501.648C453.816 501.795 453.874 501.935 453.978 502.039C454.081 502.142 454.222 502.201 454.369 502.201H456.389C456.511 502.64 456.773 503.028 457.136 503.304C457.499 503.58 457.943 503.73 458.399 503.73H469.772C470.326 503.729 470.857 503.508 471.248 503.117C471.64 502.725 471.86 502.194 471.861 501.641V496.825C471.857 496.273 471.635 495.745 471.244 495.356C470.853 494.966 470.324 494.748 469.772 494.747Z" fill="#343766"/>
<path d="M469.319 503.133C469.521 502.866 469.659 502.557 469.725 502.229C469.787 502.093 469.831 501.949 469.858 501.802C469.878 501.646 469.885 501.489 469.879 501.332V496.928C469.885 496.853 469.885 496.777 469.879 496.702C469.862 496.554 469.824 496.409 469.768 496.271C469.723 495.941 469.6 495.626 469.409 495.353C469.764 495.499 470.067 495.749 470.278 496.07C470.352 496.253 470.403 496.445 470.428 496.641C470.434 496.738 470.434 496.835 470.428 496.932V501.335C470.434 501.521 470.424 501.707 470.4 501.891C470.362 502.083 470.3 502.269 470.213 502.444C469.994 502.761 469.682 503.002 469.319 503.133Z" fill="#8296C9"/>
<path d="M430.186 516.308H385.375C385.268 516.308 385.166 516.266 385.091 516.191C385.016 516.115 384.973 516.013 384.973 515.906C384.973 515.8 385.016 515.697 385.091 515.622C385.166 515.547 385.268 515.504 385.375 515.504H430.186C430.293 515.504 430.395 515.547 430.47 515.622C430.546 515.697 430.588 515.8 430.588 515.906C430.588 516.013 430.546 516.115 430.47 516.191C430.395 516.266 430.293 516.308 430.186 516.308Z" fill="#E1E5EF"/>
<path d="M428.604 546.947H383.793C383.738 546.952 383.681 546.946 383.628 546.928C383.575 546.911 383.526 546.882 383.485 546.844C383.444 546.807 383.41 546.761 383.388 546.71C383.365 546.658 383.354 546.603 383.354 546.547C383.354 546.491 383.365 546.436 383.388 546.384C383.41 546.333 383.444 546.287 383.485 546.25C383.526 546.212 383.575 546.183 383.628 546.166C383.681 546.148 383.738 546.142 383.793 546.147H428.604C428.66 546.142 428.716 546.148 428.769 546.166C428.822 546.183 428.871 546.212 428.913 546.25C428.954 546.287 428.987 546.333 429.01 546.384C429.032 546.436 429.044 546.491 429.044 546.547C429.044 546.603 429.032 546.658 429.01 546.71C428.987 546.761 428.954 546.807 428.913 546.844C428.871 546.882 428.822 546.911 428.769 546.928C428.716 546.946 428.66 546.952 428.604 546.947Z" fill="#8296C9"/>
<path d="M489.952 543.594H504.911V546.466C504.911 547.181 504.626 547.868 504.12 548.374C503.614 548.88 502.928 549.164 502.212 549.164H492.651C491.935 549.164 491.249 548.88 490.743 548.374C490.236 547.868 489.952 547.181 489.952 546.466V543.594Z" fill="#343766"/>
<path d="M465.25 506.755C465.745 506.755 466.147 506.353 466.147 505.857C466.147 505.362 465.745 504.96 465.25 504.96C464.754 504.96 464.353 505.362 464.353 505.857C464.353 506.353 464.754 506.755 465.25 506.755Z" fill="#343766"/>
<path d="M467.135 508.876C467.135 509.053 467.082 509.227 466.984 509.374C466.885 509.522 466.745 509.637 466.581 509.705C466.417 509.773 466.237 509.79 466.063 509.756C465.888 509.721 465.729 509.636 465.603 509.51C465.478 509.385 465.392 509.225 465.358 509.051C465.323 508.877 465.341 508.696 465.409 508.532C465.477 508.368 465.592 508.228 465.739 508.13C465.887 508.031 466.06 507.979 466.238 507.979C466.475 507.979 466.703 508.074 466.871 508.242C467.039 508.41 467.134 508.638 467.135 508.876Z" fill="#343766"/>
<path d="M391.66 524.588H382.684C382.088 524.588 381.604 525.072 381.604 525.668V531.906C381.604 532.502 382.088 532.986 382.684 532.986H391.66C392.257 532.986 392.74 532.502 392.74 531.906V525.668C392.74 525.072 392.257 524.588 391.66 524.588Z" fill="#B2BFDF"/>
<path d="M390.587 525.736H383.412C383.097 525.736 382.842 525.992 382.842 526.307V531.267C382.842 531.582 383.097 531.837 383.412 531.837H390.587C390.902 531.837 391.157 531.582 391.157 531.267V526.307C391.157 525.992 390.902 525.736 390.587 525.736Z" fill="#F2F3F7"/>
<path d="M429.419 524.588H420.443C419.846 524.588 419.363 525.072 419.363 525.668V531.906C419.363 532.502 419.846 532.986 420.443 532.986H429.419C430.015 532.986 430.499 532.502 430.499 531.906V525.668C430.499 525.072 430.015 524.588 429.419 524.588Z" fill="#B2BFDF"/>
<path d="M428.518 525.736H421.344C421.028 525.736 420.773 525.992 420.773 526.307V531.267C420.773 531.582 421.028 531.837 421.344 531.837H428.518C428.833 531.837 429.088 531.582 429.088 531.267V526.307C429.088 525.992 428.833 525.736 428.518 525.736Z" fill="#F2F3F7"/>
<path d="M439.485 524.599H436.172C435.679 524.599 435.279 524.999 435.279 525.492V532.078C435.279 532.571 435.679 532.972 436.172 532.972H439.485C439.979 532.972 440.379 532.571 440.379 532.078V525.492C440.379 524.999 439.979 524.599 439.485 524.599Z" fill="#B2BFDF"/>
<path d="M439.058 525.736H436.596C436.451 525.736 436.334 525.854 436.334 525.998V531.575C436.334 531.72 436.451 531.837 436.596 531.837H439.058C439.203 531.837 439.32 531.72 439.32 531.575V525.998C439.32 525.854 439.203 525.736 439.058 525.736Z" fill="#F2F3F7"/>
<path d="M465.25 461.571H422.327C422.271 461.576 422.215 461.57 422.162 461.552C422.109 461.534 422.06 461.506 422.019 461.468C421.977 461.43 421.944 461.384 421.922 461.333C421.899 461.282 421.887 461.226 421.887 461.171C421.887 461.115 421.899 461.059 421.922 461.008C421.944 460.957 421.977 460.911 422.019 460.873C422.06 460.835 422.109 460.807 422.162 460.789C422.215 460.771 422.271 460.765 422.327 460.77H465.25C465.306 460.765 465.362 460.771 465.415 460.789C465.468 460.807 465.517 460.835 465.559 460.873C465.6 460.911 465.633 460.957 465.656 461.008C465.678 461.059 465.69 461.115 465.69 461.171C465.69 461.226 465.678 461.282 465.656 461.333C465.633 461.384 465.6 461.43 465.559 461.468C465.517 461.506 465.468 461.534 465.415 461.552C465.362 461.57 465.306 461.576 465.25 461.571Z" fill="#E1E5EF"/>
<path d="M502.409 547.894H492.464C492.345 547.893 492.23 547.845 492.146 547.761C492.061 547.676 492.013 547.562 492.012 547.442C492.012 547.322 492.06 547.207 492.145 547.122C492.229 547.037 492.344 546.99 492.464 546.99H502.416C502.536 546.99 502.651 547.037 502.736 547.122C502.821 547.207 502.869 547.322 502.869 547.442C502.868 547.502 502.856 547.561 502.833 547.616C502.809 547.671 502.775 547.721 502.733 547.763C502.69 547.805 502.639 547.838 502.584 547.861C502.528 547.883 502.469 547.895 502.409 547.894Z" fill="#8296C9"/>
<path d="M464.023 528.644C458.604 528.715 453.431 530.918 449.625 534.775C445.818 538.632 443.684 543.833 443.684 549.253C443.684 554.672 445.818 559.873 449.625 563.73C453.431 567.588 458.604 569.79 464.023 569.862H468.746V528.644H464.023Z" fill="#343766"/>
<path d="M468.174 569.862C479.555 569.862 488.782 560.636 488.782 549.254C488.782 537.873 479.555 528.647 468.174 528.647C456.793 528.647 447.567 537.873 447.567 549.254C447.567 560.636 456.793 569.862 468.174 569.862Z" fill="#343766"/>
<path d="M468.175 558.044C473.029 558.044 476.964 554.108 476.964 549.254C476.964 544.4 473.029 540.465 468.175 540.465C463.321 540.465 459.386 544.4 459.386 549.254C459.386 554.108 463.321 558.044 468.175 558.044Z" fill="#F2F3F7"/>
<path d="M468.175 544.183C468.938 544.183 469.556 543.564 469.556 542.801C469.556 542.038 468.938 541.419 468.175 541.419C467.412 541.419 466.793 542.038 466.793 542.801C466.793 543.564 467.412 544.183 468.175 544.183Z" fill="#343766"/>
<path d="M468.175 557.093C468.938 557.093 469.556 556.474 469.556 555.711C469.556 554.948 468.938 554.329 468.175 554.329C467.412 554.329 466.793 554.948 466.793 555.711C466.793 556.474 467.412 557.093 468.175 557.093Z" fill="#343766"/>
<path d="M472.74 546.074C473.503 546.074 474.122 545.456 474.122 544.693C474.122 543.93 473.503 543.311 472.74 543.311C471.977 543.311 471.358 543.93 471.358 544.693C471.358 545.456 471.977 546.074 472.74 546.074Z" fill="#343766"/>
<path d="M463.609 555.201C464.372 555.201 464.991 554.583 464.991 553.819C464.991 553.056 464.372 552.438 463.609 552.438C462.846 552.438 462.228 553.056 462.228 553.819C462.228 554.583 462.846 555.201 463.609 555.201Z" fill="#343766"/>
<path d="M474.632 550.636C475.395 550.636 476.013 550.017 476.013 549.254C476.013 548.491 475.395 547.873 474.632 547.873C473.869 547.873 473.25 548.491 473.25 549.254C473.25 550.017 473.869 550.636 474.632 550.636Z" fill="#343766"/>
<path d="M463.643 548.163C464.345 547.865 464.673 547.055 464.375 546.353C464.078 545.651 463.267 545.323 462.565 545.62C461.863 545.918 461.535 546.728 461.833 547.43C462.13 548.132 462.941 548.46 463.643 548.163Z" fill="#343766"/>
<path d="M472.74 555.201C473.503 555.201 474.122 554.583 474.122 553.819C474.122 553.056 473.503 552.438 472.74 552.438C471.977 552.438 471.358 553.056 471.358 553.819C471.358 554.583 471.977 555.201 472.74 555.201Z" fill="#343766"/>
<path d="M463.609 546.074C464.372 546.074 464.991 545.456 464.991 544.693C464.991 543.93 464.372 543.311 463.609 543.311C462.846 543.311 462.228 543.93 462.228 544.693C462.228 545.456 462.846 546.074 463.609 546.074Z" fill="#343766"/>
<path d="M464.992 529.211C461.674 530.085 458.623 531.763 456.108 534.097C453.593 536.43 451.691 539.347 450.571 542.59C449.107 546.914 449.107 551.599 450.571 555.923C451.693 559.165 453.595 562.08 456.11 564.413C458.624 566.746 461.675 568.424 464.992 569.299C462.732 568.821 460.571 567.958 458.603 566.747C456.636 565.516 454.886 563.967 453.425 562.164C451.595 559.894 450.269 557.261 449.535 554.439C448.8 551.618 448.674 548.672 449.164 545.798C449.654 542.924 450.749 540.187 452.377 537.769C454.005 535.35 456.129 533.305 458.607 531.77C460.572 530.556 462.732 529.69 464.992 529.211Z" fill="#8296C9"/>
<path d="M504.911 543.491C504.721 543.491 504.538 543.415 504.404 543.28C504.269 543.146 504.193 542.963 504.193 542.773V459.08C504.193 458.887 504.27 458.702 504.406 458.566C504.543 458.43 504.727 458.353 504.92 458.353C505.113 458.353 505.298 458.43 505.434 458.566C505.57 458.702 505.647 458.887 505.647 459.08V542.766C505.648 542.862 505.629 542.958 505.593 543.047C505.556 543.136 505.502 543.217 505.433 543.284C505.364 543.352 505.283 543.405 505.193 543.441C505.103 543.476 505.008 543.493 504.911 543.491Z" fill="#343766"/>
<path d="M528.712 485.508H534.232C535.142 485.486 536.046 485.663 536.88 486.029C537.595 486.355 538.221 486.847 538.707 487.464C539.193 488.094 539.551 488.812 539.762 489.578C540.221 491.276 540.221 493.066 539.762 494.764C539.551 495.53 539.193 496.248 538.707 496.878C538.221 497.495 537.595 497.987 536.88 498.313C536.046 498.679 535.142 498.856 534.232 498.834H528.712V485.508ZM531.045 496.917H533.338C534.097 496.945 534.854 496.823 535.567 496.558C536.102 496.349 536.571 496.001 536.927 495.55C537.264 495.106 537.494 494.59 537.598 494.043C537.833 492.803 537.833 491.531 537.598 490.292C537.493 489.744 537.263 489.227 536.927 488.781C536.57 488.333 536.101 487.986 535.567 487.776C534.854 487.512 534.097 487.39 533.338 487.418H531.045V496.917Z" fill="white"/>
<path d="M542.188 485.508H551.774V487.522H544.521V491.006H551.232V492.909H544.521V496.806H551.904V498.819H542.188V485.508Z" fill="white"/>
<path d="M553.938 485.508H556.268V496.806H563.036V498.819H553.938V485.508Z" fill="white"/>
<path d="M564.641 485.508H566.97V498.819H564.641V485.508Z" fill="white"/>
<path d="M568.312 485.508H570.738L574.075 496.042H574.111L577.524 485.508H579.893L575.342 498.819H572.751L568.312 485.508Z" fill="white"/>
<path d="M581.218 485.508H590.8V487.522H583.547V491.006H590.262V492.909H583.547V496.806H590.933V498.819H581.218V485.508Z" fill="white"/>
<path d="M592.953 485.508H599.313C600.777 485.508 601.879 485.824 602.611 486.459C602.982 486.789 603.273 487.198 603.464 487.656C603.655 488.114 603.74 488.609 603.713 489.104C603.73 489.643 603.635 490.18 603.433 490.68C603.276 491.052 603.055 491.393 602.78 491.688C602.57 491.915 602.321 492.101 602.044 492.237C601.8 492.349 601.624 492.424 601.513 492.464V492.499C601.735 492.531 601.951 492.594 602.155 492.686C602.4 492.797 602.619 492.959 602.797 493.16C603.016 493.409 603.184 493.697 603.293 494.01C603.435 494.431 603.502 494.873 603.49 495.317C603.484 496.031 603.543 496.745 603.666 497.448C603.723 497.946 603.913 498.42 604.215 498.819H601.703C601.527 498.531 601.421 498.205 601.394 497.868C601.365 497.51 601.348 497.187 601.348 496.864C601.354 496.336 601.317 495.809 601.236 495.288C601.185 494.899 601.053 494.525 600.849 494.19C600.649 493.899 600.366 493.675 600.038 493.547C599.616 493.398 599.171 493.329 598.724 493.343H595.293V498.823H592.953V485.508ZM595.286 491.566H599.108C599.72 491.611 600.325 491.421 600.802 491.035C601.007 490.826 601.164 490.576 601.265 490.301C601.365 490.026 601.405 489.733 601.383 489.442C601.396 489.088 601.332 488.735 601.197 488.408C601.085 488.157 600.908 487.94 600.684 487.78C600.458 487.629 600.204 487.528 599.937 487.482C599.65 487.434 599.36 487.41 599.069 487.41H595.286V491.566Z" fill="white"/>
<path d="M608.87 493.601L603.875 485.508H606.591L610.116 491.473L613.582 485.508H616.195L611.214 493.601V498.819H608.885L608.87 493.601Z" fill="white"/>
<path d="M489.137 550.64C488.887 550.64 488.64 550.591 488.409 550.495C488.178 550.399 487.968 550.258 487.791 550.081C487.615 549.904 487.474 549.694 487.379 549.463C487.284 549.232 487.235 548.984 487.235 548.734C487.165 543.5 485.037 538.504 481.31 534.828C477.584 531.152 472.56 529.09 467.326 529.09C462.092 529.09 457.068 531.152 453.342 534.828C449.615 538.504 447.487 543.5 447.417 548.734C447.417 549.24 447.216 549.724 446.858 550.082C446.501 550.439 446.016 550.64 445.511 550.64C445.006 550.64 444.521 550.439 444.163 550.082C443.806 549.724 443.605 549.24 443.605 548.734C443.528 545.571 444.084 542.425 445.241 539.48C446.398 536.535 448.133 533.852 450.343 531.587C452.553 529.323 455.193 527.524 458.109 526.296C461.025 525.067 464.157 524.435 467.321 524.435C470.485 524.436 473.616 525.069 476.532 526.298C479.447 527.528 482.087 529.328 484.296 531.593C486.506 533.857 488.239 536.541 489.396 539.487C490.552 542.432 491.107 545.578 491.029 548.741C491.027 549.243 490.827 549.724 490.473 550.079C490.119 550.435 489.639 550.636 489.137 550.64Z" fill="#F2F3F7"/>
<path d="M978.364 306.868H1137.3C1135.73 300.677 1129.8 296.277 1123.76 294.217C1117.71 292.157 1111.11 292.423 1104.81 293.46C1104.82 289.749 1103.65 286.131 1101.48 283.12C1097.89 277.909 1093.1 273.348 1087.2 271.054C1081.3 268.761 1074.23 269.016 1069.04 272.634C1065.28 275.257 1062.82 279.323 1060.55 283.307C1058.67 286.598 1056.79 290.126 1056.94 293.926C1049.28 289.171 1037.72 292.186 1032.62 299.618C1024.37 294.375 1014.66 290.962 1004.89 291.608C995.132 292.254 983.033 298.269 978.364 306.868Z" fill="white"/>
<path d="M790.791 425.639C795.151 425.639 798.686 422.104 798.686 417.743C798.686 413.383 795.151 409.848 790.791 409.848C786.43 409.848 782.895 413.383 782.895 417.743C782.895 422.104 786.43 425.639 790.791 425.639Z" fill="#E1E5EF"/>
<path d="M790.791 466.767C795.151 466.767 798.686 463.232 798.686 458.872C798.686 454.511 795.151 450.976 790.791 450.976C786.43 450.976 782.895 454.511 782.895 458.872C782.895 463.232 786.43 466.767 790.791 466.767Z" fill="#E1E5EF"/>
<path d="M790.791 507.896C795.151 507.896 798.686 504.361 798.686 500.001C798.686 495.64 795.151 492.105 790.791 492.105C786.43 492.105 782.895 495.64 782.895 500.001C782.895 504.361 786.43 507.896 790.791 507.896Z" fill="#E1E5EF"/>
<path d="M790.791 547.216C795.151 547.216 798.686 543.681 798.686 539.32C798.686 534.96 795.151 531.425 790.791 531.425C786.43 531.425 782.895 534.96 782.895 539.32C782.895 543.681 786.43 547.216 790.791 547.216Z" fill="white"/>
<path d="M910.466 413.289H818.626C817.977 413.289 817.355 413.031 816.896 412.572C816.437 412.113 816.179 411.491 816.179 410.842C816.179 410.193 816.437 409.57 816.896 409.111C817.355 408.652 817.977 408.394 818.626 408.394H910.466C911.115 408.394 911.738 408.652 912.197 409.111C912.656 409.57 912.914 410.193 912.914 410.842C912.914 411.491 912.656 412.113 912.197 412.572C911.738 413.031 911.115 413.289 910.466 413.289Z" fill="#E1E5EF"/>
<path d="M910.466 422.053H818.626C817.977 422.053 817.355 421.796 816.896 421.337C816.437 420.878 816.179 420.255 816.179 419.606C816.179 418.957 816.437 418.334 816.896 417.875C817.355 417.416 817.977 417.158 818.626 417.158H910.466C911.115 417.158 911.738 417.416 912.197 417.875C912.656 418.334 912.914 418.957 912.914 419.606C912.914 420.255 912.656 420.878 912.197 421.337C911.738 421.796 911.115 422.053 910.466 422.053Z" fill="#E1E5EF"/>
<path d="M865.526 430.832H818.626C817.977 430.832 817.355 430.574 816.896 430.115C816.437 429.656 816.179 429.033 816.179 428.384C816.178 428.063 816.241 427.744 816.364 427.447C816.487 427.149 816.667 426.879 816.894 426.651C817.122 426.424 817.392 426.243 817.689 426.12C817.986 425.997 818.305 425.933 818.626 425.933H865.526C866.175 425.934 866.798 426.193 867.257 426.652C867.716 427.112 867.974 427.735 867.974 428.384C867.973 429.033 867.714 429.655 867.256 430.114C866.797 430.573 866.175 430.831 865.526 430.832Z" fill="#E1E5EF"/>
<path d="M910.466 453.485H818.626C817.977 453.485 817.355 453.227 816.896 452.768C816.437 452.309 816.179 451.686 816.179 451.037C816.179 450.388 816.437 449.766 816.896 449.307C817.355 448.847 817.977 448.59 818.626 448.59H910.466C911.115 448.59 911.738 448.847 912.197 449.307C912.656 449.766 912.914 450.388 912.914 451.037C912.914 451.686 912.656 452.309 912.197 452.768C911.738 453.227 911.115 453.485 910.466 453.485Z" fill="#E1E5EF"/>
<path d="M910.466 462.249H818.626C817.977 462.249 817.355 461.991 816.896 461.532C816.437 461.073 816.179 460.451 816.179 459.802C816.178 459.48 816.241 459.161 816.364 458.864C816.487 458.566 816.667 458.296 816.894 458.069C817.122 457.841 817.392 457.66 817.689 457.537C817.986 457.414 818.305 457.35 818.626 457.35H910.466C910.788 457.35 911.106 457.414 911.404 457.537C911.701 457.66 911.971 457.841 912.198 458.069C912.425 458.296 912.606 458.566 912.728 458.864C912.851 459.161 912.914 459.48 912.914 459.802C912.914 460.451 912.656 461.073 912.197 461.532C911.738 461.991 911.115 462.249 910.466 462.249Z" fill="#E1E5EF"/>
<path d="M865.526 471.024H818.626C817.977 471.024 817.355 470.766 816.896 470.307C816.437 469.848 816.179 469.225 816.179 468.576C816.179 467.927 816.437 467.304 816.896 466.845C817.355 466.386 817.977 466.128 818.626 466.128H865.526C866.175 466.129 866.797 466.388 867.256 466.846C867.714 467.305 867.973 467.927 867.974 468.576C867.974 469.225 867.716 469.848 867.257 470.307C866.798 470.766 866.175 471.024 865.526 471.024Z" fill="#E1E5EF"/>
<path d="M910.466 493.68H818.626C817.977 493.68 817.355 493.422 816.896 492.963C816.437 492.504 816.179 491.882 816.179 491.233C816.179 490.583 816.437 489.961 816.896 489.502C817.355 489.043 817.977 488.785 818.626 488.785H910.466C911.115 488.785 911.738 489.043 912.197 489.502C912.656 489.961 912.914 490.583 912.914 491.233C912.914 491.882 912.656 492.504 912.197 492.963C911.738 493.422 911.115 493.68 910.466 493.68Z" fill="#E1E5EF"/>
<path d="M910.466 502.444H818.626C818.305 502.444 817.986 502.381 817.689 502.258C817.392 502.134 817.122 501.954 816.894 501.726C816.667 501.498 816.487 501.228 816.364 500.931C816.241 500.633 816.178 500.315 816.179 499.993C816.179 499.344 816.437 498.721 816.896 498.262C817.355 497.803 817.977 497.545 818.626 497.545H910.466C911.115 497.545 911.738 497.803 912.197 498.262C912.656 498.721 912.914 499.344 912.914 499.993C912.914 500.315 912.851 500.633 912.728 500.931C912.606 501.228 912.425 501.498 912.198 501.726C911.971 501.954 911.701 502.134 911.404 502.258C911.106 502.381 910.788 502.444 910.466 502.444Z" fill="#E1E5EF"/>
<path d="M865.526 511.219H818.626C817.977 511.219 817.355 510.961 816.896 510.502C816.437 510.043 816.179 509.421 816.179 508.772C816.179 508.122 816.437 507.5 816.896 507.041C817.355 506.582 817.977 506.324 818.626 506.324H865.526C866.175 506.324 866.798 506.582 867.257 507.041C867.716 507.5 867.974 508.122 867.974 508.772C867.974 509.421 867.716 510.043 867.257 510.502C866.798 510.961 866.175 511.219 865.526 511.219Z" fill="#E1E5EF"/>
<path d="M910.466 533.876H818.626C818.305 533.876 817.986 533.813 817.689 533.69C817.392 533.566 817.122 533.386 816.894 533.158C816.667 532.931 816.487 532.66 816.364 532.363C816.241 532.066 816.178 531.747 816.179 531.425C816.179 530.776 816.437 530.153 816.896 529.694C817.355 529.235 817.977 528.978 818.626 528.978H910.466C911.115 528.978 911.738 529.235 912.197 529.694C912.656 530.153 912.914 530.776 912.914 531.425C912.914 531.747 912.851 532.066 912.728 532.363C912.606 532.66 912.425 532.931 912.198 533.158C911.971 533.386 911.701 533.566 911.404 533.69C911.106 533.813 910.788 533.876 910.466 533.876Z" fill="#E1E5EF"/>
<path d="M910.466 542.64H818.626C817.977 542.64 817.355 542.382 816.896 541.923C816.437 541.464 816.179 540.841 816.179 540.192C816.179 539.543 816.437 538.921 816.896 538.462C817.355 538.003 817.977 537.745 818.626 537.745H910.466C911.115 537.745 911.738 538.003 912.197 538.462C912.656 538.921 912.914 539.543 912.914 540.192C912.914 540.841 912.656 541.464 912.197 541.923C911.738 542.382 911.115 542.64 910.466 542.64Z" fill="#E1E5EF"/>
<path d="M865.526 551.415H818.626C817.977 551.415 817.355 551.157 816.896 550.698C816.437 550.239 816.179 549.616 816.179 548.967C816.179 548.318 816.437 547.695 816.896 547.236C817.355 546.777 817.977 546.52 818.626 546.52H865.526C866.175 546.52 866.798 546.777 867.257 547.236C867.716 547.695 867.974 548.318 867.974 548.967C867.974 549.616 867.716 550.239 867.257 550.698C866.798 551.157 866.175 551.415 865.526 551.415Z" fill="#E1E5EF"/>
<path d="M790.791 484.769C789.572 484.77 788.404 485.255 787.543 486.117C786.681 486.979 786.197 488.148 786.197 489.366C786.197 494.297 790.791 500.951 790.791 500.951C790.791 500.951 795.385 494.297 795.385 489.366C795.385 488.148 794.901 486.979 794.04 486.117C793.178 485.255 792.01 484.77 790.791 484.769ZM790.791 491.319C790.34 491.319 789.899 491.185 789.525 490.934C789.15 490.684 788.858 490.328 788.685 489.911C788.513 489.494 788.468 489.036 788.556 488.594C788.644 488.151 788.862 487.745 789.181 487.427C789.5 487.108 789.906 486.892 790.349 486.804C790.791 486.716 791.249 486.762 791.666 486.935C792.082 487.108 792.438 487.401 792.688 487.776C792.938 488.151 793.071 488.592 793.07 489.043C793.07 489.342 793.011 489.638 792.896 489.915C792.782 490.191 792.614 490.442 792.402 490.653C792.191 490.865 791.939 491.032 791.663 491.146C791.386 491.26 791.09 491.319 790.791 491.319Z" fill="#8296C9"/>
<path d="M907.21 283.214H787.621C784.385 283.214 781.761 285.838 781.761 289.075V387.938C781.761 391.174 784.385 393.798 787.621 393.798H907.21C910.447 393.798 913.071 391.174 913.071 387.938V289.075C913.071 285.838 910.447 283.214 907.21 283.214Z" fill="#E1E5EF"/>
<path d="M795.536 321.436C795.325 321.436 795.124 321.352 794.975 321.203C794.826 321.055 794.743 320.853 794.743 320.642V297.674H817.712C817.922 297.674 818.124 297.757 818.272 297.906C818.421 298.055 818.505 298.256 818.505 298.467C818.505 298.677 818.421 298.879 818.272 299.028C818.124 299.176 817.922 299.26 817.712 299.26H796.315V320.653C796.313 320.86 796.23 321.057 796.085 321.203C795.939 321.349 795.742 321.433 795.536 321.436Z" fill="#8296C9"/>
<path d="M899.297 321.435C899.087 321.435 898.885 321.352 898.737 321.203C898.588 321.054 898.504 320.852 898.504 320.642V299.249H877.111C876.901 299.249 876.699 299.165 876.55 299.016C876.401 298.868 876.318 298.666 876.318 298.455C876.318 298.245 876.401 298.043 876.55 297.895C876.699 297.746 876.901 297.662 877.111 297.662H900.08V320.631C900.081 320.735 900.062 320.839 900.024 320.936C899.985 321.032 899.928 321.121 899.855 321.195C899.783 321.27 899.696 321.33 899.6 321.371C899.505 321.412 899.402 321.434 899.297 321.435Z" fill="#8296C9"/>
<path d="M900.09 379.346H877.121C876.911 379.346 876.709 379.262 876.56 379.113C876.412 378.964 876.328 378.763 876.328 378.552C876.328 378.342 876.412 378.14 876.56 377.992C876.709 377.843 876.911 377.759 877.121 377.759H898.515V356.377C898.515 356.166 898.598 355.965 898.747 355.816C898.896 355.667 899.097 355.583 899.308 355.583C899.518 355.583 899.72 355.667 899.869 355.816C900.017 355.965 900.101 356.166 900.101 356.377L900.09 379.346Z" fill="#8296C9"/>
<path d="M817.726 379.346H794.757V356.377C794.757 356.166 794.84 355.965 794.989 355.816C795.138 355.667 795.34 355.583 795.55 355.583C795.76 355.583 795.962 355.667 796.111 355.816C796.26 355.965 796.343 356.166 796.343 356.377V377.774H817.74C817.95 377.774 818.152 377.857 818.301 378.006C818.45 378.155 818.533 378.356 818.533 378.567C818.533 378.777 818.45 378.979 818.301 379.128C818.152 379.276 817.95 379.36 817.74 379.36L817.726 379.346Z" fill="#8296C9"/>
<path d="M880.175 307.865H804.303V368.173H880.175V307.865Z" fill="#F1CA89"/>
<path d="M888.678 307.865H862.892V368.173H888.678V307.865Z" fill="#F1B873"/>
<path d="M839.807 307.865H830.889V326.492H839.807V307.865Z" fill="white"/>
<path d="M880.176 307.865H872.951V326.492H880.176V307.865Z" fill="white"/>
<path d="M879.738 192.142H973.408C967.182 186.256 957.578 182.965 949.223 184.846C948.112 182.543 946.355 180.613 944.166 179.293C941.977 177.972 939.45 177.317 936.895 177.409C934.34 177.5 931.867 178.333 929.778 179.807C927.689 181.281 926.074 183.331 925.131 185.707C923.77 183.387 921.769 181.509 919.368 180.298C916.966 179.088 914.266 178.596 911.592 178.882C908.918 179.168 906.383 180.22 904.292 181.911C902.201 183.602 900.643 185.861 899.804 188.417C893.401 183.859 884.372 185.772 879.738 192.142Z" fill="white"/>
<path d="M412.838 354.478H351.45V355.006H412.838V354.478Z" fill="#8296C9"/>
<path d="M379.084 338.981H327.333V339.509H379.084V338.981Z" fill="#8296C9"/>
<path d="M402.441 338.981H390.139V339.509H402.441V338.981Z" fill="#8296C9"/>
<path d="M419.592 327.235H367.198V327.762H419.592V327.235Z" fill="#8296C9"/>
<path d="M628.888 207.194H572.769V207.657H628.888V207.194Z" fill="#8296C9"/>
<path d="M655.924 229.179H607.417V229.642H655.924V229.179Z" fill="#8296C9"/>
<path d="M1123.06 211.992H1062.49V212.519H1123.06V211.992Z" fill="#8296C9"/>
<path d="M1137.56 225.784H1092.77V226.312H1137.56V225.784Z" fill="#8296C9"/>
<path d="M962.311 153.31H906.996V153.838H962.311V153.31Z" fill="#8296C9"/>
<path d="M972.062 144.525H937.906V145.052H972.062V144.525Z" fill="#8296C9"/>
<path d="M1005.4 493.25H921.143V569.862H1005.4V493.25Z" fill="#F1CA89"/>
<path d="M1038.43 493.25H1004.15V569.862H1038.43V493.25Z" fill="#F1B873"/>
<path d="M969.852 493.25H959.544V569.862H969.852V493.25Z" fill="white"/>
<path d="M1025.7 493.25H1019.16V569.941H1025.7V493.25Z" fill="white"/>
<path d="M997.913 438.989H938.28V493.214H997.913V438.989Z" fill="#F1CA89"/>
<path d="M1021.29 438.989H997.03V493.214H1021.29V438.989Z" fill="#F1B873"/>
<path d="M972.755 438.989H965.459V493.214H972.755V438.989Z" fill="white"/>
<path d="M1012.28 438.989H1007.65V493.268H1012.28V438.989Z" fill="white"/>
<path d="M997.03 492.356H938.28V494.075H997.03V492.356Z" fill="#F1B873"/>
<path d="M1188.62 569.147H251.126V570.734H1188.62V569.147Z" fill="#39548B"/>
</g>
<defs>
<clipPath id="clip0_2690_3185">
<rect width="1076.67" height="646" fill="white" transform="translate(181.667)"/>
</clipPath>
</defs>
</svg>
