<svg width="17" height="18" viewBox="0 0 17 18" fill="none" xmlns="http://www.w3.org/2000/svg">
<path d="M1.39972 18C1.22972 18.003 1.05972 17.974 0.899725 17.914L8.95372 9.85704L11.6197 12.526L2.36472 17.726C2.07159 17.8979 1.73946 17.9923 1.39972 18ZM0.235725 17.335C0.0720031 17.0385 -0.00947615 16.7036 -0.000275281 16.365V1.66004C-0.00162683 1.43682 0.0321183 1.21478 0.0997246 1.00204L8.33272 9.23704L0.232725 17.337L0.235725 17.335ZM12.4147 12.077L9.57372 9.23804L12.7067 6.10604L15.4897 7.66904C16.0237 7.90904 16.3817 8.42404 16.4177 9.00804C16.4 9.29493 16.304 9.57149 16.1403 9.80771C15.9765 10.0439 15.7512 10.2308 15.4887 10.348L12.4147 12.077ZM8.95372 8.61404L0.613725 0.275038C0.842725 0.105038 1.11972 0.0150381 1.40472 0.0140381C1.74072 0.0260381 2.06872 0.121038 2.35972 0.291038L11.9107 5.65904L8.95472 8.61404H8.95372Z" fill="white"/>
</svg>
