<svg width="19" height="15" viewBox="0 0 19 15" fill="none" xmlns="http://www.w3.org/2000/svg">
<path d="M19 0.731079V4.73669C19 5.88863 18.784 7.08639 18.352 8.32996C17.907 9.58662 17.3048 10.7713 16.5456 11.884C15.7733 13.0097 14.9093 13.9588 13.9537 14.7311L10.655 12.5908C11.4273 11.4258 12.0753 10.2084 12.5989 8.93865C13.1094 7.68199 13.3581 6.29443 13.345 4.77596V0.731079H19ZM9.04488 0.731079V4.73669C9.04488 5.88863 8.82889 7.08639 8.39692 8.32996C7.95185 9.58662 7.3497 10.7713 6.59046 11.884C5.81814 13.0097 4.95419 13.9588 3.9986 14.7311L0.699862 12.5908C1.47219 11.4258 2.12015 10.2084 2.64376 8.93865C3.15428 7.68199 3.40299 6.29443 3.3899 4.77596V0.731079H9.04488Z" fill="#333942"/>
</svg>
