<svg width="19" height="15" viewBox="0 0 19 15" fill="none" xmlns="http://www.w3.org/2000/svg">
<path d="M0 14.7311V10.7255C0 9.57353 0.215989 8.37577 0.647966 7.1322C1.09303 5.87554 1.69518 4.69087 2.45442 3.5782C3.22674 2.45245 4.09069 1.5034 5.04628 0.731079L8.34502 2.87133C7.57269 4.03636 6.92473 5.25375 6.40112 6.52351C5.8906 7.78017 5.64189 9.16773 5.65498 10.6862V14.7311H0ZM9.95511 14.7311V10.7255C9.95511 9.57353 10.1711 8.37577 10.6031 7.1322C11.0481 5.87554 11.6503 4.69087 12.4095 3.5782C13.1819 2.45245 14.0458 1.5034 15.0014 0.731079L18.3001 2.87133C17.5278 4.03636 16.8798 5.25375 16.3562 6.52351C15.8457 7.78017 15.597 9.16773 15.6101 10.6862V14.7311H9.95511Z" fill="#333942"/>
</svg>
