<svg width="21" height="14" viewBox="0 0 21 14" fill="none" xmlns="http://www.w3.org/2000/svg">
<path d="M3.05014 14C2.20014 14 1.5418 13.7042 1.07514 13.1125C0.60847 12.5208 0.43347 11.8 0.550137 10.95L1.60014 3.45C1.75014 2.45 2.19597 1.625 2.93764 0.975C3.6793 0.325 4.55014 0 5.55014 0H15.4501C16.4501 0 17.321 0.325 18.0626 0.975C18.8043 1.625 19.2501 2.45 19.4001 3.45L20.4501 10.95C20.5668 11.8 20.3918 12.5208 19.9251 13.1125C19.4585 13.7042 18.8001 14 17.9501 14C17.6001 14 17.2751 13.9375 16.9751 13.8125C16.6751 13.6875 16.4001 13.5 16.1501 13.25L13.9001 11H7.10014L4.85014 13.25C4.60014 13.5 4.32514 13.6875 4.02514 13.8125C3.72514 13.9375 3.40014 14 3.05014 14ZM3.45014 11.85L6.30014 9H14.7001L17.5501 11.85C17.5835 11.8833 17.7168 11.9333 17.9501 12C18.1335 12 18.2793 11.9458 18.3876 11.8375C18.496 11.7292 18.5335 11.5833 18.5001 11.4L17.4001 3.7C17.3335 3.21667 17.1168 2.8125 16.7501 2.4875C16.3835 2.1625 15.9501 2 15.4501 2H5.55014C5.05014 2 4.6168 2.1625 4.25014 2.4875C3.88347 2.8125 3.6668 3.21667 3.60014 3.7L2.50014 11.4C2.4668 11.5833 2.5043 11.7292 2.61264 11.8375C2.72097 11.9458 2.8668 12 3.05014 12C3.08347 12 3.2168 11.95 3.45014 11.85ZM15.5001 8C15.7835 8 16.021 7.90417 16.2126 7.7125C16.4043 7.52083 16.5001 7.28333 16.5001 7C16.5001 6.71667 16.4043 6.47917 16.2126 6.2875C16.021 6.09583 15.7835 6 15.5001 6C15.2168 6 14.9793 6.09583 14.7876 6.2875C14.596 6.47917 14.5001 6.71667 14.5001 7C14.5001 7.28333 14.596 7.52083 14.7876 7.7125C14.9793 7.90417 15.2168 8 15.5001 8ZM13.5001 5C13.7835 5 14.021 4.90417 14.2126 4.7125C14.4043 4.52083 14.5001 4.28333 14.5001 4C14.5001 3.71667 14.4043 3.47917 14.2126 3.2875C14.021 3.09583 13.7835 3 13.5001 3C13.2168 3 12.9793 3.09583 12.7876 3.2875C12.596 3.47917 12.5001 3.71667 12.5001 4C12.5001 4.28333 12.596 4.52083 12.7876 4.7125C12.9793 4.90417 13.2168 5 13.5001 5ZM6.25014 8H7.75014V6.25H9.50014V4.75H7.75014V3H6.25014V4.75H4.50014V6.25H6.25014V8Z" fill="#0217EB"/>
</svg>
