<svg width="307" height="24" viewBox="0 0 307 24" fill="none" xmlns="http://www.w3.org/2000/svg">
<path d="M2 21.7311C3.1362 21.5902 4.21465 20.7399 5.21441 20.058C8.80246 17.6108 12.3778 15.2264 16.0207 12.9329C19.621 10.6663 24.1988 7.28836 28.2651 9.26935C30.5697 10.3921 31.5448 13.8462 32.3677 16.9425C32.5101 17.4784 33.2124 21.1542 33.8057 21.1542C34.9328 21.1542 37.4446 17.5741 38.3312 16.7118C45.3121 9.92186 53.8175 7.5623 62.0163 4.91351C64.739 4.0339 64.9928 5.66873 65.7383 9.00973C66.0387 10.3564 66.224 13.9102 67.4301 13.9425C74.3747 14.1282 80.2915 11.318 86.8011 8.17318C91.9888 5.66694 96.3437 6.41957 101.52 7.9424C103.12 8.41318 106.481 8.28569 107.251 10.5963C107.47 11.2542 108.042 13.8991 108.583 13.9425C114.402 14.4094 120.26 10.1454 125.797 8.28856C126.176 8.16133 136.339 5.09615 136.73 6.96162C137.166 9.04112 137.93 11.0367 138.443 13.1348C139.288 16.5918 142.721 14.6316 144.534 13.654C147.801 11.8918 151.468 11.6601 154.875 10.5386C158.542 9.3312 162.151 7.86259 165.808 6.61546C168.761 5.60838 171.967 4.87405 174.753 6.93277C176.347 8.11007 176.426 9.99715 177.1 12.0675C177.713 13.9486 187.825 10.8143 188.901 10.4809C194.099 8.86945 199.128 6.25277 204.275 4.36542C205.424 3.94397 209.114 1.59607 210.429 2.63463C211.768 3.69241 210.453 10.0712 211.825 10.279C217.948 11.2071 224.591 9.12592 230.371 6.67315C235.394 4.54149 239.788 2.51924 245.068 2.51924C246.704 2.51924 246.613 3.04702 246.845 5.05774C246.982 6.25068 246.952 11.5141 248.177 11.3175C253.259 10.5019 258.479 7.99717 263.255 5.66352C265.328 4.65064 269.122 1.42023 269.895 5.4039C270.249 7.22744 270.857 8.97117 271.206 10.8271C271.628 13.0642 272.825 12.587 274.167 11.6059C277.853 8.91219 282.592 8.11467 286.707 7.68278C287.277 7.62302 288.22 6.91086 288.78 7.25008C289.516 7.69603 289.012 8.78427 290.239 8.75011C295.61 8.6006 299.932 3.3826 305 2" stroke="#00FFC6" stroke-width="3" stroke-linecap="round"/>
</svg>
