<svg width="18" height="20" viewBox="0 0 18 20" fill="none" xmlns="http://www.w3.org/2000/svg">
<path d="M4 20V14H2.4C1.73333 14 1.16667 13.7667 0.7 13.3C0.233333 12.8333 0 12.2667 0 11.6C0 11.1167 0.133333 10.6708 0.4 10.2625C0.666667 9.85417 1.01667 9.55 1.45 9.35L8 6.45V5.8C7.4 5.58333 6.91667 5.22083 6.55 4.7125C6.18333 4.20417 6 3.63333 6 3C6 2.16667 6.29167 1.45833 6.875 0.875C7.45833 0.291667 8.16667 0 9 0C9.83333 0 10.5417 0.291667 11.125 0.875C11.7083 1.45833 12 2.16667 12 3H10C10 2.71667 9.90417 2.47917 9.7125 2.2875C9.52083 2.09583 9.28333 2 9 2C8.71667 2 8.47917 2.09583 8.2875 2.2875C8.09583 2.47917 8 2.71667 8 3C8 3.28333 8.09583 3.52083 8.2875 3.7125C8.47917 3.90417 8.71667 4 9 4C9.28333 4 9.52083 4.09583 9.7125 4.2875C9.90417 4.47917 10 4.71667 10 5V6.45L16.55 9.35C16.9833 9.55 17.3333 9.85417 17.6 10.2625C17.8667 10.6708 18 11.1167 18 11.6C18 12.2667 17.7667 12.8333 17.3 13.3C16.8333 13.7667 16.2667 14 15.6 14H14V20H4ZM2.4 12H4V11H14V12H15.6C15.7167 12 15.8125 11.9583 15.8875 11.875C15.9625 11.7917 16 11.6833 16 11.55C16 11.4667 15.9792 11.3958 15.9375 11.3375C15.8958 11.2792 15.8333 11.2333 15.75 11.2L9 8.2L2.25 11.2C2.16667 11.2333 2.10417 11.2792 2.0625 11.3375C2.02083 11.3958 2 11.4667 2 11.55C2 11.6833 2.0375 11.7917 2.1125 11.875C2.1875 11.9583 2.28333 12 2.4 12ZM6 18H12V13H6V18Z" fill="#0217EB"/>
</svg>
