<svg width="15" height="20" viewBox="0 0 15 20" fill="none" xmlns="http://www.w3.org/2000/svg">
<path d="M5 20C4.45 20 3.97917 19.8042 3.5875 19.4125C3.19583 19.0208 3 18.55 3 18V17C3 16.2167 3.17083 15.4917 3.5125 14.825C3.85417 14.1583 4.3 13.6 4.85 13.15L4.25 9H2C1.45 9 0.979167 8.80417 0.5875 8.4125C0.195833 8.02083 0 7.55 0 7V3C0 2.45 0.195833 1.97917 0.5875 1.5875C0.979167 1.19583 1.45 1 2 1H7V0H11V1H15L13.15 13.15C13.7 13.6 14.1458 14.1583 14.4875 14.825C14.8292 15.4917 15 16.2167 15 17V18C15 18.55 14.8042 19.0208 14.4125 19.4125C14.0208 19.8042 13.55 20 13 20H5ZM3.95 7L3.3 3H2V7H3.95ZM9 17C9.28333 17 9.52083 16.9042 9.7125 16.7125C9.90417 16.5208 10 16.2833 10 16C10 15.7167 9.90417 15.4792 9.7125 15.2875C9.52083 15.0958 9.28333 15 9 15C8.71667 15 8.47917 15.0958 8.2875 15.2875C8.09583 15.4792 8 15.7167 8 16C8 16.2833 8.09583 16.5208 8.2875 16.7125C8.47917 16.9042 8.71667 17 9 17ZM6.7 12H11.3L12.65 3H5.35L6.7 12ZM5 18H13V17C13 16.1667 12.7083 15.4583 12.125 14.875C11.5417 14.2917 10.8333 14 10 14H8C7.16667 14 6.45833 14.2917 5.875 14.875C5.29167 15.4583 5 16.1667 5 17V18Z" fill="#0217EB"/>
</svg>
