<svg width="20" height="14" viewBox="0 0 20 14" fill="none" xmlns="http://www.w3.org/2000/svg">
<path d="M2.55001 14C1.70001 14 1.04168 13.7042 0.575015 13.1125C0.108348 12.5208 -0.066652 11.8 0.0500146 10.95L1.10001 3.45C1.25001 2.45 1.69585 1.625 2.43751 0.975C3.17918 0.325 4.05001 0 5.05001 0H14.95C15.95 0 16.8208 0.325 17.5625 0.975C18.3042 1.625 18.75 2.45 18.9 3.45L19.95 10.95C20.0667 11.8 19.8917 12.5208 19.425 13.1125C18.9583 13.7042 18.3 14 17.45 14C17.1 14 16.775 13.9375 16.475 13.8125C16.175 13.6875 15.9 13.5 15.65 13.25L13.4 11H6.60001L4.35001 13.25C4.10001 13.5 3.82501 13.6875 3.52501 13.8125C3.22501 13.9375 2.90001 14 2.55001 14ZM2.95001 11.85L5.80001 9H14.2L17.05 11.85C17.0833 11.8833 17.2167 11.9333 17.45 12C17.6333 12 17.7792 11.9458 17.8875 11.8375C17.9958 11.7292 18.0333 11.5833 18 11.4L16.9 3.7C16.8333 3.21667 16.6167 2.8125 16.25 2.4875C15.8833 2.1625 15.45 2 14.95 2H5.05001C4.55001 2 4.11668 2.1625 3.75001 2.4875C3.38335 2.8125 3.16668 3.21667 3.10001 3.7L2.00001 11.4C1.96668 11.5833 2.00418 11.7292 2.11251 11.8375C2.22085 11.9458 2.36668 12 2.55001 12C2.58335 12 2.71668 11.95 2.95001 11.85ZM15 8C15.2833 8 15.5208 7.90417 15.7125 7.7125C15.9042 7.52083 16 7.28333 16 7C16 6.71667 15.9042 6.47917 15.7125 6.2875C15.5208 6.09583 15.2833 6 15 6C14.7167 6 14.4792 6.09583 14.2875 6.2875C14.0958 6.47917 14 6.71667 14 7C14 7.28333 14.0958 7.52083 14.2875 7.7125C14.4792 7.90417 14.7167 8 15 8ZM13 5C13.2833 5 13.5208 4.90417 13.7125 4.7125C13.9042 4.52083 14 4.28333 14 4C14 3.71667 13.9042 3.47917 13.7125 3.2875C13.5208 3.09583 13.2833 3 13 3C12.7167 3 12.4792 3.09583 12.2875 3.2875C12.0958 3.47917 12 3.71667 12 4C12 4.28333 12.0958 4.52083 12.2875 4.7125C12.4792 4.90417 12.7167 5 13 5ZM5.75001 8H7.25001V6.25H9.00001V4.75H7.25001V3H5.75001V4.75H4.00001V6.25H5.75001V8Z" fill="#0217EB"/>
</svg>
