<svg width="1442" height="1087" viewBox="0 0 1442 1087" fill="none" xmlns="http://www.w3.org/2000/svg">
<path d="M122.25 670C122.25 673.807 121.121 677.529 119.006 680.695C116.891 683.86 113.884 686.328 110.367 687.785C106.849 689.242 102.979 689.623 99.2445 688.88C95.5104 688.137 92.0804 686.304 89.3882 683.612C86.696 680.92 84.8626 677.49 84.1199 673.755C83.3771 670.021 83.7583 666.151 85.2153 662.633C86.6723 659.116 89.1396 656.109 92.3053 653.994C95.4709 651.879 99.1927 650.75 103 650.75C108.105 650.75 113.002 652.778 116.612 656.388C120.222 659.998 122.25 664.895 122.25 670ZM114 668.625H97.2938L104.966 660.915L103 659L92 670L103 681L104.966 679.038L97.2938 671.375H114V668.625Z" fill="white" fill-opacity="0.3"/>
<path d="M1322.75 670C1322.75 673.807 1323.88 677.529 1325.99 680.695C1328.11 683.86 1331.12 686.328 1334.63 687.785C1338.15 689.242 1342.02 689.623 1345.76 688.88C1349.49 688.137 1352.92 686.304 1355.61 683.612C1358.3 680.92 1360.14 677.49 1360.88 673.755C1361.62 670.021 1361.24 666.151 1359.78 662.633C1358.33 659.116 1355.86 656.109 1352.69 653.994C1349.53 651.879 1345.81 650.75 1342 650.75C1336.89 650.75 1332 652.778 1328.39 656.388C1324.78 659.998 1322.75 664.895 1322.75 670ZM1331 668.625H1347.71L1340.03 660.915L1342 659L1353 670L1342 681L1340.03 679.038L1347.71 671.375H1331V668.625Z" fill="white"/>
<path d="M696.9 747.556H585.842V982.761H696.9V747.556Z" fill="#E1E5EF"/>
<path opacity="0.68" d="M1072.41 781.424H1032.66V985.333H1072.41V781.424Z" fill="#E1E5EF"/>
<path d="M1141.86 849.299V762.207V675.12H1129.83V588.028V500.936H1119.98V459.599H1113.1V500.936H1103.24V588.028H1094.5V675.12V762.207H1083.91V849.299V984.472H1161.8V849.299H1141.86Z" fill="#E1E5EF"/>
<path d="M1122.86 587.672H1103.24V588.378H1122.86V587.672Z" fill="#8296C9"/>
<path d="M1129.83 674.764H1103.24V675.47H1129.83V674.764Z" fill="#8296C9"/>
<path d="M1129.84 761.856H1094.5V762.563H1129.84V761.856Z" fill="#8296C9"/>
<path d="M1141.86 848.948H1097.93V849.654H1141.86V848.948Z" fill="#8296C9"/>
<path d="M538.581 728.19V689.693H525.892V650.437H517.225V611.181H502.349V571.925H498.695V611.181H483.819V650.437H475.152V689.693H462.458V728.19H450.283V985.332H550.761V728.19H538.581Z" fill="#E1E5EF"/>
<path d="M517.178 727.892H462.459V728.488H517.178V727.892Z" fill="#8296C9"/>
<path d="M525.887 689.4H492.89V689.996H525.887V689.4Z" fill="#8296C9"/>
<path d="M485.872 689.4H475.153V689.996H485.872V689.4Z" fill="#8296C9"/>
<path d="M509.391 650.139H483.819V650.735H509.391V650.139Z" fill="#8296C9"/>
<path d="M526.094 730.367H525.498V806.024H526.094V730.367Z" fill="#8296C9"/>
<path d="M526.094 811.039H525.498V842.575H526.094V811.039Z" fill="#8296C9"/>
<path d="M1234.25 782.203H1175.56V985.337H1234.25V782.203Z" fill="#E1E5EF"/>
<path d="M1195.63 911.857H1194.93V980.021H1195.63V911.857Z" fill="#8296C9"/>
<path d="M1195.63 827.746H1194.93V905.561H1195.63V827.746Z" fill="#8296C9"/>
<path d="M1195.63 784.702H1194.93V816.728H1195.63V784.702Z" fill="#8296C9"/>
<path d="M1309.24 871.26V844.242H1257.67V871.26H1239.75V985.332H1327.17V871.26H1309.24Z" fill="#E1E5EF"/>
<path d="M1302.76 870.909H1291.64V871.616H1302.76V870.909Z" fill="#8296C9"/>
<path d="M1287.55 870.909H1257.67V871.616H1287.55V870.909Z" fill="#8296C9"/>
<path d="M1309.59 922.177H1308.88V980.016H1309.59V922.177Z" fill="#8296C9"/>
<path d="M1309.59 877.023H1308.88V914.789H1309.59V877.023Z" fill="#8296C9"/>
<path d="M762.751 460C677.673 460 608.731 528.956 608.731 614.02C608.731 779.369 762.751 1002.4 762.751 1002.4C762.751 1002.4 916.776 779.369 916.776 614.02C916.776 528.971 847.814 460 762.751 460ZM762.751 679.544C747.654 679.544 732.896 675.068 720.344 666.68C707.791 658.293 698.008 646.371 692.231 632.424C686.454 618.476 684.942 603.128 687.888 588.322C690.833 573.515 698.104 559.914 708.779 549.24C719.454 538.565 733.056 531.295 747.862 528.351C762.669 525.406 778.017 526.918 791.964 532.696C805.912 538.474 817.832 548.259 826.219 560.812C834.606 573.365 839.082 588.123 839.081 603.219C839.079 623.463 831.037 642.876 816.722 657.19C802.408 671.503 782.994 679.544 762.751 679.544Z" fill="white"/>
<path d="M457 420H571C565.735 413.668 557.009 410.331 548.832 411.863C547.434 400.722 537.461 391.192 526.089 390.105C514.718 389.018 503.054 396.486 499.493 407.152C496.168 405.199 492.123 404.566 488.429 405.742C486.598 406.332 484.911 407.303 483.478 408.59C482.046 409.878 480.9 411.453 480.115 413.214C476.653 409.645 470.989 407.515 466.091 408.595C461.193 409.676 458.563 415.316 457 420Z" fill="white"/>
<path d="M332.971 850.697L264.404 881.926L195.837 850.697L127.27 881.926V985.332H146.872H156.946H234.733H243.221H264.404H401.539V881.926L332.971 850.697Z" fill="#E1E5EF"/>
<mask id="mask0_3491_421" style="mask-type:luminance" maskUnits="userSpaceOnUse" x="723" y="506" width="357" height="480">
<path d="M1079.73 506.281H723.052V985.337H1079.73V506.281Z" fill="white"/>
</mask>
<g mask="url(#mask0_3491_421)">
<path d="M1008.92 530.688H774.541C758.85 530.688 746.129 543.409 746.129 559.101V1051.08C746.129 1066.77 758.85 1079.49 774.541 1079.49H1008.92C1024.62 1079.49 1037.34 1066.77 1037.34 1051.08V559.101C1037.34 543.409 1024.62 530.688 1008.92 530.688Z" fill="#8296C9"/>
<path d="M921.49 555.809H877.552C876.842 555.809 876.161 555.527 875.659 555.025C875.157 554.522 874.875 553.841 874.875 553.131C874.875 552.421 875.157 551.74 875.659 551.238C876.161 550.736 876.842 550.454 877.552 550.454H921.49C921.842 550.454 922.19 550.523 922.515 550.658C922.84 550.792 923.135 550.99 923.383 551.238C923.632 551.487 923.829 551.782 923.964 552.107C924.098 552.432 924.168 552.78 924.168 553.131C924.168 553.841 923.885 554.522 923.383 555.025C922.881 555.527 922.2 555.809 921.49 555.809Z" fill="#F2F3F7"/>
<path d="M1012.3 573.093H769.249C768.758 573.093 768.359 573.491 768.359 573.983V1053.85C768.359 1054.34 768.758 1054.74 769.249 1054.74H1012.3C1012.79 1054.74 1013.19 1054.34 1013.19 1053.85V573.983C1013.19 573.491 1012.79 573.093 1012.3 573.093Z" fill="#F2F3F7"/>
<path d="M860.575 560.413C864.599 560.413 867.862 557.15 867.862 553.126C867.862 549.101 864.599 545.839 860.575 545.839C856.55 545.839 853.288 549.101 853.288 553.126C853.288 557.15 856.55 560.413 860.575 560.413Z" fill="#F2F3F7"/>
</g>
<path d="M689.246 607.672L672.923 663.91L605.591 668.207L628.581 611.503L689.246 607.672Z" fill="#F1CA89"/>
<path d="M672.923 663.91L721.321 692.145L652.989 698.273L605.591 668.207L672.923 663.91Z" fill="#F1B873"/>
<path d="M689.246 607.672L734.938 634.089L721.321 692.144L672.923 663.91L689.246 607.672Z" fill="#E5A251"/>
<path d="M651.678 610.042L637.993 646.813L651.678 645.895L666.314 609.119L651.678 610.042Z" fill="#F2F3F7"/>
<path d="M661.123 793.076C661.123 793.076 642.165 864.003 639.171 889.449C636.176 914.896 635.176 981.165 635.176 981.165H643.309L665.348 892.285L692.616 848.67L699.009 891.482C699.193 892.717 699.502 893.93 699.932 895.102L731.396 981.165H740.226C740.226 981.165 727.955 884.897 728.334 878.783C728.714 872.669 736.025 793.071 736.025 793.071L661.123 793.076Z" fill="#39548B"/>
<path d="M714.875 685.492C714.875 685.492 695.889 682.008 645.577 690.972L641.367 719.548L674.533 723.138C674.533 723.138 661.319 762.192 658.137 798.31C658.137 798.31 699.239 809.365 738.692 800.425L743.609 735.535L763.317 747.974L781.851 727.181C781.851 727.181 758.794 693.087 714.875 685.492Z" fill="#F9DD89"/>
<mask id="mask1_3491_421" style="mask-type:luminance" maskUnits="userSpaceOnUse" x="641" y="684" width="141" height="120">
<path d="M714.876 685.492C714.876 685.492 695.889 682.008 645.578 690.972L641.367 719.548L674.533 723.138C674.533 723.138 661.32 762.192 658.138 798.31C658.138 798.31 699.24 809.365 738.693 800.425L743.61 735.535L763.317 747.974L781.852 727.181C781.852 727.181 758.794 693.087 714.876 685.492Z" fill="white"/>
</mask>
<g mask="url(#mask1_3491_421)">
<path d="M709.089 686.156C709.089 686.156 673.179 700.278 643.368 698.274L645.185 688.425C645.185 688.425 696.751 681.431 709.546 683.705L709.065 686.156" fill="#F4C54E"/>
<path d="M666.316 722.249C666.316 722.249 675.963 720.201 679.981 717.005C683.999 713.808 668.926 741.918 668.926 754.425C668.926 766.932 672.906 794.594 679.063 798.68C685.22 802.765 726.466 800.569 726.466 800.569L724.15 806.933L650.305 801.814L666.306 722.249" fill="#F4C54E"/>
<path d="M767.145 744.365C767.145 744.365 753.268 739.558 749.302 736.837C745.337 734.117 741.217 730.666 741.217 730.666L740.53 744.956H766.842L767.145 744.365Z" fill="#F4C54E"/>
</g>
<path d="M692.617 848.669L686.69 817.704L679.841 869.107L692.617 848.669Z" fill="#343766"/>
<path d="M706.133 649.274C706.133 649.274 704.148 654.345 703.84 658.743C703.672 661.18 704.998 664.992 706.243 667.924C706.762 669.169 707.596 670.257 708.665 671.081C709.733 671.904 710.997 672.435 712.333 672.62L716.457 673.187L719.442 651.523L706.133 649.274Z" fill="#343766"/>
<path d="M740.37 653.989C740.37 653.989 740.908 659.406 740.019 663.728C739.538 666.131 737.212 669.438 735.246 671.899C734.411 672.959 733.314 673.783 732.063 674.289C730.812 674.795 729.45 674.965 728.113 674.783L723.989 674.216L726.974 652.547L740.37 653.989Z" fill="#343766"/>
<path d="M735.276 662.122C735.276 662.122 738.015 657.051 740.226 660.08C742.437 663.108 737.886 671.438 734.237 669.693C730.589 667.948 735.276 662.122 735.276 662.122Z" fill="#C17276"/>
<path d="M708.503 658.445C708.503 658.445 707.234 652.821 704.287 655.138C701.341 657.455 703.475 666.703 707.464 665.991C711.454 665.28 708.503 658.445 708.503 658.445Z" fill="#C17276"/>
<path d="M728.555 672.096L712.131 669.837L709.088 686.156C709.088 686.156 710.905 692.092 717.154 692.986C723.402 693.88 727.214 688.66 727.214 688.66L728.555 672.096Z" fill="#C17276"/>
<path d="M736.203 642.804L709.598 648.351L709.214 649.231C705.171 659.007 706.291 672.783 714.905 679.993C716.099 680.988 717.549 681.628 719.088 681.839C720.628 682.051 722.196 681.826 723.615 681.19C733.862 676.552 738.66 663.603 737.41 653.095C737.376 652.807 736.242 643.117 736.203 642.804Z" fill="#DA8C8D"/>
<mask id="mask2_3491_421" style="mask-type:luminance" maskUnits="userSpaceOnUse" x="706" y="642" width="32" height="40">
<path d="M736.204 642.804L709.599 648.351L709.214 649.231C705.172 659.007 706.292 672.783 714.905 679.993C716.1 680.988 717.549 681.628 719.089 681.839C720.629 682.051 722.197 681.826 723.615 681.19C733.863 676.552 738.66 663.603 737.41 653.095C737.377 652.807 736.242 643.117 736.204 642.804Z" fill="white"/>
</mask>
<g mask="url(#mask2_3491_421)">
<path d="M737.823 649.173C737.823 649.173 737.025 653.658 726.676 654.585C716.328 655.513 710.161 653.095 710.161 653.095L731.988 641.079L739.904 642.396L737.823 649.173Z" fill="#C17276"/>
</g>
<path d="M706.22 667.924C706.22 667.924 715.583 666.083 720.89 667.496C726.196 668.909 735.247 671.918 735.247 671.918C735.247 671.918 730.974 682.834 719.087 681.873C707.2 680.911 706.22 667.924 706.22 667.924Z" fill="#343766"/>
<path d="M737.694 636.762C737.694 636.762 749.98 635.32 740.534 658.032L737.732 657.647L734.939 643.266L737.694 636.762Z" fill="#343766"/>
<path d="M715.904 671.245C718.33 670.96 720.788 671.291 723.052 672.207C725.224 673.077 723.801 673.408 722.162 673.529C720.43 673.652 718.692 673.42 717.053 672.846C715.457 672.312 714.005 671.587 715.904 671.245Z" fill="#F2F3F7"/>
<path d="M734.939 643.265C734.939 643.265 726.839 644.227 726.402 648.524C725.964 652.821 722.557 658.31 707.387 655.734C707.387 655.734 700.465 645.399 704.426 634.834C708.386 624.269 731.66 625.548 737.693 636.757L735.203 644.606" fill="#343766"/>
<path d="M645.184 693.635L633.817 695.524L637.056 688.17L622.401 678.869C622.401 678.869 607.341 703.628 611.446 710.281C615.551 716.933 641.728 717.01 641.728 717.01L645.184 693.635Z" fill="#DA8C8D"/>
<mask id="mask3_3491_421" style="mask-type:luminance" maskUnits="userSpaceOnUse" x="610" y="678" width="36" height="40">
<path d="M645.184 693.635L633.817 695.524L637.056 688.17L622.401 678.869C622.401 678.869 607.341 703.628 611.446 710.281C615.551 716.933 641.728 717.01 641.728 717.01L645.184 693.635Z" fill="white"/>
</mask>
<g mask="url(#mask3_3491_421)">
<path d="M643.613 693.899C643.613 693.899 630.991 713.371 632.5 717.894L646.175 718.755L649.943 692.145L643.613 693.899Z" fill="#C17276"/>
</g>
<path d="M778.747 730.665C778.747 730.665 797.166 747.849 797.974 753.324C800.06 767.431 785.097 801.813 785.097 801.813V761.394L765.313 745.739L778.747 730.665Z" fill="#DA8C8D"/>
<path d="M773.599 810.254C773.599 810.254 767.432 815.402 763.063 815.239C758.693 815.075 751.906 810.254 751.906 810.254H773.599Z" fill="#DA8C8D"/>
<path d="M659.642 798.68C659.642 798.68 693.871 807.418 729.378 801.814C729.378 801.814 674.072 824.15 656.432 811.09L659.642 798.68Z" fill="#343766"/>
<path d="M733.339 747.378L679.072 737.904L687.06 712.837L736.828 721.527L733.339 747.378Z" fill="white"/>
<path d="M785.097 744.956H724.158V810.254H785.097V744.956Z" fill="#F1CA89"/>
<mask id="mask4_3491_421" style="mask-type:luminance" maskUnits="userSpaceOnUse" x="724" y="744" width="62" height="67">
<path d="M785.097 744.956H724.158V810.254H785.097V744.956Z" fill="white"/>
</mask>
<g mask="url(#mask4_3491_421)">
<path d="M733.045 744.965C733.045 744.965 737.371 793.075 768.811 801.823L787.99 806.481V815.253H721.841V744.364L733.045 744.955" fill="#F1B873"/>
</g>
<path d="M759.717 744.956H750.729V771.628H759.717V744.956Z" fill="#F2F3F7"/>
<path d="M645.476 972.435L634.777 971.075L634.561 977.555C634.561 977.555 620.588 979.218 618.963 985.332H643.991L645.476 972.435Z" fill="#1F1949"/>
<path d="M739.173 969.225L726.56 970.518L729.19 977.853C729.19 977.853 717.231 979.218 715.611 985.332H740.634L739.173 969.225Z" fill="#1F1949"/>
<path d="M318.884 985.337C335.863 985.337 349.627 971.573 349.627 954.594C349.627 937.614 335.863 923.85 318.884 923.85C301.905 923.85 288.14 937.614 288.14 954.594C288.14 971.573 301.905 985.337 318.884 985.337Z" fill="#343766"/>
<path d="M435.656 948.729H536.226V953.679C536.226 954.641 535.844 955.562 535.165 956.242C534.485 956.922 533.563 957.304 532.602 957.304H439.285C438.324 957.304 437.402 956.922 436.723 956.242C436.043 955.562 435.661 954.641 435.661 953.679V948.729H435.656Z" fill="#343766"/>
<path d="M485.944 985.337C502.923 985.337 516.687 971.573 516.687 954.594C516.687 937.614 502.923 923.85 485.944 923.85C468.965 923.85 455.201 937.614 455.201 954.594C455.201 971.573 468.965 985.337 485.944 985.337Z" fill="#343766"/>
<path d="M344.469 818.988H445.726V839.656H334.745V828.712C334.745 826.133 335.77 823.659 337.593 821.836C339.417 820.012 341.89 818.988 344.469 818.988Z" fill="#B2BFDF"/>
<path d="M609.085 948.936H432.926V829.731C432.926 826.884 434.056 824.154 436.067 822.139C438.079 820.125 440.808 818.992 443.654 818.988H598.328C599.739 818.987 601.136 819.265 602.44 819.804C603.744 820.344 604.928 821.135 605.926 822.133C606.924 823.131 607.715 824.315 608.255 825.619C608.794 826.922 609.072 828.32 609.071 829.731V948.936H609.085Z" fill="#8296C9"/>
<mask id="mask5_3491_421" style="mask-type:luminance" maskUnits="userSpaceOnUse" x="432" y="818" width="178" height="131">
<path d="M609.085 948.936H432.926V829.731C432.926 826.884 434.056 824.154 436.067 822.139C438.079 820.125 440.808 818.992 443.654 818.988H598.328C599.739 818.987 601.136 819.265 602.44 819.804C603.744 820.344 604.928 821.135 605.926 822.133C606.924 823.131 607.715 824.315 608.255 825.619C608.794 826.922 609.072 828.32 609.071 829.731V948.936H609.085Z" fill="white"/>
</mask>
<g mask="url(#mask5_3491_421)">
<path opacity="0.18" d="M598.343 818.987L553.853 959.482H626.904V818.382H598.343" fill="#343766"/>
</g>
<path d="M556.939 930.022C549.681 930.118 542.753 933.068 537.655 938.234C532.557 943.4 529.698 950.366 529.698 957.624C529.698 964.882 532.557 971.849 537.655 977.015C542.753 982.181 549.681 985.131 556.939 985.227H563.259V930.022H556.939Z" fill="#343766"/>
<path d="M562.499 985.226C577.742 985.226 590.099 972.869 590.099 957.626C590.099 942.383 577.742 930.026 562.499 930.026C547.256 930.026 534.9 942.383 534.9 957.626C534.9 972.869 547.256 985.226 562.499 985.226Z" fill="#343766"/>
<path d="M562.5 969.398C569.002 969.398 574.272 964.128 574.272 957.627C574.272 951.125 569.002 945.855 562.5 945.855C555.999 945.855 550.729 951.125 550.729 957.627C550.729 964.128 555.999 969.398 562.5 969.398Z" fill="#F2F3F7"/>
<path d="M562.5 950.834C563.522 950.834 564.351 950.006 564.351 948.984C564.351 947.962 563.522 947.133 562.5 947.133C561.478 947.133 560.649 947.962 560.649 948.984C560.649 950.006 561.478 950.834 562.5 950.834Z" fill="#343766"/>
<path d="M562.5 968.125C563.522 968.125 564.351 967.296 564.351 966.274C564.351 965.252 563.522 964.423 562.5 964.423C561.478 964.423 560.649 965.252 560.649 966.274C560.649 967.296 561.478 968.125 562.5 968.125Z" fill="#343766"/>
<path d="M568.613 953.368C569.636 953.368 570.464 952.539 570.464 951.517C570.464 950.495 569.636 949.667 568.613 949.667C567.591 949.667 566.763 950.495 566.763 951.517C566.763 952.539 567.591 953.368 568.613 953.368Z" fill="#343766"/>
<path d="M556.385 965.591C557.408 965.591 558.236 964.763 558.236 963.741C558.236 962.719 557.408 961.89 556.385 961.89C555.363 961.89 554.535 962.719 554.535 963.741C554.535 964.763 555.363 965.591 556.385 965.591Z" fill="#343766"/>
<path d="M571.147 959.477C572.169 959.477 572.997 958.649 572.997 957.626C572.997 956.604 572.169 955.776 571.147 955.776C570.125 955.776 569.296 956.604 569.296 957.626C569.296 958.649 570.125 959.477 571.147 959.477Z" fill="#343766"/>
<path d="M553.853 959.477C554.875 959.477 555.703 958.649 555.703 957.626C555.703 956.604 554.875 955.776 553.853 955.776C552.83 955.776 552.002 956.604 552.002 957.626C552.002 958.649 552.83 959.477 553.853 959.477Z" fill="#343766"/>
<path d="M568.613 965.591C569.636 965.591 570.464 964.763 570.464 963.741C570.464 962.719 569.636 961.89 568.613 961.89C567.591 961.89 566.763 962.719 566.763 963.741C566.763 964.763 567.591 965.591 568.613 965.591Z" fill="#343766"/>
<path d="M556.385 953.368C557.408 953.368 558.236 952.539 558.236 951.517C558.236 950.495 557.408 949.667 556.385 949.667C555.363 949.667 554.535 950.495 554.535 951.517C554.535 952.539 555.363 953.368 556.385 953.368Z" fill="#343766"/>
<path d="M558.237 930.782C553.793 931.953 549.707 934.2 546.339 937.326C542.97 940.451 540.423 944.358 538.923 948.701C536.962 954.492 536.962 960.767 538.923 966.558C540.423 970.901 542.969 974.808 546.338 977.932C549.706 981.057 553.793 983.303 558.237 984.472C555.21 983.832 552.316 982.676 549.681 981.055C547.045 979.407 544.701 977.332 542.745 974.917C540.296 971.876 538.521 968.349 537.538 964.571C536.554 960.793 536.385 956.849 537.041 953C537.697 949.151 539.162 945.486 541.342 942.246C543.521 939.007 546.363 936.267 549.681 934.209C552.315 932.584 555.209 931.425 558.237 930.782Z" fill="#8296C9"/>
<path d="M602.89 938.626V947.595C602.89 947.951 602.749 948.292 602.497 948.543C602.246 948.795 601.905 948.936 601.549 948.936H584.875V957.867H611.379C611.86 957.867 612.323 957.675 612.663 957.334C613.004 956.994 613.195 956.532 613.195 956.05V938.717C613.195 938.547 613.162 938.379 613.097 938.223C613.032 938.066 612.937 937.924 612.816 937.804C612.696 937.685 612.554 937.59 612.397 937.525C612.24 937.461 612.072 937.428 611.903 937.429H604.087C603.93 937.428 603.774 937.459 603.628 937.518C603.483 937.578 603.35 937.667 603.239 937.778C603.128 937.889 603.04 938.021 602.98 938.167C602.92 938.312 602.889 938.468 602.89 938.626Z" fill="#343766"/>
<path d="M589.912 959.482C589.577 959.482 589.245 959.416 588.936 959.287C588.626 959.159 588.345 958.971 588.109 958.734C587.872 958.497 587.685 958.215 587.557 957.906C587.429 957.596 587.364 957.264 587.364 956.929C587.364 949.854 584.554 943.069 579.551 938.066C574.548 933.063 567.762 930.252 560.687 930.252C553.612 930.252 546.827 933.063 541.824 938.066C536.821 943.069 534.01 949.854 534.01 956.929C534.01 957.606 533.741 958.255 533.263 958.734C532.784 959.213 532.135 959.482 531.458 959.482C530.781 959.482 530.132 959.213 529.653 958.734C529.175 958.255 528.906 957.606 528.906 956.929C528.906 948.504 532.253 940.424 538.21 934.467C544.168 928.509 552.248 925.162 560.673 925.162C569.098 925.162 577.178 928.509 583.136 934.467C589.093 940.424 592.44 948.504 592.44 956.929C592.44 957.602 592.175 958.248 591.701 958.726C591.228 959.204 590.585 959.475 589.912 959.482Z" fill="#F2F3F7"/>
<path d="M365.961 836.854V950.21H267.78V919.831C267.779 916.9 268.575 914.024 270.081 911.509C271.586 908.994 273.747 906.935 276.331 905.551L287.549 899.547C291.33 897.523 294.268 894.221 295.841 890.232L312.717 847.385C313.941 844.28 316.072 841.615 318.831 839.737C321.591 837.858 324.852 836.854 328.19 836.854H365.961Z" fill="#8296C9"/>
<path d="M432.926 836.854V950.21H334.745V919.831C334.745 916.9 335.541 914.023 337.047 911.508C338.554 908.992 340.716 906.934 343.301 905.551L354.515 899.547C358.297 897.524 361.238 894.223 362.811 890.232L379.687 847.385C380.911 844.28 383.04 841.615 385.799 839.737C388.558 837.859 391.818 836.854 395.155 836.854H432.926Z" fill="#8296C9"/>
<path d="M328.19 836.854C324.852 836.854 321.591 837.858 318.831 839.737C316.072 841.615 313.941 844.28 312.717 847.385L300.503 878.393C295.92 890.025 287.353 899.65 276.331 905.551C273.747 906.935 271.586 908.994 270.081 911.509C268.575 914.024 267.779 916.9 267.78 919.831V950.21H334.746V919.831C334.746 916.9 335.542 914.023 337.048 911.508C338.555 908.992 340.717 906.934 343.302 905.551L354.516 899.547C358.298 897.524 361.239 894.223 362.812 890.232L365.961 882.234L379.688 847.385C380.912 844.28 383.041 841.615 385.8 839.737C388.559 837.859 391.819 836.854 395.156 836.854H328.19Z" fill="#B2BFDF"/>
<path d="M346.026 938.674H267.49C266.973 938.674 266.476 938.468 266.11 938.102C265.744 937.736 265.539 937.24 265.539 936.722V923.667C265.539 923.15 265.744 922.653 266.11 922.287C266.476 921.921 266.973 921.716 267.49 921.716H348.632C348.902 921.716 349.169 921.775 349.414 921.888C349.66 922.001 349.878 922.165 350.055 922.37C350.231 922.575 350.362 922.815 350.437 923.074C350.512 923.334 350.531 923.607 350.492 923.874L348.608 936.448C348.516 937.067 348.205 937.633 347.731 938.042C347.257 938.45 346.652 938.675 346.026 938.674Z" fill="#343766"/>
<path d="M282.353 923.379H318.883V940.524C318.883 941.143 318.638 941.735 318.201 942.173C317.763 942.61 317.171 942.855 316.552 942.855H284.684C284.066 942.855 283.473 942.61 283.036 942.173C282.598 941.735 282.353 941.143 282.353 940.524V923.379Z" fill="#343766"/>
<path d="M315.269 928.1H285.997C285.91 928.1 285.824 928.084 285.743 928.051C285.663 928.018 285.59 927.97 285.528 927.909C285.466 927.847 285.417 927.774 285.384 927.694C285.351 927.614 285.333 927.528 285.333 927.441C285.333 927.265 285.403 927.097 285.528 926.972C285.652 926.848 285.821 926.778 285.997 926.778H315.269C315.356 926.778 315.442 926.795 315.522 926.828C315.603 926.862 315.675 926.911 315.737 926.972C315.798 927.034 315.846 927.107 315.879 927.188C315.912 927.268 315.928 927.354 315.928 927.441C315.928 927.616 315.858 927.783 315.735 927.907C315.611 928.03 315.444 928.1 315.269 928.1Z" fill="#8296C9"/>
<path d="M315.269 930.214H285.997C285.91 930.215 285.824 930.198 285.743 930.165C285.663 930.132 285.59 930.084 285.528 930.023C285.466 929.962 285.417 929.889 285.384 929.809C285.351 929.728 285.333 929.642 285.333 929.555C285.333 929.379 285.403 929.211 285.528 929.086C285.652 928.962 285.821 928.892 285.997 928.892H315.269C315.356 928.892 315.442 928.909 315.522 928.943C315.603 928.976 315.675 929.025 315.737 929.087C315.798 929.148 315.846 929.221 315.879 929.302C315.912 929.382 315.928 929.469 315.928 929.555C315.928 929.73 315.858 929.898 315.735 930.021C315.611 930.145 315.444 930.214 315.269 930.214Z" fill="#8296C9"/>
<path d="M315.269 932.343H285.997C285.91 932.344 285.824 932.327 285.743 932.295C285.663 932.262 285.59 932.213 285.528 932.152C285.466 932.091 285.417 932.018 285.384 931.938C285.351 931.858 285.333 931.772 285.333 931.685C285.333 931.509 285.403 931.34 285.528 931.216C285.652 931.091 285.821 931.021 285.997 931.021H315.269C315.356 931.021 315.442 931.039 315.522 931.072C315.603 931.105 315.675 931.154 315.737 931.216C315.798 931.278 315.846 931.351 315.879 931.431C315.912 931.512 315.928 931.598 315.928 931.685C315.928 931.859 315.858 932.027 315.735 932.15C315.611 932.274 315.444 932.343 315.269 932.343Z" fill="#8296C9"/>
<path d="M315.269 934.473H285.997C285.91 934.473 285.824 934.457 285.743 934.424C285.663 934.391 285.59 934.343 285.528 934.282C285.466 934.22 285.417 934.148 285.384 934.067C285.351 933.987 285.333 933.901 285.333 933.814C285.333 933.727 285.351 933.641 285.384 933.56C285.417 933.48 285.466 933.407 285.528 933.345C285.589 933.284 285.662 933.235 285.743 933.201C285.823 933.168 285.91 933.151 285.997 933.151H315.269C315.356 933.151 315.442 933.168 315.522 933.201C315.603 933.235 315.675 933.284 315.737 933.345C315.798 933.407 315.846 933.48 315.879 933.561C315.912 933.641 315.928 933.727 315.928 933.814C315.928 933.989 315.858 934.156 315.735 934.28C315.611 934.403 315.444 934.473 315.269 934.473Z" fill="#8296C9"/>
<path d="M266.938 950.209H354.251V955.602C354.251 957.602 353.456 959.52 352.042 960.935C350.628 962.349 348.71 963.144 346.709 963.144H266.919C266.735 963.144 266.553 963.108 266.383 963.037C266.214 962.967 266.06 962.864 265.93 962.734C265.8 962.604 265.697 962.45 265.626 962.28C265.556 962.111 265.52 961.929 265.52 961.745V951.608C265.52 951.237 265.667 950.881 265.93 950.619C266.192 950.356 266.548 950.209 266.919 950.209H266.938Z" fill="#343766"/>
<path d="M358.043 889.017L301.464 888.82C301.147 888.821 300.835 888.744 300.556 888.595C300.276 888.446 300.037 888.231 299.861 887.968C299.684 887.705 299.575 887.403 299.544 887.087C299.513 886.772 299.56 886.454 299.681 886.162L313.812 851.554C314.082 850.895 314.541 850.331 315.131 849.933C315.722 849.536 316.417 849.324 317.129 849.323H371.118C371.7 849.326 372.274 849.47 372.788 849.745C373.303 850.019 373.743 850.414 374.07 850.896C374.397 851.379 374.601 851.934 374.666 852.513C374.73 853.093 374.652 853.679 374.439 854.221L361.384 886.762C361.116 887.429 360.655 888 360.059 888.402C359.464 888.803 358.762 889.018 358.043 889.017Z" fill="#E1E5EF"/>
<mask id="mask6_3491_421" style="mask-type:luminance" maskUnits="userSpaceOnUse" x="299" y="849" width="76" height="41">
<path d="M358.043 889.017L301.464 888.82C301.147 888.821 300.835 888.744 300.556 888.595C300.276 888.446 300.037 888.231 299.861 887.968C299.684 887.705 299.575 887.403 299.544 887.087C299.513 886.772 299.56 886.454 299.681 886.162L313.812 851.554C314.082 850.895 314.541 850.331 315.131 849.933C315.722 849.536 316.417 849.324 317.129 849.323H371.118C371.7 849.326 372.274 849.47 372.788 849.745C373.303 850.019 373.743 850.414 374.07 850.896C374.397 851.379 374.601 851.934 374.666 852.513C374.73 853.093 374.652 853.679 374.439 854.221L361.384 886.762C361.116 887.429 360.655 888 360.059 888.402C359.464 888.803 358.762 889.018 358.043 889.017Z" fill="white"/>
</mask>
<g mask="url(#mask6_3491_421)">
<path opacity="0.32" d="M371.354 847.405L347.34 890.646H332.848L356.679 848.001L371.354 847.405Z" fill="#B2BFDF"/>
<path opacity="0.32" d="M352.098 847.535L328.089 890.781H304.06L328.747 848.487L352.098 847.535Z" fill="#B2BFDF"/>
</g>
<path d="M424.726 940.457H414.843C414.273 940.455 413.717 940.275 413.254 939.942C412.791 939.608 412.444 939.138 412.262 938.597C407.806 925.503 399.678 916.871 388.099 912.934C385.64 912.104 383.372 910.79 381.429 909.069C379.486 907.349 377.906 905.257 376.784 902.917C375.635 900.554 374.97 897.986 374.828 895.362C374.686 892.739 375.07 890.114 375.957 887.641L388.186 853.283C389.175 850.516 390.995 848.123 393.396 846.429C395.797 844.735 398.663 843.823 401.601 843.819H424.909C425.58 843.82 426.224 844.087 426.698 844.562C427.173 845.037 427.44 845.681 427.442 846.352V937.736C427.44 938.457 427.154 939.147 426.645 939.657C426.136 940.167 425.446 940.454 424.726 940.457ZM388.195 912.578C399.885 916.548 408.09 925.258 412.584 938.462C412.741 938.933 413.042 939.342 413.444 939.632C413.845 939.923 414.328 940.08 414.824 940.082H424.707C425.017 940.082 425.325 940.021 425.612 939.902C425.899 939.783 426.159 939.609 426.379 939.389C426.598 939.17 426.773 938.909 426.891 938.622C427.01 938.335 427.072 938.028 427.072 937.717V846.352C427.07 845.776 426.841 845.224 426.434 844.817C426.027 844.41 425.475 844.181 424.899 844.179H401.601C398.737 844.183 395.944 845.071 393.604 846.722C391.264 848.373 389.49 850.706 388.527 853.403L376.294 887.761C375.422 890.189 375.045 892.766 375.184 895.342C375.324 897.917 375.977 900.439 377.106 902.758C378.208 905.056 379.758 907.11 381.666 908.8C383.574 910.49 385.8 911.781 388.214 912.597L388.195 912.578Z" fill="#343766"/>
<path d="M420.01 906.513C419.601 906.513 419.208 906.35 418.918 906.061C418.628 905.772 418.464 905.379 418.463 904.97V896.616C418.463 896.205 418.626 895.811 418.916 895.521C419.206 895.231 419.6 895.068 420.01 895.068C420.42 895.069 420.812 895.233 421.102 895.523C421.391 895.813 421.553 896.206 421.553 896.616V904.97C421.553 905.379 421.391 905.771 421.101 906.061C420.812 906.35 420.42 906.513 420.01 906.513Z" fill="#343766"/>
<path d="M420.761 889.021H385.014C384.63 889.023 384.251 888.933 383.91 888.758C383.568 888.583 383.273 888.33 383.049 888.017C382.826 887.705 382.68 887.344 382.625 886.965C382.569 886.585 382.606 886.197 382.731 885.834L393.094 855.398C393.7 853.619 394.848 852.075 396.376 850.981C397.904 849.887 399.737 849.299 401.616 849.299H421.506C421.952 849.299 422.38 849.476 422.696 849.792C423.011 850.107 423.188 850.535 423.188 850.981V886.613C423.189 886.931 423.127 887.246 423.005 887.54C422.883 887.833 422.704 888.1 422.478 888.324C422.252 888.548 421.984 888.725 421.689 888.845C421.395 888.964 421.079 889.024 420.761 889.021Z" fill="#E1E5EF"/>
<mask id="mask7_3491_421" style="mask-type:luminance" maskUnits="userSpaceOnUse" x="382" y="849" width="42" height="41">
<path d="M420.761 889.021H385.014C384.63 889.023 384.251 888.933 383.91 888.758C383.568 888.583 383.273 888.33 383.049 888.017C382.826 887.705 382.68 887.344 382.625 886.965C382.569 886.585 382.606 886.197 382.731 885.834L393.094 855.398C393.7 853.619 394.848 852.075 396.376 850.981C397.904 849.887 399.737 849.299 401.616 849.299H421.506C421.952 849.299 422.38 849.476 422.696 849.792C423.011 850.107 423.188 850.535 423.188 850.981V886.613C423.189 886.931 423.127 887.246 423.005 887.54C422.883 887.833 422.704 888.1 422.478 888.324C422.252 888.548 421.984 888.725 421.689 888.845C421.395 888.964 421.079 889.024 420.761 889.021Z" fill="white"/>
</mask>
<g mask="url(#mask7_3491_421)">
<path d="M420.011 847.059L407.023 892.141H376.578L393.492 847.886L420.011 847.059Z" fill="#B2BFDF"/>
</g>
<path d="M385.865 884.623H370.632C369.89 884.623 369.179 884.918 368.654 885.442C368.13 885.967 367.835 886.679 367.835 887.421V891.266H365.234C365.038 891.266 364.85 891.344 364.711 891.483C364.572 891.621 364.494 891.81 364.494 892.006V893.866C364.494 894.063 364.572 894.251 364.711 894.39C364.85 894.528 365.038 894.606 365.234 894.606H367.941C368.103 895.195 368.455 895.714 368.941 896.084C369.427 896.454 370.021 896.654 370.632 896.654H385.865C386.606 896.653 387.317 896.358 387.841 895.833C388.366 895.309 388.661 894.598 388.662 893.857V887.406C388.657 886.667 388.36 885.96 387.836 885.439C387.312 884.917 386.604 884.624 385.865 884.623Z" fill="#343766"/>
<path d="M385.258 895.856C385.528 895.498 385.714 895.084 385.801 894.645C385.884 894.462 385.944 894.27 385.979 894.073C386.007 893.864 386.016 893.653 386.008 893.443V887.545C386.015 887.444 386.015 887.343 386.008 887.242C385.985 887.044 385.935 886.85 385.859 886.666C385.799 886.223 385.635 885.801 385.378 885.435C385.854 885.631 386.259 885.966 386.542 886.396C386.642 886.641 386.71 886.898 386.744 887.161C386.751 887.29 386.751 887.42 386.744 887.55V893.448C386.751 893.697 386.738 893.946 386.705 894.193C386.655 894.45 386.571 894.699 386.455 894.933C386.162 895.358 385.744 895.68 385.258 895.856Z" fill="#8296C9"/>
<path d="M332.846 913.501H272.83C272.687 913.501 272.551 913.445 272.45 913.344C272.349 913.243 272.292 913.106 272.292 912.963C272.292 912.82 272.349 912.683 272.45 912.582C272.551 912.482 272.687 912.425 272.83 912.425H332.846C332.989 912.425 333.126 912.482 333.227 912.582C333.328 912.683 333.385 912.82 333.385 912.963C333.385 913.106 333.328 913.243 333.227 913.344C333.126 913.445 332.989 913.501 332.846 913.501Z" fill="#E1E5EF"/>
<path d="M330.728 954.537H270.711C270.637 954.544 270.562 954.535 270.49 954.511C270.419 954.488 270.354 954.449 270.298 954.399C270.243 954.349 270.199 954.287 270.168 954.218C270.138 954.15 270.122 954.076 270.122 954.001C270.122 953.926 270.138 953.852 270.168 953.783C270.199 953.714 270.243 953.653 270.298 953.603C270.354 953.552 270.419 953.514 270.49 953.49C270.562 953.466 270.637 953.458 270.711 953.465H330.728C330.802 953.458 330.877 953.466 330.949 953.49C331.02 953.514 331.085 953.552 331.141 953.603C331.196 953.653 331.24 953.714 331.271 953.783C331.301 953.852 331.317 953.926 331.317 954.001C331.317 954.076 331.301 954.15 331.271 954.218C331.24 954.287 331.196 954.349 331.141 954.399C331.085 954.449 331.02 954.488 330.949 954.511C330.877 954.535 330.802 954.544 330.728 954.537Z" fill="#8296C9"/>
<path d="M412.892 950.046H432.926V953.891C432.926 954.85 432.545 955.769 431.868 956.447C431.19 957.125 430.27 957.506 429.312 957.506H416.507C415.548 957.506 414.629 957.125 413.951 956.447C413.273 955.769 412.892 954.85 412.892 953.891V950.046Z" fill="#343766"/>
<path d="M379.808 900.706C380.471 900.706 381.009 900.168 381.009 899.504C381.009 898.841 380.471 898.303 379.808 898.303C379.144 898.303 378.606 898.841 378.606 899.504C378.606 900.168 379.144 900.706 379.808 900.706Z" fill="#343766"/>
<path d="M382.332 903.547C382.332 903.785 382.261 904.017 382.129 904.214C381.997 904.412 381.81 904.566 381.59 904.657C381.371 904.748 381.129 904.772 380.896 904.725C380.663 904.679 380.449 904.565 380.281 904.397C380.112 904.229 379.998 904.014 379.952 903.781C379.905 903.548 379.929 903.307 380.02 903.087C380.111 902.867 380.265 902.68 380.463 902.548C380.66 902.416 380.893 902.345 381.13 902.345C381.449 902.346 381.753 902.473 381.979 902.699C382.204 902.924 382.331 903.229 382.332 903.547Z" fill="#343766"/>
<path d="M281.248 924.59H269.226C268.427 924.59 267.78 925.238 267.78 926.037V934.391C267.78 935.19 268.427 935.838 269.226 935.838H281.248C282.047 935.838 282.695 935.19 282.695 934.391V926.037C282.695 925.238 282.047 924.59 281.248 924.59Z" fill="#B2BFDF"/>
<path d="M279.81 926.128H270.202C269.78 926.128 269.437 926.471 269.437 926.893V933.536C269.437 933.958 269.78 934.3 270.202 934.3H279.81C280.232 934.3 280.574 933.958 280.574 933.536V926.893C280.574 926.471 280.232 926.128 279.81 926.128Z" fill="#F2F3F7"/>
<path d="M331.818 924.59H319.797C318.998 924.59 318.35 925.238 318.35 926.037V934.391C318.35 935.19 318.998 935.838 319.797 935.838H331.818C332.617 935.838 333.265 935.19 333.265 934.391V926.037C333.265 925.238 332.617 924.59 331.818 924.59Z" fill="#B2BFDF"/>
<path d="M330.612 926.128H321.003C320.581 926.128 320.239 926.471 320.239 926.893V933.536C320.239 933.958 320.581 934.3 321.003 934.3H330.612C331.034 934.3 331.376 933.958 331.376 933.536V926.893C331.376 926.471 331.034 926.128 330.612 926.128Z" fill="#F2F3F7"/>
<path d="M345.301 924.604H340.864C340.203 924.604 339.667 925.14 339.667 925.801V934.622C339.667 935.283 340.203 935.818 340.864 935.818H345.301C345.962 935.818 346.498 935.283 346.498 934.622V925.801C346.498 925.14 345.962 924.604 345.301 924.604Z" fill="#B2BFDF"/>
<path d="M344.728 926.128H341.431C341.237 926.128 341.08 926.286 341.08 926.479V933.949C341.08 934.143 341.237 934.3 341.431 934.3H344.728C344.922 934.3 345.079 934.143 345.079 933.949V926.479C345.079 926.286 344.922 926.128 344.728 926.128Z" fill="#F2F3F7"/>
<path d="M379.808 840.19H322.32C322.246 840.198 322.17 840.189 322.099 840.165C322.028 840.142 321.963 840.103 321.907 840.053C321.852 840.002 321.807 839.941 321.777 839.872C321.747 839.804 321.731 839.73 321.731 839.655C321.731 839.58 321.747 839.505 321.777 839.437C321.807 839.368 321.852 839.307 321.907 839.256C321.963 839.206 322.028 839.168 322.099 839.144C322.17 839.12 322.246 839.112 322.32 839.119H379.808C379.883 839.112 379.958 839.12 380.029 839.144C380.1 839.168 380.166 839.206 380.221 839.256C380.277 839.307 380.321 839.368 380.351 839.437C380.382 839.505 380.397 839.58 380.397 839.655C380.397 839.73 380.382 839.804 380.351 839.872C380.321 839.941 380.277 840.002 380.221 840.053C380.166 840.103 380.1 840.142 380.029 840.165C379.958 840.189 379.883 840.198 379.808 840.19Z" fill="#E1E5EF"/>
<path d="M429.576 955.805H416.257C416.096 955.804 415.943 955.74 415.83 955.626C415.716 955.513 415.652 955.36 415.651 955.199C415.651 955.039 415.715 954.885 415.828 954.771C415.942 954.658 416.096 954.594 416.257 954.594H429.585C429.746 954.594 429.9 954.658 430.014 954.771C430.127 954.885 430.191 955.039 430.191 955.199C430.19 955.28 430.174 955.359 430.143 955.433C430.111 955.506 430.066 955.573 430.009 955.63C429.952 955.686 429.884 955.73 429.81 955.76C429.735 955.79 429.656 955.806 429.576 955.805Z" fill="#8296C9"/>
<path d="M378.164 930.022C370.907 930.118 363.979 933.068 358.881 938.234C353.782 943.4 350.924 950.366 350.924 957.624C350.924 964.882 353.782 971.849 358.881 977.015C363.979 982.181 370.907 985.131 378.164 985.227H384.49V930.022H378.164Z" fill="#343766"/>
<path d="M383.725 985.226C398.968 985.226 411.324 972.869 411.324 957.626C411.324 942.383 398.968 930.026 383.725 930.026C368.482 930.026 356.125 942.383 356.125 957.626C356.125 972.869 368.482 985.226 383.725 985.226Z" fill="#343766"/>
<path d="M383.725 969.398C390.226 969.398 395.497 964.128 395.497 957.627C395.497 951.125 390.226 945.855 383.725 945.855C377.224 945.855 371.954 951.125 371.954 957.627C371.954 964.128 377.224 969.398 383.725 969.398Z" fill="#F2F3F7"/>
<path d="M383.725 950.834C384.748 950.834 385.576 950.006 385.576 948.984C385.576 947.962 384.748 947.133 383.725 947.133C382.703 947.133 381.875 947.962 381.875 948.984C381.875 950.006 382.703 950.834 383.725 950.834Z" fill="#343766"/>
<path d="M383.725 968.125C384.748 968.125 385.576 967.296 385.576 966.274C385.576 965.252 384.748 964.423 383.725 964.423C382.703 964.423 381.875 965.252 381.875 966.274C381.875 967.296 382.703 968.125 383.725 968.125Z" fill="#343766"/>
<path d="M389.839 953.368C390.861 953.368 391.69 952.539 391.69 951.517C391.69 950.495 390.861 949.667 389.839 949.667C388.817 949.667 387.989 950.495 387.989 951.517C387.989 952.539 388.817 953.368 389.839 953.368Z" fill="#343766"/>
<path d="M377.611 965.591C378.633 965.591 379.461 964.763 379.461 963.741C379.461 962.719 378.633 961.89 377.611 961.89C376.589 961.89 375.76 962.719 375.76 963.741C375.76 964.763 376.589 965.591 377.611 965.591Z" fill="#343766"/>
<path d="M392.373 959.477C393.395 959.477 394.224 958.649 394.224 957.626C394.224 956.604 393.395 955.776 392.373 955.776C391.351 955.776 390.522 956.604 390.522 957.626C390.522 958.649 391.351 959.477 392.373 959.477Z" fill="#343766"/>
<path d="M377.656 956.165C378.596 955.766 379.035 954.681 378.637 953.741C378.238 952.8 377.153 952.361 376.212 952.76C375.272 953.158 374.833 954.244 375.232 955.184C375.63 956.124 376.716 956.563 377.656 956.165Z" fill="#343766"/>
<path d="M389.839 965.591C390.861 965.591 391.69 964.763 391.69 963.741C391.69 962.719 390.861 961.89 389.839 961.89C388.817 961.89 387.989 962.719 387.989 963.741C387.989 964.763 388.817 965.591 389.839 965.591Z" fill="#343766"/>
<path d="M377.611 953.368C378.633 953.368 379.461 952.539 379.461 951.517C379.461 950.495 378.633 949.667 377.611 949.667C376.589 949.667 375.76 950.495 375.76 951.517C375.76 952.539 376.589 953.368 377.611 953.368Z" fill="#343766"/>
<path d="M379.462 930.782C375.019 931.953 370.932 934.2 367.564 937.326C364.195 940.451 361.649 944.358 360.149 948.701C358.188 954.492 358.188 960.767 360.149 966.558C361.651 970.9 364.198 974.805 367.566 977.929C370.934 981.053 375.02 983.301 379.462 984.472C376.435 983.832 373.541 982.676 370.906 981.055C368.271 979.405 365.928 977.331 363.97 974.917C361.52 971.876 359.744 968.35 358.76 964.571C357.776 960.792 357.607 956.847 358.263 952.998C358.92 949.149 360.387 945.483 362.567 942.244C364.748 939.004 367.592 936.266 370.911 934.209C373.543 932.584 376.436 931.424 379.462 930.782Z" fill="#8296C9"/>
<path d="M432.927 949.907C432.672 949.907 432.428 949.806 432.247 949.625C432.067 949.445 431.966 949.201 431.966 948.946V836.854C431.966 836.596 432.068 836.349 432.251 836.166C432.433 835.983 432.681 835.881 432.939 835.881C433.197 835.881 433.445 835.983 433.627 836.166C433.81 836.349 433.913 836.596 433.913 836.854V948.936C433.914 949.065 433.889 949.193 433.84 949.313C433.791 949.432 433.718 949.54 433.626 949.631C433.534 949.721 433.425 949.793 433.305 949.84C433.185 949.887 433.056 949.91 432.927 949.907Z" fill="#343766"/>
<path d="M464.804 872.25H472.196C473.416 872.22 474.627 872.458 475.744 872.947C476.701 873.384 477.54 874.043 478.19 874.87C478.841 875.713 479.321 876.674 479.604 877.701C480.219 879.975 480.219 882.372 479.604 884.646C479.321 885.673 478.841 886.635 478.19 887.478C477.54 888.304 476.701 888.964 475.744 889.4C474.627 889.89 473.416 890.128 472.196 890.097H464.804V872.25ZM467.928 887.53H471C472.016 887.567 473.031 887.404 473.985 887.05C474.701 886.77 475.33 886.303 475.806 885.699C476.258 885.105 476.566 884.414 476.705 883.68C477.019 882.021 477.019 880.317 476.705 878.657C476.565 877.923 476.257 877.231 475.806 876.634C475.328 876.033 474.7 875.568 473.985 875.288C473.031 874.934 472.016 874.771 471 874.807H467.928V887.53Z" fill="white"/>
<path d="M482.853 872.25H495.692V874.947H485.977V879.614H494.966V882.161H485.977V887.381H495.865V890.078H482.853V872.25Z" fill="white"/>
<path d="M498.59 872.25H501.71V887.381H510.775V890.078H498.59V872.25Z" fill="white"/>
<path d="M512.924 872.25H516.043V890.078H512.924V872.25Z" fill="white"/>
<path d="M517.841 872.25H521.09L525.56 886.358H525.608L530.179 872.25H533.352L527.257 890.078H523.786L517.841 872.25Z" fill="white"/>
<path d="M535.125 872.25H547.959V874.947H538.245V879.614H547.238V882.161H538.245V887.381H548.137V890.078H535.125V872.25Z" fill="white"/>
<path d="M550.844 872.25H559.361C561.322 872.25 562.798 872.673 563.778 873.524C564.275 873.965 564.665 874.513 564.921 875.126C565.176 875.74 565.29 876.403 565.254 877.066C565.278 877.788 565.15 878.507 564.879 879.176C564.669 879.675 564.373 880.132 564.004 880.527C563.724 880.831 563.39 881.08 563.019 881.262C562.692 881.412 562.456 881.512 562.307 881.565V881.613C562.605 881.655 562.894 881.74 563.168 881.863C563.496 882.012 563.789 882.228 564.028 882.498C564.321 882.831 564.546 883.218 564.692 883.637C564.882 884.2 564.971 884.792 564.956 885.387C564.947 886.343 565.026 887.299 565.191 888.242C565.268 888.908 565.522 889.542 565.927 890.078H562.562C562.326 889.692 562.185 889.255 562.149 888.804C562.11 888.323 562.086 887.891 562.086 887.458C562.095 886.752 562.045 886.046 561.937 885.348C561.869 884.827 561.692 884.326 561.418 883.877C561.151 883.488 560.772 883.188 560.332 883.017C559.768 882.817 559.171 882.724 558.573 882.743H553.977V890.083H550.844V872.25ZM553.968 880.364H559.087C559.906 880.423 560.717 880.169 561.356 879.652C561.63 879.372 561.841 879.037 561.975 878.669C562.11 878.301 562.164 877.909 562.134 877.518C562.151 877.044 562.065 876.572 561.884 876.134C561.734 875.797 561.497 875.507 561.197 875.293C560.895 875.091 560.555 874.955 560.197 874.894C559.813 874.83 559.424 874.797 559.034 874.797H553.968V880.364Z" fill="white"/>
<path d="M572.161 883.089L565.47 872.25H569.109L573.829 880.239L578.472 872.25H581.971L575.3 883.089V890.078H572.18L572.161 883.089Z" fill="white"/>
<path d="M411.801 959.482C411.466 959.482 411.134 959.416 410.825 959.288C410.515 959.16 410.234 958.972 409.998 958.735C409.761 958.498 409.574 958.216 409.446 957.907C409.318 957.597 409.253 957.265 409.253 956.93C409.159 949.92 406.308 943.229 401.318 938.305C396.328 933.381 389.599 930.621 382.588 930.621C375.578 930.621 368.849 933.381 363.859 938.305C358.868 943.229 356.017 949.92 355.923 956.93C355.923 957.607 355.654 958.256 355.176 958.735C354.697 959.214 354.048 959.482 353.371 959.482C352.694 959.482 352.045 959.214 351.566 958.735C351.088 958.256 350.819 957.607 350.819 956.93C350.715 952.694 351.46 948.48 353.01 944.536C354.559 940.592 356.883 936.998 359.842 933.965C362.802 930.933 366.339 928.523 370.244 926.878C374.149 925.233 378.344 924.386 382.581 924.386C386.819 924.387 391.013 925.235 394.918 926.882C398.823 928.528 402.358 930.939 405.317 933.972C408.276 937.005 410.598 940.6 412.147 944.545C413.695 948.489 414.439 952.704 414.334 956.94C414.331 957.612 414.064 958.256 413.59 958.732C413.116 959.208 412.473 959.477 411.801 959.482Z" fill="#F2F3F7"/>
<path d="M1067.03 632.994H1279.89C1277.79 624.702 1269.85 618.809 1261.76 616.05C1253.66 613.291 1244.83 613.647 1236.38 615.036C1236.39 610.066 1234.83 605.22 1231.92 601.188C1227.12 594.209 1220.7 588.1 1212.8 585.028C1204.9 581.957 1195.43 582.298 1188.48 587.143C1183.44 590.657 1180.15 596.103 1177.1 601.438C1174.59 605.846 1172.07 610.571 1172.27 615.661C1162.02 609.292 1146.53 613.33 1139.7 623.284C1128.64 616.262 1115.64 611.691 1102.56 612.556C1089.49 613.421 1073.28 621.477 1067.03 632.994Z" fill="white"/>
<path d="M815.811 792.066C821.651 792.066 826.385 787.331 826.385 781.491C826.385 775.651 821.651 770.917 815.811 770.917C809.971 770.917 805.236 775.651 805.236 781.491C805.236 787.331 809.971 792.066 815.811 792.066Z" fill="#E1E5EF"/>
<path d="M815.811 847.15C821.651 847.15 826.385 842.415 826.385 836.575C826.385 830.735 821.651 826 815.811 826C809.971 826 805.236 830.735 805.236 836.575C805.236 842.415 809.971 847.15 815.811 847.15Z" fill="#E1E5EF"/>
<path d="M815.811 902.234C821.651 902.234 826.385 897.5 826.385 891.66C826.385 885.819 821.651 881.085 815.811 881.085C809.971 881.085 805.236 885.819 805.236 891.66C805.236 897.5 809.971 902.234 815.811 902.234Z" fill="#E1E5EF"/>
<path d="M815.811 954.896C821.651 954.896 826.385 950.162 826.385 944.322C826.385 938.482 821.651 933.747 815.811 933.747C809.971 933.747 805.236 938.482 805.236 944.322C805.236 950.162 809.971 954.896 815.811 954.896Z" fill="white"/>
<path d="M976.094 775.526H853.092C852.222 775.526 851.388 775.181 850.774 774.566C850.159 773.951 849.813 773.117 849.813 772.248C849.813 771.378 850.159 770.545 850.774 769.93C851.388 769.315 852.222 768.97 853.092 768.97H976.094C976.964 768.97 977.797 769.315 978.412 769.93C979.027 770.545 979.372 771.378 979.372 772.248C979.372 773.117 979.027 773.951 978.412 774.566C977.797 775.181 976.964 775.526 976.094 775.526Z" fill="#E1E5EF"/>
<path d="M976.094 787.264H853.092C852.222 787.264 851.388 786.918 850.774 786.304C850.159 785.689 849.813 784.855 849.813 783.986C849.813 783.116 850.159 782.282 850.774 781.668C851.388 781.053 852.222 780.708 853.092 780.708H976.094C976.964 780.708 977.797 781.053 978.412 781.668C979.027 782.282 979.372 783.116 979.372 783.986C979.372 784.855 979.027 785.689 978.412 786.304C977.797 786.918 976.964 787.264 976.094 787.264Z" fill="#E1E5EF"/>
<path d="M915.905 799.021H853.092C852.222 799.021 851.388 798.676 850.774 798.061C850.159 797.446 849.813 796.612 849.813 795.743C849.813 795.312 849.897 794.885 850.062 794.487C850.226 794.089 850.467 793.727 850.772 793.422C851.076 793.117 851.438 792.875 851.836 792.71C852.234 792.545 852.661 792.46 853.092 792.46H915.905C916.775 792.461 917.609 792.808 918.223 793.423C918.838 794.039 919.183 794.873 919.183 795.743C919.182 796.612 918.836 797.445 918.222 798.06C917.607 798.674 916.774 799.02 915.905 799.021Z" fill="#E1E5EF"/>
<path d="M976.094 829.36H853.092C852.222 829.36 851.388 829.015 850.774 828.4C850.159 827.786 849.813 826.952 849.813 826.082C849.813 825.213 850.159 824.379 850.774 823.764C851.388 823.15 852.222 822.804 853.092 822.804H976.094C976.964 822.804 977.797 823.15 978.412 823.764C979.027 824.379 979.372 825.213 979.372 826.082C979.372 826.952 979.027 827.786 978.412 828.4C977.797 829.015 976.964 829.36 976.094 829.36Z" fill="#E1E5EF"/>
<path d="M976.094 841.099H853.092C852.222 841.099 851.388 840.753 850.774 840.139C850.159 839.524 849.813 838.69 849.813 837.821C849.813 837.39 849.897 836.963 850.062 836.565C850.226 836.166 850.467 835.804 850.772 835.499C851.076 835.195 851.438 834.953 851.836 834.788C852.234 834.623 852.661 834.538 853.092 834.538H976.094C976.525 834.538 976.952 834.623 977.35 834.788C977.748 834.953 978.109 835.195 978.414 835.499C978.718 835.804 978.96 836.166 979.124 836.565C979.289 836.963 979.373 837.39 979.372 837.821C979.372 838.69 979.027 839.524 978.412 840.139C977.797 840.753 976.964 841.099 976.094 841.099Z" fill="#E1E5EF"/>
<path d="M915.905 852.851H853.092C852.222 852.851 851.388 852.505 850.774 851.891C850.159 851.276 849.813 850.442 849.813 849.573C849.813 848.703 850.159 847.869 850.774 847.255C851.388 846.64 852.222 846.294 853.092 846.294H915.905C916.774 846.296 917.607 846.641 918.222 847.256C918.836 847.87 919.182 848.704 919.183 849.573C919.183 850.442 918.838 851.276 918.223 851.891C917.608 852.505 916.775 852.851 915.905 852.851Z" fill="#E1E5EF"/>
<path d="M976.094 883.195H853.092C852.222 883.195 851.388 882.85 850.774 882.235C850.159 881.62 849.813 880.786 849.813 879.917C849.813 879.047 850.159 878.214 850.774 877.599C851.388 876.984 852.222 876.639 853.092 876.639H976.094C976.964 876.639 977.797 876.984 978.412 877.599C979.027 878.214 979.372 879.047 979.372 879.917C979.372 880.786 979.027 881.62 978.412 882.235C977.797 882.85 976.964 883.195 976.094 883.195Z" fill="#E1E5EF"/>
<path d="M976.094 894.933H853.092C852.661 894.933 852.234 894.848 851.836 894.683C851.438 894.518 851.076 894.276 850.772 893.971C850.467 893.666 850.226 893.304 850.062 892.906C849.897 892.508 849.813 892.081 849.813 891.65C849.813 890.781 850.159 889.947 850.774 889.332C851.388 888.717 852.222 888.372 853.092 888.372H976.094C976.964 888.372 977.797 888.717 978.412 889.332C979.027 889.947 979.372 890.781 979.372 891.65C979.373 892.081 979.289 892.508 979.124 892.906C978.96 893.304 978.718 893.666 978.414 893.971C978.109 894.276 977.748 894.518 977.35 894.683C976.952 894.848 976.525 894.933 976.094 894.933Z" fill="#E1E5EF"/>
<path d="M915.905 906.685H853.092C852.222 906.685 851.388 906.34 850.774 905.725C850.159 905.11 849.813 904.276 849.813 903.407C849.813 902.538 850.159 901.704 850.774 901.089C851.388 900.474 852.222 900.129 853.092 900.129H915.905C916.775 900.129 917.608 900.474 918.223 901.089C918.838 901.704 919.183 902.538 919.183 903.407C919.183 904.276 918.838 905.11 918.223 905.725C917.608 906.34 916.775 906.685 915.905 906.685Z" fill="#E1E5EF"/>
<path d="M976.094 937.03H853.092C852.661 937.03 852.234 936.945 851.836 936.78C851.438 936.615 851.076 936.373 850.772 936.068C850.467 935.764 850.226 935.402 850.062 935.003C849.897 934.605 849.813 934.178 849.813 933.747C849.813 932.878 850.159 932.044 850.774 931.429C851.388 930.815 852.222 930.469 853.092 930.469H976.094C976.964 930.469 977.797 930.815 978.412 931.429C979.027 932.044 979.372 932.878 979.372 933.747C979.373 934.178 979.289 934.605 979.124 935.003C978.96 935.402 978.718 935.764 978.414 936.068C978.109 936.373 977.748 936.615 977.35 936.78C976.952 936.945 976.525 937.03 976.094 937.03Z" fill="#E1E5EF"/>
<path d="M976.094 948.768H853.092C852.222 948.768 851.388 948.422 850.774 947.808C850.159 947.193 849.813 946.359 849.813 945.49C849.813 944.62 850.159 943.786 850.774 943.172C851.388 942.557 852.222 942.211 853.092 942.211H976.094C976.964 942.211 977.797 942.557 978.412 943.172C979.027 943.786 979.372 944.62 979.372 945.49C979.372 946.359 979.027 947.193 978.412 947.808C977.797 948.422 976.964 948.768 976.094 948.768Z" fill="#E1E5EF"/>
<path d="M915.905 960.52H853.092C852.222 960.52 851.388 960.175 850.774 959.56C850.159 958.945 849.813 958.111 849.813 957.242C849.813 956.373 850.159 955.539 850.774 954.924C851.388 954.309 852.222 953.964 853.092 953.964H915.905C916.775 953.964 917.608 954.309 918.223 954.924C918.838 955.539 919.183 956.373 919.183 957.242C919.183 958.111 918.838 958.945 918.223 959.56C917.608 960.175 916.775 960.52 915.905 960.52Z" fill="#E1E5EF"/>
<path d="M815.811 871.26C814.179 871.261 812.614 871.91 811.461 873.065C810.307 874.219 809.659 875.785 809.659 877.417C809.659 884.021 815.811 892.933 815.811 892.933C815.811 892.933 821.964 884.021 821.964 877.417C821.964 875.785 821.316 874.219 820.162 873.065C819.009 871.91 817.444 871.261 815.811 871.26ZM815.811 880.032C815.208 880.032 814.617 879.853 814.115 879.517C813.613 879.182 813.222 878.705 812.991 878.147C812.76 877.589 812.7 876.975 812.818 876.382C812.936 875.79 813.228 875.246 813.655 874.82C814.082 874.393 814.627 874.103 815.219 873.986C815.811 873.868 816.425 873.929 816.983 874.161C817.541 874.393 818.017 874.785 818.352 875.287C818.686 875.79 818.865 876.381 818.864 876.985C818.864 877.385 818.785 877.782 818.631 878.152C818.478 878.522 818.253 878.858 817.969 879.141C817.686 879.424 817.349 879.648 816.979 879.801C816.609 879.954 816.212 880.033 815.811 880.032Z" fill="#8296C9"/>
<path d="M971.734 601.313H811.566C807.231 601.313 803.717 604.828 803.717 609.163V741.572C803.717 745.907 807.231 749.421 811.566 749.421H971.734C976.069 749.421 979.583 745.907 979.583 741.572V609.163C979.583 604.828 976.069 601.313 971.734 601.313Z" fill="#E1E5EF"/>
<path d="M822.166 652.505C821.884 652.505 821.614 652.393 821.415 652.193C821.216 651.994 821.104 651.724 821.104 651.442V620.68H851.866C852.148 620.68 852.418 620.792 852.618 620.991C852.817 621.19 852.929 621.46 852.929 621.742C852.929 622.024 852.817 622.294 852.618 622.493C852.418 622.692 852.148 622.804 851.866 622.804H823.209V651.457C823.207 651.733 823.096 651.997 822.901 652.193C822.706 652.389 822.442 652.501 822.166 652.505Z" fill="#8296C9"/>
<path d="M961.136 652.504C960.854 652.504 960.584 652.392 960.385 652.193C960.185 651.994 960.073 651.723 960.073 651.442V622.789H931.421C931.139 622.789 930.869 622.677 930.67 622.478C930.471 622.279 930.359 622.009 930.359 621.727C930.359 621.445 930.471 621.175 930.67 620.976C930.869 620.776 931.139 620.665 931.421 620.665H962.184V651.427C962.185 651.567 962.16 651.705 962.108 651.835C962.057 651.964 961.98 652.083 961.883 652.183C961.785 652.283 961.669 652.362 961.541 652.418C961.413 652.473 961.275 652.502 961.136 652.504Z" fill="#8296C9"/>
<path d="M962.198 730.064H931.435C931.153 730.064 930.883 729.952 930.684 729.753C930.484 729.554 930.373 729.284 930.373 729.002C930.373 728.72 930.484 728.45 930.684 728.251C930.883 728.052 931.153 727.94 931.435 727.94H960.087V699.302C960.087 699.02 960.199 698.75 960.398 698.55C960.598 698.351 960.868 698.239 961.15 698.239C961.431 698.239 961.702 698.351 961.901 698.55C962.1 698.75 962.212 699.02 962.212 699.302L962.198 730.064Z" fill="#8296C9"/>
<path d="M851.885 730.064H821.123V699.302C821.123 699.02 821.235 698.75 821.434 698.55C821.633 698.351 821.903 698.239 822.185 698.239C822.467 698.239 822.737 698.351 822.936 698.55C823.135 698.75 823.247 699.02 823.247 699.302V727.959H851.905C852.186 727.959 852.457 728.071 852.656 728.27C852.855 728.469 852.967 728.739 852.967 729.021C852.967 729.303 852.855 729.573 852.656 729.772C852.457 729.972 852.186 730.083 851.905 730.083L851.885 730.064Z" fill="#8296C9"/>
<path d="M935.526 634.33H833.908V715.101H935.526V634.33Z" fill="#F1CA89"/>
<path d="M946.913 634.33H912.377V715.101H946.913V634.33Z" fill="#F1B873"/>
<path d="M881.46 634.33H869.515V659.277H881.46V634.33Z" fill="white"/>
<path d="M935.526 634.33H925.85V659.277H935.526V634.33Z" fill="white"/>
<path d="M934.94 479.339H1060.39C1052.05 471.456 1039.19 467.048 1028 469.567C1026.51 466.483 1024.16 463.899 1021.23 462.13C1018.3 460.361 1014.91 459.484 1011.49 459.606C1008.07 459.729 1004.76 460.845 1001.96 462.819C999.161 464.792 996.998 467.538 995.734 470.721C993.912 467.614 991.232 465.098 988.016 463.477C984.8 461.855 981.184 461.197 977.602 461.58C974.021 461.963 970.626 463.372 967.825 465.637C965.025 467.902 962.937 470.927 961.814 474.35C953.239 468.245 941.145 470.807 934.94 479.339Z" fill="white"/>
<path d="M309.611 696.759H227.393V697.466H309.611V696.759Z" fill="#8296C9"/>
<path d="M264.405 676.004H195.092V676.71H264.405V676.004Z" fill="#8296C9"/>
<path d="M295.687 676.004H279.21V676.71H295.687V676.004Z" fill="#8296C9"/>
<path d="M318.658 660.271H248.486V660.978H318.658V660.271Z" fill="#8296C9"/>
<path d="M598.972 499.498H523.81V500.118H598.972V499.498Z" fill="#8296C9"/>
<path d="M635.182 528.944H570.215V529.564H635.182V528.944Z" fill="#8296C9"/>
<path d="M1260.82 505.924H1179.7V506.631H1260.82V505.924Z" fill="#8296C9"/>
<path d="M1280.25 524.397H1220.26V525.104H1280.25V524.397Z" fill="#8296C9"/>
<path d="M1045.53 427.331H971.446V428.038H1045.53V427.331Z" fill="#8296C9"/>
<path d="M1058.59 415.564H1012.85V416.271H1058.59V415.564Z" fill="#8296C9"/>
<path d="M1103.24 882.619H990.394V985.227H1103.24V882.619Z" fill="#F1CA89"/>
<path d="M1147.48 882.619H1101.57V985.227H1147.48V882.619Z" fill="#F1B873"/>
<path d="M1055.63 882.619H1041.83V985.227H1055.63V882.619Z" fill="white"/>
<path d="M1130.43 882.619H1121.67V985.332H1130.43V882.619Z" fill="white"/>
<path d="M1093.21 809.946H1013.35V882.57H1093.21V809.946Z" fill="#F1CA89"/>
<path d="M1124.52 809.946H1092.03V882.57H1124.52V809.946Z" fill="#F1B873"/>
<path d="M1059.52 809.946H1049.75V882.57H1059.52V809.946Z" fill="white"/>
<path d="M1112.46 809.946H1106.26V882.642H1112.46V809.946Z" fill="white"/>
<path d="M1092.03 881.421H1013.35V883.724H1092.03V881.421Z" fill="#F1B873"/>
<path d="M1348.64 984.27H93.0281V986.394H1348.64V984.27Z" fill="#39548B"/>
</svg>
