<svg width="14" height="22" viewBox="0 0 14 22" fill="none" xmlns="http://www.w3.org/2000/svg">
<path d="M2 22C1.45 22 0.979167 21.8042 0.5875 21.4125C0.195833 21.0208 0 20.55 0 20V2C0 1.45 0.195833 0.979167 0.5875 0.5875C0.979167 0.195833 1.45 0 2 0H12C12.55 0 13.0208 0.195833 13.4125 0.5875C13.8042 0.979167 14 1.45 14 2V20C14 20.55 13.8042 21.0208 13.4125 21.4125C13.0208 21.8042 12.55 22 12 22H2ZM2 17V20H12V17H2ZM7 19.5C7.28333 19.5 7.52083 19.4042 7.7125 19.2125C7.90417 19.0208 8 18.7833 8 18.5C8 18.2167 7.90417 17.9792 7.7125 17.7875C7.52083 17.5958 7.28333 17.5 7 17.5C6.71667 17.5 6.47917 17.5958 6.2875 17.7875C6.09583 17.9792 6 18.2167 6 18.5C6 18.7833 6.09583 19.0208 6.2875 19.2125C6.47917 19.4042 6.71667 19.5 7 19.5ZM2 15H12V5H2V15ZM2 3H12V2H2V3Z" fill="#0217EB"/>
</svg>
