<svg width="250" height="56" viewBox="0 0 250 56" fill="none" xmlns="http://www.w3.org/2000/svg">
<rect width="249.675" height="56" rx="16" fill="#333942"/>
<path d="M33.5172 28.5555C33.5078 26.957 34.232 25.7523 35.6945 24.8641C34.8766 23.6922 33.6391 23.0477 32.0078 22.9234C30.4633 22.8016 28.7734 23.8234 28.1547 23.8234C27.5008 23.8234 26.0055 22.9656 24.8289 22.9656C22.4008 23.0031 19.8203 24.9016 19.8203 28.7641C19.8203 29.9055 20.0289 31.0844 20.4461 32.2984C21.0039 33.8969 23.0148 37.8133 25.1125 37.75C26.2094 37.7242 26.9852 36.9719 28.4125 36.9719C29.7977 36.9719 30.5148 37.75 31.7383 37.75C33.8547 37.7195 35.6734 34.1594 36.2031 32.5563C33.3648 31.218 33.5172 28.6375 33.5172 28.5555ZM31.0539 21.407C32.2422 19.9961 32.1344 18.7117 32.0992 18.25C31.0492 18.3109 29.8352 18.9648 29.1437 19.7688C28.382 20.6313 27.9344 21.6977 28.0305 22.9C29.1648 22.9867 30.2008 22.4031 31.0539 21.407Z" fill="white"/>
<path d="M60.4148 33.5H57.1186V23.3182H60.5192C61.5168 23.3182 62.3736 23.522 63.0895 23.9297C63.8054 24.334 64.3539 24.9157 64.7351 25.6747C65.1196 26.4304 65.3118 27.3369 65.3118 28.3942C65.3118 29.4548 65.1179 30.3662 64.7301 31.1286C64.3456 31.8909 63.7888 32.4775 63.0597 32.8885C62.3305 33.2962 61.4489 33.5 60.4148 33.5ZM58.6548 32.1577H60.3303C61.1058 32.1577 61.7505 32.0118 62.2642 31.7202C62.7779 31.4252 63.1624 30.9993 63.4176 30.4425C63.6728 29.8823 63.8004 29.1996 63.8004 28.3942C63.8004 27.5954 63.6728 26.9176 63.4176 26.3608C63.1657 25.804 62.7895 25.3814 62.2891 25.093C61.7886 24.8047 61.1671 24.6605 60.4247 24.6605H58.6548V32.1577ZM70.3194 33.6541C69.6035 33.6541 68.9788 33.4901 68.4451 33.1619C67.9115 32.8338 67.4972 32.3748 67.2022 31.7848C66.9073 31.1948 66.7598 30.5054 66.7598 29.7166C66.7598 28.9245 66.9073 28.2318 67.2022 27.6385C67.4972 27.0452 67.9115 26.5845 68.4451 26.2564C68.9788 25.9283 69.6035 25.7642 70.3194 25.7642C71.0353 25.7642 71.6601 25.9283 72.1937 26.2564C72.7273 26.5845 73.1416 27.0452 73.4366 27.6385C73.7316 28.2318 73.8791 28.9245 73.8791 29.7166C73.8791 30.5054 73.7316 31.1948 73.4366 31.7848C73.1416 32.3748 72.7273 32.8338 72.1937 33.1619C71.6601 33.4901 71.0353 33.6541 70.3194 33.6541ZM70.3244 32.4062C70.7884 32.4062 71.1729 32.2836 71.4778 32.0384C71.7827 31.7931 72.0081 31.4666 72.1539 31.0589C72.3031 30.6513 72.3777 30.2022 72.3777 29.7116C72.3777 29.2244 72.3031 28.777 72.1539 28.3693C72.0081 27.9583 71.7827 27.6286 71.4778 27.38C71.1729 27.1314 70.7884 27.0071 70.3244 27.0071C69.8571 27.0071 69.4693 27.1314 69.161 27.38C68.8561 27.6286 68.6291 27.9583 68.4799 28.3693C68.3341 28.777 68.2612 29.2244 68.2612 29.7116C68.2612 30.2022 68.3341 30.6513 68.4799 31.0589C68.6291 31.4666 68.8561 31.7931 69.161 32.0384C69.4693 32.2836 69.8571 32.4062 70.3244 32.4062ZM76.9615 33.5L74.7143 25.8636H76.2505L77.747 31.4716H77.8216L79.323 25.8636H80.8592L82.3507 31.4467H82.4252L83.9118 25.8636H85.448L83.2058 33.5H81.6895L80.1383 27.9865H80.024L78.4728 33.5H76.9615ZM88.3452 28.9659V33.5H86.8587V25.8636H88.2855V27.1065H88.38C88.5556 26.7022 88.8307 26.3774 89.2053 26.1321C89.5831 25.8868 90.0587 25.7642 90.6321 25.7642C91.1525 25.7642 91.6082 25.8736 91.9993 26.0923C92.3904 26.3078 92.6937 26.6293 92.9091 27.0568C93.1245 27.4844 93.2322 28.013 93.2322 28.6428V33.5H91.7457V28.8217C91.7457 28.2682 91.6016 27.8357 91.3132 27.5241C91.0249 27.2093 90.6288 27.0518 90.125 27.0518C89.7803 27.0518 89.4737 27.1264 89.2053 27.2756C88.9401 27.4247 88.7296 27.6435 88.5739 27.9318C88.4214 28.2169 88.3452 28.5616 88.3452 28.9659ZM96.7124 23.3182V33.5H95.2259V23.3182H96.7124ZM101.929 33.6541C101.213 33.6541 100.588 33.4901 100.055 33.1619C99.5209 32.8338 99.1066 32.3748 98.8116 31.7848C98.5166 31.1948 98.3691 30.5054 98.3691 29.7166C98.3691 28.9245 98.5166 28.2318 98.8116 27.6385C99.1066 27.0452 99.5209 26.5845 100.055 26.2564C100.588 25.9283 101.213 25.7642 101.929 25.7642C102.645 25.7642 103.269 25.9283 103.803 26.2564C104.337 26.5845 104.751 27.0452 105.046 27.6385C105.341 28.2318 105.488 28.9245 105.488 29.7166C105.488 30.5054 105.341 31.1948 105.046 31.7848C104.751 32.3748 104.337 32.8338 103.803 33.1619C103.269 33.4901 102.645 33.6541 101.929 33.6541ZM101.934 32.4062C102.398 32.4062 102.782 32.2836 103.087 32.0384C103.392 31.7931 103.617 31.4666 103.763 31.0589C103.912 30.6513 103.987 30.2022 103.987 29.7116C103.987 29.2244 103.912 28.777 103.763 28.3693C103.617 27.9583 103.392 27.6286 103.087 27.38C102.782 27.1314 102.398 27.0071 101.934 27.0071C101.466 27.0071 101.079 27.1314 100.77 27.38C100.465 27.6286 100.238 27.9583 100.089 28.3693C99.9435 28.777 99.8706 29.2244 99.8706 29.7116C99.8706 30.2022 99.9435 30.6513 100.089 31.0589C100.238 31.4666 100.465 31.7931 100.77 32.0384C101.079 32.2836 101.466 32.4062 101.934 32.4062ZM109.37 33.669C108.886 33.669 108.449 33.5795 108.058 33.4006C107.666 33.2183 107.357 32.9548 107.128 32.6101C106.902 32.2654 106.79 31.8428 106.79 31.3423C106.79 30.9115 106.873 30.5568 107.038 30.2784C107.204 30 107.428 29.7796 107.71 29.6172C107.991 29.4548 108.306 29.3321 108.654 29.2493C109.002 29.1664 109.357 29.1035 109.718 29.0604C110.175 29.0073 110.547 28.9643 110.832 28.9311C111.117 28.8946 111.324 28.8366 111.453 28.7571C111.582 28.6776 111.647 28.5483 111.647 28.3693V28.3345C111.647 27.9003 111.524 27.5639 111.279 27.3253C111.037 27.0866 110.676 26.9673 110.195 26.9673C109.695 26.9673 109.3 27.0784 109.012 27.3004C108.727 27.5192 108.53 27.7628 108.42 28.0312L107.023 27.7131C107.189 27.2491 107.431 26.8745 107.749 26.5895C108.071 26.3011 108.44 26.0923 108.858 25.9631C109.276 25.8305 109.715 25.7642 110.175 25.7642C110.48 25.7642 110.804 25.8007 111.145 25.8736C111.49 25.9432 111.811 26.0724 112.109 26.2614C112.411 26.4503 112.658 26.7204 112.85 27.0717C113.042 27.4197 113.138 27.8722 113.138 28.429V33.5H111.687V32.456H111.627C111.531 32.6482 111.387 32.8371 111.195 33.0227C111.002 33.2083 110.755 33.3625 110.454 33.4851C110.152 33.6077 109.791 33.669 109.37 33.669ZM109.693 32.4759C110.104 32.4759 110.455 32.3946 110.747 32.2322C111.042 32.0698 111.266 31.8577 111.418 31.5959C111.574 31.3307 111.652 31.0473 111.652 30.7457V29.7614C111.599 29.8144 111.496 29.8641 111.344 29.9105C111.195 29.9536 111.024 29.9917 110.832 30.0249C110.639 30.0547 110.452 30.0829 110.27 30.1094C110.088 30.1326 109.935 30.1525 109.812 30.169C109.524 30.2055 109.261 30.2668 109.022 30.353C108.787 30.4392 108.598 30.5634 108.455 30.7259C108.316 30.8849 108.246 31.0971 108.246 31.3622C108.246 31.7301 108.382 32.0085 108.654 32.1974C108.926 32.383 109.272 32.4759 109.693 32.4759ZM117.977 33.6491C117.361 33.6491 116.81 33.4917 116.327 33.1768C115.846 32.8587 115.468 32.4062 115.193 31.8196C114.921 31.2296 114.785 30.522 114.785 29.6967C114.785 28.8714 114.923 28.1655 115.198 27.5788C115.476 26.9922 115.858 26.5431 116.341 26.2315C116.825 25.92 117.374 25.7642 117.987 25.7642C118.461 25.7642 118.842 25.8438 119.131 26.0028C119.422 26.1586 119.648 26.3409 119.807 26.5497C119.969 26.7585 120.095 26.9425 120.184 27.1016H120.274V23.3182H121.76V33.5H120.309V32.3118H120.184C120.095 32.4742 119.966 32.6598 119.797 32.8686C119.631 33.0774 119.402 33.2597 119.111 33.4155C118.819 33.5713 118.441 33.6491 117.977 33.6491ZM118.305 32.3814C118.733 32.3814 119.094 32.2687 119.389 32.0433C119.687 31.8146 119.913 31.4981 120.065 31.0938C120.221 30.6894 120.299 30.2187 120.299 29.6818C120.299 29.1515 120.223 28.6875 120.07 28.2898C119.918 27.892 119.694 27.5821 119.399 27.3601C119.104 27.138 118.739 27.027 118.305 27.027C117.858 27.027 117.485 27.143 117.187 27.375C116.888 27.607 116.663 27.9235 116.51 28.3246C116.361 28.7256 116.287 29.178 116.287 29.6818C116.287 30.1922 116.363 30.6513 116.515 31.0589C116.668 31.4666 116.893 31.7898 117.192 32.0284C117.493 32.2637 117.864 32.3814 118.305 32.3814ZM130.804 33.6541C130.088 33.6541 129.463 33.4901 128.93 33.1619C128.396 32.8338 127.982 32.3748 127.687 31.7848C127.392 31.1948 127.244 30.5054 127.244 29.7166C127.244 28.9245 127.392 28.2318 127.687 27.6385C127.982 27.0452 128.396 26.5845 128.93 26.2564C129.463 25.9283 130.088 25.7642 130.804 25.7642C131.52 25.7642 132.144 25.9283 132.678 26.2564C133.212 26.5845 133.626 27.0452 133.921 27.6385C134.216 28.2318 134.363 28.9245 134.363 29.7166C134.363 30.5054 134.216 31.1948 133.921 31.7848C133.626 32.3748 133.212 32.8338 132.678 33.1619C132.144 33.4901 131.52 33.6541 130.804 33.6541ZM130.809 32.4062C131.273 32.4062 131.657 32.2836 131.962 32.0384C132.267 31.7931 132.492 31.4666 132.638 31.0589C132.787 30.6513 132.862 30.2022 132.862 29.7116C132.862 29.2244 132.787 28.777 132.638 28.3693C132.492 27.9583 132.267 27.6286 131.962 27.38C131.657 27.1314 131.273 27.0071 130.809 27.0071C130.341 27.0071 129.954 27.1314 129.645 27.38C129.34 27.6286 129.113 27.9583 128.964 28.3693C128.818 28.777 128.746 29.2244 128.746 29.7116C128.746 30.2022 128.818 30.6513 128.964 31.0589C129.113 31.4666 129.34 31.7931 129.645 32.0384C129.954 32.2836 130.341 32.4062 130.809 32.4062ZM137.509 28.9659V33.5H136.023V25.8636H137.45V27.1065H137.544C137.72 26.7022 137.995 26.3774 138.369 26.1321C138.747 25.8868 139.223 25.7642 139.796 25.7642C140.317 25.7642 140.772 25.8736 141.163 26.0923C141.554 26.3078 141.858 26.6293 142.073 27.0568C142.289 27.4844 142.396 28.013 142.396 28.6428V33.5H140.91V28.8217C140.91 28.2682 140.766 27.8357 140.477 27.5241C140.189 27.2093 139.793 27.0518 139.289 27.0518C138.944 27.0518 138.638 27.1264 138.369 27.2756C138.104 27.4247 137.894 27.6435 137.738 27.9318C137.585 28.2169 137.509 28.5616 137.509 28.9659ZM150.317 33.669C149.833 33.669 149.396 33.5795 149.005 33.4006C148.614 33.2183 148.304 32.9548 148.075 32.6101C147.85 32.2654 147.737 31.8428 147.737 31.3423C147.737 30.9115 147.82 30.5568 147.986 30.2784C148.151 30 148.375 29.7796 148.657 29.6172C148.939 29.4548 149.253 29.3321 149.601 29.2493C149.949 29.1664 150.304 29.1035 150.665 29.0604C151.123 29.0073 151.494 28.9643 151.779 28.9311C152.064 28.8946 152.271 28.8366 152.4 28.7571C152.53 28.6776 152.594 28.5483 152.594 28.3693V28.3345C152.594 27.9003 152.472 27.5639 152.226 27.3253C151.984 27.0866 151.623 26.9673 151.143 26.9673C150.642 26.9673 150.248 27.0784 149.959 27.3004C149.674 27.5192 149.477 27.7628 149.368 28.0312L147.971 27.7131C148.136 27.2491 148.378 26.8745 148.697 26.5895C149.018 26.3011 149.388 26.0923 149.805 25.9631C150.223 25.8305 150.662 25.7642 151.123 25.7642C151.428 25.7642 151.751 25.8007 152.092 25.8736C152.437 25.9432 152.758 26.0724 153.057 26.2614C153.358 26.4503 153.605 26.7204 153.797 27.0717C153.99 27.4197 154.086 27.8722 154.086 28.429V33.5H152.634V32.456H152.574C152.478 32.6482 152.334 32.8371 152.142 33.0227C151.95 33.2083 151.703 33.3625 151.401 33.4851C151.099 33.6077 150.738 33.669 150.317 33.669ZM150.64 32.4759C151.051 32.4759 151.403 32.3946 151.694 32.2322C151.989 32.0698 152.213 31.8577 152.366 31.5959C152.521 31.3307 152.599 31.0473 152.599 30.7457V29.7614C152.546 29.8144 152.443 29.8641 152.291 29.9105C152.142 29.9536 151.971 29.9917 151.779 30.0249C151.587 30.0547 151.399 30.0829 151.217 30.1094C151.035 30.1326 150.882 30.1525 150.76 30.169C150.471 30.2055 150.208 30.2668 149.969 30.353C149.734 30.4392 149.545 30.5634 149.403 30.7259C149.263 30.8849 149.194 31.0971 149.194 31.3622C149.194 31.7301 149.33 32.0085 149.601 32.1974C149.873 32.383 150.22 32.4759 150.64 32.4759ZM156.066 36.3636V25.8636H157.517V27.1016H157.642C157.728 26.9425 157.852 26.7585 158.015 26.5497C158.177 26.3409 158.402 26.1586 158.691 26.0028C158.979 25.8438 159.36 25.7642 159.834 25.7642C160.451 25.7642 161.001 25.92 161.485 26.2315C161.969 26.5431 162.348 26.9922 162.623 27.5788C162.902 28.1655 163.041 28.8714 163.041 29.6967C163.041 30.522 162.903 31.2296 162.628 31.8196C162.353 32.4062 161.975 32.8587 161.495 33.1768C161.014 33.4917 160.466 33.6491 159.849 33.6491C159.385 33.6491 159.006 33.5713 158.711 33.4155C158.419 33.2597 158.19 33.0774 158.025 32.8686C157.859 32.6598 157.731 32.4742 157.642 32.3118H157.552V36.3636H156.066ZM157.522 29.6818C157.522 30.2187 157.6 30.6894 157.756 31.0938C157.912 31.4981 158.137 31.8146 158.432 32.0433C158.727 32.2687 159.088 32.3814 159.516 32.3814C159.96 32.3814 160.331 32.2637 160.63 32.0284C160.928 31.7898 161.153 31.4666 161.306 31.0589C161.462 30.6513 161.539 30.1922 161.539 29.6818C161.539 29.178 161.463 28.7256 161.311 28.3246C161.162 27.9235 160.936 27.607 160.635 27.375C160.336 27.143 159.963 27.027 159.516 27.027C159.085 27.027 158.721 27.138 158.422 27.3601C158.127 27.5821 157.904 27.892 157.751 28.2898C157.599 28.6875 157.522 29.1515 157.522 29.6818ZM164.706 36.3636V25.8636H166.158V27.1016H166.282C166.368 26.9425 166.493 26.7585 166.655 26.5497C166.818 26.3409 167.043 26.1586 167.331 26.0028C167.62 25.8438 168.001 25.7642 168.475 25.7642C169.091 25.7642 169.641 25.92 170.125 26.2315C170.609 26.5431 170.989 26.9922 171.264 27.5788C171.542 28.1655 171.681 28.8714 171.681 29.6967C171.681 30.522 171.544 31.2296 171.269 31.8196C170.994 32.4062 170.616 32.8587 170.135 33.1768C169.655 33.4917 169.106 33.6491 168.49 33.6491C168.026 33.6491 167.646 33.5713 167.351 33.4155C167.06 33.2597 166.831 33.0774 166.665 32.8686C166.499 32.6598 166.372 32.4742 166.282 32.3118H166.193V36.3636H164.706ZM166.163 29.6818C166.163 30.2187 166.241 30.6894 166.397 31.0938C166.552 31.4981 166.778 31.8146 167.073 32.0433C167.368 32.2687 167.729 32.3814 168.157 32.3814C168.601 32.3814 168.972 32.2637 169.27 32.0284C169.569 31.7898 169.794 31.4666 169.946 31.0589C170.102 30.6513 170.18 30.1922 170.18 29.6818C170.18 29.178 170.104 28.7256 169.951 28.3246C169.802 27.9235 169.577 27.607 169.275 27.375C168.977 27.143 168.604 27.027 168.157 27.027C167.726 27.027 167.361 27.138 167.063 27.3601C166.768 27.5821 166.544 27.892 166.392 28.2898C166.239 28.6875 166.163 29.1515 166.163 29.6818ZM174.833 23.3182V33.5H173.347V23.3182H174.833ZM180.124 33.6541C179.372 33.6541 178.724 33.4934 178.181 33.1719C177.64 32.8471 177.223 32.3913 176.928 31.8047C176.636 31.2147 176.49 30.5237 176.49 29.7315C176.49 28.9493 176.636 28.2599 176.928 27.6634C177.223 27.0668 177.634 26.6011 178.161 26.2663C178.691 25.9316 179.311 25.7642 180.02 25.7642C180.451 25.7642 180.869 25.8355 181.273 25.978C181.677 26.1205 182.04 26.3442 182.362 26.6491C182.683 26.9541 182.937 27.3501 183.122 27.8374C183.308 28.3213 183.401 28.9096 183.401 29.6023V30.1293H177.33V29.0156H181.944C181.944 28.6245 181.865 28.2782 181.705 27.9766C181.546 27.6716 181.323 27.4313 181.034 27.2557C180.749 27.08 180.414 26.9922 180.03 26.9922C179.612 26.9922 179.248 27.0949 178.936 27.3004C178.628 27.5026 178.389 27.7678 178.22 28.0959C178.055 28.4207 177.972 28.7737 177.972 29.1548V30.0249C177.972 30.5353 178.061 30.9695 178.24 31.3274C178.423 31.6854 178.676 31.9588 179.001 32.1477C179.326 32.3333 179.705 32.4261 180.139 32.4261C180.421 32.4261 180.678 32.3864 180.91 32.3068C181.142 32.224 181.343 32.1013 181.512 31.9389C181.681 31.7765 181.81 31.576 181.899 31.3374L183.306 31.5909C183.194 32.0052 182.991 32.3681 182.7 32.6797C182.411 32.9879 182.048 33.2282 181.611 33.4006C181.177 33.5696 180.681 33.6541 180.124 33.6541ZM194.477 27.728L193.13 27.9666C193.074 27.7943 192.984 27.6302 192.862 27.4744C192.742 27.3187 192.58 27.1911 192.374 27.0916C192.169 26.9922 191.912 26.9425 191.604 26.9425C191.183 26.9425 190.832 27.0369 190.55 27.2259C190.268 27.4115 190.127 27.6518 190.127 27.9467C190.127 28.2019 190.222 28.4074 190.411 28.5632C190.6 28.719 190.905 28.8466 191.325 28.946L192.539 29.2244C193.241 29.3868 193.765 29.6371 194.11 29.9751C194.454 30.3132 194.627 30.7524 194.627 31.2926C194.627 31.75 194.494 32.1577 194.229 32.5156C193.967 32.8703 193.601 33.1487 193.13 33.3509C192.663 33.553 192.121 33.6541 191.504 33.6541C190.649 33.6541 189.952 33.4718 189.411 33.1072C188.871 32.7393 188.54 32.2173 188.417 31.5412L189.854 31.3224C189.943 31.697 190.127 31.9804 190.406 32.1726C190.684 32.3615 191.047 32.456 191.494 32.456C191.982 32.456 192.371 32.3549 192.663 32.1527C192.954 31.9472 193.1 31.697 193.1 31.402C193.1 31.1634 193.011 30.9628 192.832 30.8004C192.656 30.638 192.386 30.5154 192.021 30.4325L190.729 30.1491C190.016 29.9867 189.489 29.7282 189.148 29.3736C188.81 29.0189 188.641 28.5698 188.641 28.0263C188.641 27.5755 188.767 27.1811 189.019 26.843C189.271 26.505 189.619 26.2415 190.063 26.0526C190.507 25.8603 191.016 25.7642 191.589 25.7642C192.414 25.7642 193.064 25.9432 193.538 26.3011C194.012 26.6558 194.325 27.1314 194.477 27.728ZM199.826 25.8636V27.0568H195.654V25.8636H199.826ZM196.773 24.0341H198.26V31.2578C198.26 31.5462 198.303 31.7633 198.389 31.9091C198.475 32.0516 198.586 32.1494 198.722 32.2024C198.861 32.2521 199.012 32.277 199.174 32.277C199.294 32.277 199.398 32.2687 199.488 32.2521C199.577 32.2356 199.647 32.2223 199.696 32.2124L199.965 33.4403C199.879 33.4735 199.756 33.5066 199.597 33.5398C199.438 33.5762 199.239 33.5961 199 33.5994C198.609 33.6061 198.245 33.5365 197.907 33.3906C197.569 33.2448 197.295 33.0194 197.086 32.7145C196.877 32.4096 196.773 32.0268 196.773 31.5661V24.0341ZM204.605 33.6541C203.889 33.6541 203.264 33.4901 202.73 33.1619C202.197 32.8338 201.782 32.3748 201.487 31.7848C201.192 31.1948 201.045 30.5054 201.045 29.7166C201.045 28.9245 201.192 28.2318 201.487 27.6385C201.782 27.0452 202.197 26.5845 202.73 26.2564C203.264 25.9283 203.889 25.7642 204.605 25.7642C205.32 25.7642 205.945 25.9283 206.479 26.2564C207.012 26.5845 207.427 27.0452 207.722 27.6385C208.017 28.2318 208.164 28.9245 208.164 29.7166C208.164 30.5054 208.017 31.1948 207.722 31.7848C207.427 32.3748 207.012 32.8338 206.479 33.1619C205.945 33.4901 205.32 33.6541 204.605 33.6541ZM204.61 32.4062C205.074 32.4062 205.458 32.2836 205.763 32.0384C206.068 31.7931 206.293 31.4666 206.439 31.0589C206.588 30.6513 206.663 30.2022 206.663 29.7116C206.663 29.2244 206.588 28.777 206.439 28.3693C206.293 27.9583 206.068 27.6286 205.763 27.38C205.458 27.1314 205.074 27.0071 204.61 27.0071C204.142 27.0071 203.754 27.1314 203.446 27.38C203.141 27.6286 202.914 27.9583 202.765 28.3693C202.619 28.777 202.546 29.2244 202.546 29.7116C202.546 30.2022 202.619 30.6513 202.765 31.0589C202.914 31.4666 203.141 31.7931 203.446 32.0384C203.754 32.2836 204.142 32.4062 204.61 32.4062ZM209.824 33.5V25.8636H211.26V27.0767H211.34C211.479 26.6657 211.724 26.3426 212.076 26.1072C212.43 25.8686 212.831 25.7493 213.279 25.7493C213.372 25.7493 213.481 25.7526 213.607 25.7592C213.736 25.7659 213.837 25.7741 213.91 25.7841V27.206C213.85 27.1894 213.744 27.1712 213.592 27.1513C213.44 27.1281 213.287 27.1165 213.135 27.1165C212.783 27.1165 212.47 27.1911 212.195 27.3402C211.923 27.486 211.708 27.6899 211.549 27.9517C211.39 28.2102 211.31 28.5052 211.31 28.8366V33.5H209.824ZM218.214 33.6541C217.462 33.6541 216.814 33.4934 216.27 33.1719C215.73 32.8471 215.313 32.3913 215.018 31.8047C214.726 31.2147 214.58 30.5237 214.58 29.7315C214.58 28.9493 214.726 28.2599 215.018 27.6634C215.313 27.0668 215.724 26.6011 216.251 26.2663C216.781 25.9316 217.401 25.7642 218.11 25.7642C218.541 25.7642 218.958 25.8355 219.363 25.978C219.767 26.1205 220.13 26.3442 220.452 26.6491C220.773 26.9541 221.027 27.3501 221.212 27.8374C221.398 28.3213 221.491 28.9096 221.491 29.6023V30.1293H215.42V29.0156H220.034C220.034 28.6245 219.954 28.2782 219.795 27.9766C219.636 27.6716 219.412 27.4313 219.124 27.2557C218.839 27.08 218.504 26.9922 218.12 26.9922C217.702 26.9922 217.338 27.0949 217.026 27.3004C216.718 27.5026 216.479 27.7678 216.31 28.0959C216.144 28.4207 216.062 28.7737 216.062 29.1548V30.0249C216.062 30.5353 216.151 30.9695 216.33 31.3274C216.512 31.6854 216.766 31.9588 217.091 32.1477C217.416 32.3333 217.795 32.4261 218.229 32.4261C218.511 32.4261 218.768 32.3864 219 32.3068C219.232 32.224 219.432 32.1013 219.601 31.9389C219.77 31.7765 219.9 31.576 219.989 31.3374L221.396 31.5909C221.283 32.0052 221.081 32.3681 220.79 32.6797C220.501 32.9879 220.138 33.2282 219.701 33.4006C219.267 33.5696 218.771 33.6541 218.214 33.6541Z" fill="white"/>
</svg>
