<svg width="250" height="56" viewBox="0 0 250 56" fill="none" xmlns="http://www.w3.org/2000/svg">
<rect width="249.675" height="56" rx="16" fill="#333942"/>
<path d="M21.4 36.9999C21.23 37.0029 21.06 36.9739 20.9 36.9139L28.954 28.8569L31.62 31.5259L22.365 36.7259C22.0718 36.8978 21.7397 36.9921 21.4 36.9999ZM20.236 36.3349C20.0722 36.0384 19.9908 35.7035 20 35.3649V20.6599C19.9986 20.4367 20.0324 20.2147 20.1 20.0019L28.333 28.2369L20.233 36.3369L20.236 36.3349ZM32.415 31.0769L29.574 28.2379L32.707 25.1059L35.49 26.6689C36.024 26.9089 36.382 27.4239 36.418 28.0079C36.4002 28.2948 36.3043 28.5714 36.1405 28.8076C35.9767 29.0438 35.7514 29.2307 35.489 29.3479L32.415 31.0769ZM28.954 27.6139L20.614 19.2749C20.843 19.1049 21.12 19.0149 21.405 19.0139C21.741 19.0259 22.069 19.1209 22.36 19.2909L31.911 24.6589L28.955 27.6139H28.954Z" fill="white"/>
<path d="M60.4148 33.5H57.1186V23.3182H60.5192C61.5168 23.3182 62.3736 23.522 63.0895 23.9297C63.8054 24.334 64.3539 24.9157 64.7351 25.6747C65.1196 26.4304 65.3118 27.3369 65.3118 28.3942C65.3118 29.4548 65.1179 30.3662 64.7301 31.1286C64.3456 31.8909 63.7888 32.4775 63.0597 32.8885C62.3305 33.2962 61.4489 33.5 60.4148 33.5ZM58.6548 32.1577H60.3303C61.1058 32.1577 61.7505 32.0118 62.2642 31.7202C62.7779 31.4252 63.1624 30.9993 63.4176 30.4425C63.6728 29.8823 63.8004 29.1996 63.8004 28.3942C63.8004 27.5954 63.6728 26.9176 63.4176 26.3608C63.1657 25.804 62.7895 25.3814 62.2891 25.093C61.7886 24.8047 61.1671 24.6605 60.4247 24.6605H58.6548V32.1577ZM70.3194 33.6541C69.6035 33.6541 68.9788 33.4901 68.4451 33.1619C67.9115 32.8338 67.4972 32.3748 67.2022 31.7848C66.9073 31.1948 66.7598 30.5054 66.7598 29.7166C66.7598 28.9245 66.9073 28.2318 67.2022 27.6385C67.4972 27.0452 67.9115 26.5845 68.4451 26.2564C68.9788 25.9283 69.6035 25.7642 70.3194 25.7642C71.0353 25.7642 71.6601 25.9283 72.1937 26.2564C72.7273 26.5845 73.1416 27.0452 73.4366 27.6385C73.7316 28.2318 73.8791 28.9245 73.8791 29.7166C73.8791 30.5054 73.7316 31.1948 73.4366 31.7848C73.1416 32.3748 72.7273 32.8338 72.1937 33.1619C71.6601 33.4901 71.0353 33.6541 70.3194 33.6541ZM70.3244 32.4062C70.7884 32.4062 71.1729 32.2836 71.4778 32.0384C71.7827 31.7931 72.0081 31.4666 72.1539 31.0589C72.3031 30.6513 72.3777 30.2022 72.3777 29.7116C72.3777 29.2244 72.3031 28.777 72.1539 28.3693C72.0081 27.9583 71.7827 27.6286 71.4778 27.38C71.1729 27.1314 70.7884 27.0071 70.3244 27.0071C69.8571 27.0071 69.4693 27.1314 69.161 27.38C68.8561 27.6286 68.6291 27.9583 68.4799 28.3693C68.3341 28.777 68.2612 29.2244 68.2612 29.7116C68.2612 30.2022 68.3341 30.6513 68.4799 31.0589C68.6291 31.4666 68.8561 31.7931 69.161 32.0384C69.4693 32.2836 69.8571 32.4062 70.3244 32.4062ZM76.9615 33.5L74.7143 25.8636H76.2505L77.747 31.4716H77.8216L79.323 25.8636H80.8592L82.3507 31.4467H82.4252L83.9118 25.8636H85.448L83.2058 33.5H81.6895L80.1383 27.9865H80.024L78.4728 33.5H76.9615ZM88.3452 28.9659V33.5H86.8587V25.8636H88.2855V27.1065H88.38C88.5556 26.7022 88.8307 26.3774 89.2053 26.1321C89.5831 25.8868 90.0587 25.7642 90.6321 25.7642C91.1525 25.7642 91.6082 25.8736 91.9993 26.0923C92.3904 26.3078 92.6937 26.6293 92.9091 27.0568C93.1245 27.4844 93.2322 28.013 93.2322 28.6428V33.5H91.7457V28.8217C91.7457 28.2682 91.6016 27.8357 91.3132 27.5241C91.0249 27.2093 90.6288 27.0518 90.125 27.0518C89.7803 27.0518 89.4737 27.1264 89.2053 27.2756C88.9401 27.4247 88.7296 27.6435 88.5739 27.9318C88.4214 28.2169 88.3452 28.5616 88.3452 28.9659ZM96.7124 23.3182V33.5H95.2259V23.3182H96.7124ZM101.929 33.6541C101.213 33.6541 100.588 33.4901 100.055 33.1619C99.5209 32.8338 99.1066 32.3748 98.8116 31.7848C98.5166 31.1948 98.3691 30.5054 98.3691 29.7166C98.3691 28.9245 98.5166 28.2318 98.8116 27.6385C99.1066 27.0452 99.5209 26.5845 100.055 26.2564C100.588 25.9283 101.213 25.7642 101.929 25.7642C102.645 25.7642 103.269 25.9283 103.803 26.2564C104.337 26.5845 104.751 27.0452 105.046 27.6385C105.341 28.2318 105.488 28.9245 105.488 29.7166C105.488 30.5054 105.341 31.1948 105.046 31.7848C104.751 32.3748 104.337 32.8338 103.803 33.1619C103.269 33.4901 102.645 33.6541 101.929 33.6541ZM101.934 32.4062C102.398 32.4062 102.782 32.2836 103.087 32.0384C103.392 31.7931 103.617 31.4666 103.763 31.0589C103.912 30.6513 103.987 30.2022 103.987 29.7116C103.987 29.2244 103.912 28.777 103.763 28.3693C103.617 27.9583 103.392 27.6286 103.087 27.38C102.782 27.1314 102.398 27.0071 101.934 27.0071C101.466 27.0071 101.079 27.1314 100.77 27.38C100.465 27.6286 100.238 27.9583 100.089 28.3693C99.9435 28.777 99.8706 29.2244 99.8706 29.7116C99.8706 30.2022 99.9435 30.6513 100.089 31.0589C100.238 31.4666 100.465 31.7931 100.77 32.0384C101.079 32.2836 101.466 32.4062 101.934 32.4062ZM109.37 33.669C108.886 33.669 108.449 33.5795 108.058 33.4006C107.666 33.2183 107.357 32.9548 107.128 32.6101C106.902 32.2654 106.79 31.8428 106.79 31.3423C106.79 30.9115 106.873 30.5568 107.038 30.2784C107.204 30 107.428 29.7796 107.71 29.6172C107.991 29.4548 108.306 29.3321 108.654 29.2493C109.002 29.1664 109.357 29.1035 109.718 29.0604C110.175 29.0073 110.547 28.9643 110.832 28.9311C111.117 28.8946 111.324 28.8366 111.453 28.7571C111.582 28.6776 111.647 28.5483 111.647 28.3693V28.3345C111.647 27.9003 111.524 27.5639 111.279 27.3253C111.037 27.0866 110.676 26.9673 110.195 26.9673C109.695 26.9673 109.3 27.0784 109.012 27.3004C108.727 27.5192 108.53 27.7628 108.42 28.0312L107.023 27.7131C107.189 27.2491 107.431 26.8745 107.749 26.5895C108.071 26.3011 108.44 26.0923 108.858 25.9631C109.276 25.8305 109.715 25.7642 110.175 25.7642C110.48 25.7642 110.804 25.8007 111.145 25.8736C111.49 25.9432 111.811 26.0724 112.109 26.2614C112.411 26.4503 112.658 26.7204 112.85 27.0717C113.042 27.4197 113.138 27.8722 113.138 28.429V33.5H111.687V32.456H111.627C111.531 32.6482 111.387 32.8371 111.195 33.0227C111.002 33.2083 110.755 33.3625 110.454 33.4851C110.152 33.6077 109.791 33.669 109.37 33.669ZM109.693 32.4759C110.104 32.4759 110.455 32.3946 110.747 32.2322C111.042 32.0698 111.266 31.8577 111.418 31.5959C111.574 31.3307 111.652 31.0473 111.652 30.7457V29.7614C111.599 29.8144 111.496 29.8641 111.344 29.9105C111.195 29.9536 111.024 29.9917 110.832 30.0249C110.639 30.0547 110.452 30.0829 110.27 30.1094C110.088 30.1326 109.935 30.1525 109.812 30.169C109.524 30.2055 109.261 30.2668 109.022 30.353C108.787 30.4392 108.598 30.5634 108.455 30.7259C108.316 30.8849 108.246 31.0971 108.246 31.3622C108.246 31.7301 108.382 32.0085 108.654 32.1974C108.926 32.383 109.272 32.4759 109.693 32.4759ZM117.977 33.6491C117.361 33.6491 116.81 33.4917 116.327 33.1768C115.846 32.8587 115.468 32.4062 115.193 31.8196C114.921 31.2296 114.785 30.522 114.785 29.6967C114.785 28.8714 114.923 28.1655 115.198 27.5788C115.476 26.9922 115.858 26.5431 116.341 26.2315C116.825 25.92 117.374 25.7642 117.987 25.7642C118.461 25.7642 118.842 25.8438 119.131 26.0028C119.422 26.1586 119.648 26.3409 119.807 26.5497C119.969 26.7585 120.095 26.9425 120.184 27.1016H120.274V23.3182H121.76V33.5H120.309V32.3118H120.184C120.095 32.4742 119.966 32.6598 119.797 32.8686C119.631 33.0774 119.402 33.2597 119.111 33.4155C118.819 33.5713 118.441 33.6491 117.977 33.6491ZM118.305 32.3814C118.733 32.3814 119.094 32.2687 119.389 32.0433C119.687 31.8146 119.913 31.4981 120.065 31.0938C120.221 30.6894 120.299 30.2187 120.299 29.6818C120.299 29.1515 120.223 28.6875 120.07 28.2898C119.918 27.892 119.694 27.5821 119.399 27.3601C119.104 27.138 118.739 27.027 118.305 27.027C117.858 27.027 117.485 27.143 117.187 27.375C116.888 27.607 116.663 27.9235 116.51 28.3246C116.361 28.7256 116.287 29.178 116.287 29.6818C116.287 30.1922 116.363 30.6513 116.515 31.0589C116.668 31.4666 116.893 31.7898 117.192 32.0284C117.493 32.2637 117.864 32.3814 118.305 32.3814ZM130.804 33.6541C130.088 33.6541 129.463 33.4901 128.93 33.1619C128.396 32.8338 127.982 32.3748 127.687 31.7848C127.392 31.1948 127.244 30.5054 127.244 29.7166C127.244 28.9245 127.392 28.2318 127.687 27.6385C127.982 27.0452 128.396 26.5845 128.93 26.2564C129.463 25.9283 130.088 25.7642 130.804 25.7642C131.52 25.7642 132.144 25.9283 132.678 26.2564C133.212 26.5845 133.626 27.0452 133.921 27.6385C134.216 28.2318 134.363 28.9245 134.363 29.7166C134.363 30.5054 134.216 31.1948 133.921 31.7848C133.626 32.3748 133.212 32.8338 132.678 33.1619C132.144 33.4901 131.52 33.6541 130.804 33.6541ZM130.809 32.4062C131.273 32.4062 131.657 32.2836 131.962 32.0384C132.267 31.7931 132.492 31.4666 132.638 31.0589C132.787 30.6513 132.862 30.2022 132.862 29.7116C132.862 29.2244 132.787 28.777 132.638 28.3693C132.492 27.9583 132.267 27.6286 131.962 27.38C131.657 27.1314 131.273 27.0071 130.809 27.0071C130.341 27.0071 129.954 27.1314 129.645 27.38C129.34 27.6286 129.113 27.9583 128.964 28.3693C128.818 28.777 128.746 29.2244 128.746 29.7116C128.746 30.2022 128.818 30.6513 128.964 31.0589C129.113 31.4666 129.34 31.7931 129.645 32.0384C129.954 32.2836 130.341 32.4062 130.809 32.4062ZM137.509 28.9659V33.5H136.023V25.8636H137.45V27.1065H137.544C137.72 26.7022 137.995 26.3774 138.369 26.1321C138.747 25.8868 139.223 25.7642 139.796 25.7642C140.317 25.7642 140.772 25.8736 141.163 26.0923C141.554 26.3078 141.858 26.6293 142.073 27.0568C142.289 27.4844 142.396 28.013 142.396 28.6428V33.5H140.91V28.8217C140.91 28.2682 140.766 27.8357 140.477 27.5241C140.189 27.2093 139.793 27.0518 139.289 27.0518C138.944 27.0518 138.638 27.1264 138.369 27.2756C138.104 27.4247 137.894 27.6435 137.738 27.9318C137.585 28.2169 137.509 28.5616 137.509 28.9659ZM148.095 36.3636V25.8636H149.547V27.1016H149.671C149.757 26.9425 149.881 26.7585 150.044 26.5497C150.206 26.3409 150.432 26.1586 150.72 26.0028C151.008 25.8438 151.39 25.7642 151.863 25.7642C152.48 25.7642 153.03 25.92 153.514 26.2315C153.998 26.5431 154.377 26.9922 154.653 27.5788C154.931 28.1655 155.07 28.8714 155.07 29.6967C155.07 30.522 154.933 31.2296 154.657 31.8196C154.382 32.4062 154.005 32.8587 153.524 33.1768C153.043 33.4917 152.495 33.6491 151.878 33.6491C151.414 33.6491 151.035 33.5713 150.74 33.4155C150.448 33.2597 150.22 33.0774 150.054 32.8686C149.888 32.6598 149.76 32.4742 149.671 32.3118H149.581V36.3636H148.095ZM149.552 29.6818C149.552 30.2187 149.63 30.6894 149.785 31.0938C149.941 31.4981 150.166 31.8146 150.461 32.0433C150.756 32.2687 151.118 32.3814 151.545 32.3814C151.989 32.3814 152.361 32.2637 152.659 32.0284C152.957 31.7898 153.183 31.4666 153.335 31.0589C153.491 30.6513 153.569 30.1922 153.569 29.6818C153.569 29.178 153.492 28.7256 153.34 28.3246C153.191 27.9235 152.965 27.607 152.664 27.375C152.366 27.143 151.993 27.027 151.545 27.027C151.114 27.027 150.75 27.138 150.452 27.3601C150.157 27.5821 149.933 27.892 149.78 28.2898C149.628 28.6875 149.552 29.1515 149.552 29.6818ZM158.222 23.3182V33.5H156.736V23.3182H158.222ZM162.444 33.669C161.96 33.669 161.523 33.5795 161.132 33.4006C160.741 33.2183 160.431 32.9548 160.202 32.6101C159.977 32.2654 159.864 31.8428 159.864 31.3423C159.864 30.9115 159.947 30.5568 160.113 30.2784C160.278 30 160.502 29.7796 160.784 29.6172C161.065 29.4548 161.38 29.3321 161.728 29.2493C162.076 29.1664 162.431 29.1035 162.792 29.0604C163.25 29.0073 163.621 28.9643 163.906 28.9311C164.191 28.8946 164.398 28.8366 164.527 28.7571C164.657 28.6776 164.721 28.5483 164.721 28.3693V28.3345C164.721 27.9003 164.599 27.5639 164.353 27.3253C164.111 27.0866 163.75 26.9673 163.27 26.9673C162.769 26.9673 162.375 27.0784 162.086 27.3004C161.801 27.5192 161.604 27.7628 161.495 28.0312L160.098 27.7131C160.263 27.2491 160.505 26.8745 160.824 26.5895C161.145 26.3011 161.515 26.0923 161.932 25.9631C162.35 25.8305 162.789 25.7642 163.25 25.7642C163.555 25.7642 163.878 25.8007 164.219 25.8736C164.564 25.9432 164.885 26.0724 165.184 26.2614C165.485 26.4503 165.732 26.7204 165.924 27.0717C166.117 27.4197 166.213 27.8722 166.213 28.429V33.5H164.761V32.456H164.701C164.605 32.6482 164.461 32.8371 164.269 33.0227C164.077 33.2083 163.83 33.3625 163.528 33.4851C163.226 33.6077 162.865 33.669 162.444 33.669ZM162.767 32.4759C163.178 32.4759 163.53 32.3946 163.821 32.2322C164.116 32.0698 164.34 31.8577 164.493 31.5959C164.648 31.3307 164.726 31.0473 164.726 30.7457V29.7614C164.673 29.8144 164.57 29.8641 164.418 29.9105C164.269 29.9536 164.098 29.9917 163.906 30.0249C163.714 30.0547 163.526 30.0829 163.344 30.1094C163.162 30.1326 163.009 30.1525 162.887 30.169C162.598 30.2055 162.335 30.2668 162.096 30.353C161.861 30.4392 161.672 30.5634 161.529 30.7259C161.39 30.8849 161.321 31.0971 161.321 31.3622C161.321 31.7301 161.457 32.0085 161.728 32.1974C162 32.383 162.346 32.4759 162.767 32.4759ZM168.859 36.3636C168.637 36.3636 168.435 36.3454 168.252 36.3089C168.07 36.2758 167.934 36.2393 167.845 36.1996L168.203 34.9815C168.474 35.0545 168.716 35.0859 168.928 35.076C169.141 35.0661 169.328 34.9865 169.49 34.8374C169.656 34.6882 169.802 34.4446 169.928 34.1065L170.112 33.5994L167.318 25.8636H168.909L170.843 31.7898H170.922L172.856 25.8636H174.452L171.305 34.5192C171.159 34.9169 170.973 35.2533 170.748 35.5284C170.523 35.8068 170.254 36.0156 169.943 36.1548C169.631 36.294 169.27 36.3636 168.859 36.3636ZM181.571 27.728L180.224 27.9666C180.168 27.7943 180.078 27.6302 179.955 27.4744C179.836 27.3187 179.674 27.1911 179.468 27.0916C179.263 26.9922 179.006 26.9425 178.698 26.9425C178.277 26.9425 177.925 27.0369 177.644 27.2259C177.362 27.4115 177.221 27.6518 177.221 27.9467C177.221 28.2019 177.316 28.4074 177.504 28.5632C177.693 28.719 177.998 28.8466 178.419 28.946L179.632 29.2244C180.335 29.3868 180.859 29.6371 181.203 29.9751C181.548 30.3132 181.72 30.7524 181.72 31.2926C181.72 31.75 181.588 32.1577 181.323 32.5156C181.061 32.8703 180.695 33.1487 180.224 33.3509C179.757 33.553 179.215 33.6541 178.598 33.6541C177.743 33.6541 177.045 33.4718 176.505 33.1072C175.965 32.7393 175.633 32.2173 175.511 31.5412L176.948 31.3224C177.037 31.697 177.221 31.9804 177.499 32.1726C177.778 32.3615 178.141 32.456 178.588 32.456C179.075 32.456 179.465 32.3549 179.757 32.1527C180.048 31.9472 180.194 31.697 180.194 31.402C180.194 31.1634 180.105 30.9628 179.926 30.8004C179.75 30.638 179.48 30.5154 179.115 30.4325L177.823 30.1491C177.11 29.9867 176.583 29.7282 176.242 29.3736C175.904 29.0189 175.735 28.5698 175.735 28.0263C175.735 27.5755 175.86 27.1811 176.112 26.843C176.364 26.505 176.712 26.2415 177.156 26.0526C177.601 25.8603 178.109 25.7642 178.683 25.7642C179.508 25.7642 180.158 25.9432 180.632 26.3011C181.106 26.6558 181.419 27.1314 181.571 27.728ZM186.919 25.8636V27.0568H182.748V25.8636H186.919ZM183.867 24.0341H185.353V31.2578C185.353 31.5462 185.396 31.7633 185.483 31.9091C185.569 32.0516 185.68 32.1494 185.816 32.2024C185.955 32.2521 186.106 32.277 186.268 32.277C186.387 32.277 186.492 32.2687 186.581 32.2521C186.671 32.2356 186.74 32.2223 186.79 32.2124L187.059 33.4403C186.972 33.4735 186.85 33.5066 186.691 33.5398C186.532 33.5762 186.333 33.5961 186.094 33.5994C185.703 33.6061 185.338 33.5365 185 33.3906C184.662 33.2448 184.389 33.0194 184.18 32.7145C183.971 32.4096 183.867 32.0268 183.867 31.5661V24.0341ZM191.698 33.6541C190.982 33.6541 190.358 33.4901 189.824 33.1619C189.29 32.8338 188.876 32.3748 188.581 31.7848C188.286 31.1948 188.139 30.5054 188.139 29.7166C188.139 28.9245 188.286 28.2318 188.581 27.6385C188.876 27.0452 189.29 26.5845 189.824 26.2564C190.358 25.9283 190.982 25.7642 191.698 25.7642C192.414 25.7642 193.039 25.9283 193.573 26.2564C194.106 26.5845 194.521 27.0452 194.816 27.6385C195.11 28.2318 195.258 28.9245 195.258 29.7166C195.258 30.5054 195.11 31.1948 194.816 31.7848C194.521 32.3748 194.106 32.8338 193.573 33.1619C193.039 33.4901 192.414 33.6541 191.698 33.6541ZM191.703 32.4062C192.167 32.4062 192.552 32.2836 192.857 32.0384C193.162 31.7931 193.387 31.4666 193.533 31.0589C193.682 30.6513 193.757 30.2022 193.757 29.7116C193.757 29.2244 193.682 28.777 193.533 28.3693C193.387 27.9583 193.162 27.6286 192.857 27.38C192.552 27.1314 192.167 27.0071 191.703 27.0071C191.236 27.0071 190.848 27.1314 190.54 27.38C190.235 27.6286 190.008 27.9583 189.859 28.3693C189.713 28.777 189.64 29.2244 189.64 29.7116C189.64 30.2022 189.713 30.6513 189.859 31.0589C190.008 31.4666 190.235 31.7931 190.54 32.0384C190.848 32.2836 191.236 32.4062 191.703 32.4062ZM196.917 33.5V25.8636H198.354V27.0767H198.434C198.573 26.6657 198.818 26.3426 199.169 26.1072C199.524 25.8686 199.925 25.7493 200.373 25.7493C200.465 25.7493 200.575 25.7526 200.701 25.7592C200.83 25.7659 200.931 25.7741 201.004 25.7841V27.206C200.944 27.1894 200.838 27.1712 200.686 27.1513C200.533 27.1281 200.381 27.1165 200.228 27.1165C199.877 27.1165 199.564 27.1911 199.289 27.3402C199.017 27.486 198.801 27.6899 198.642 27.9517C198.483 28.2102 198.404 28.5052 198.404 28.8366V33.5H196.917ZM205.308 33.6541C204.556 33.6541 203.908 33.4934 203.364 33.1719C202.824 32.8471 202.406 32.3913 202.111 31.8047C201.82 31.2147 201.674 30.5237 201.674 29.7315C201.674 28.9493 201.82 28.2599 202.111 27.6634C202.406 27.0668 202.817 26.6011 203.344 26.2663C203.875 25.9316 204.494 25.7642 205.204 25.7642C205.635 25.7642 206.052 25.8355 206.456 25.978C206.861 26.1205 207.224 26.3442 207.545 26.6491C207.867 26.9541 208.12 27.3501 208.306 27.8374C208.492 28.3213 208.584 28.9096 208.584 29.6023V30.1293H202.514V29.0156H207.128C207.128 28.6245 207.048 28.2782 206.889 27.9766C206.73 27.6716 206.506 27.4313 206.218 27.2557C205.933 27.08 205.598 26.9922 205.214 26.9922C204.796 26.9922 204.431 27.0949 204.12 27.3004C203.812 27.5026 203.573 27.7678 203.404 28.0959C203.238 28.4207 203.155 28.7737 203.155 29.1548V30.0249C203.155 30.5353 203.245 30.9695 203.424 31.3274C203.606 31.6854 203.86 31.9588 204.184 32.1477C204.509 32.3333 204.889 32.4261 205.323 32.4261C205.605 32.4261 205.862 32.3864 206.094 32.3068C206.326 32.224 206.526 32.1013 206.695 31.9389C206.864 31.7765 206.993 31.576 207.083 31.3374L208.49 31.5909C208.377 32.0052 208.175 32.3681 207.883 32.6797C207.595 32.9879 207.232 33.2282 206.795 33.4006C206.36 33.5696 205.865 33.6541 205.308 33.6541Z" fill="white"/>
</svg>
