<svg width="116" height="24" viewBox="0 0 116 24" fill="none" xmlns="http://www.w3.org/2000/svg">
<path d="M13 5H21V19H13V5Z" fill="#FF5F00"/>
<path d="M13.2338 12C13.2338 9.12504 14.7183 6.57499 17 4.92495C15.3231 3.72497 13.2064 3 10.8971 3C5.42607 3 1 7.02494 1 12C1 16.9749 5.42607 21 10.8969 21C13.2062 21 15.323 20.275 17 19.0749C14.7183 17.4499 13.2338 14.875 13.2338 12Z" fill="#EB001B"/>
<path d="M31.9999 12C31.9999 16.9749 27.8505 21 22.7216 21C20.5566 21 18.5722 20.275 17 19.0749C19.1649 17.425 20.5309 14.875 20.5309 12C20.5309 9.12504 19.1391 6.57499 17 4.92495C18.572 3.72497 20.5566 3 22.7216 3C27.8505 3 31.9999 7.04999 31.9999 12Z" fill="#F79E1B"/>
<path d="M79.0935 8.20366C79.0564 11.0996 81.7042 12.7155 83.6987 13.6763C85.748 14.6621 86.4363 15.2943 86.4282 16.1759C86.4129 17.5251 84.7936 18.1205 83.2783 18.1437C80.6345 18.1842 79.0973 17.4381 77.8753 16.8738L76.9229 21.2792C78.149 21.8377 80.4193 22.3248 82.7736 22.3462C88.2999 22.3462 91.9153 19.6495 91.9349 15.4683C91.9565 10.1618 84.5102 9.86812 84.5611 7.49628C84.5786 6.77709 85.2728 6.00961 86.794 5.81447C87.5469 5.7159 89.6254 5.64046 91.9819 6.71321L92.9069 2.45084C91.6396 1.99468 90.0108 1.55788 87.9829 1.55788C82.7815 1.55788 79.123 4.29133 79.0935 8.20366ZM101.794 1.92502C100.785 1.92502 99.9347 2.50692 99.5552 3.39988L91.6612 22.0331H97.1834L98.2823 19.0308H105.03L105.668 22.0331H110.535L106.288 1.92502H101.794ZM102.567 7.35697L104.16 14.9078H99.7958L102.567 7.35697ZM72.3981 1.92528L68.0453 22.0329H73.3075L77.6583 1.92477H72.3981M64.6135 1.92477L59.1363 15.6114L56.9207 3.97423C56.6607 2.67515 55.634 1.92502 54.4939 1.92502H45.5404L45.415 2.50893C47.2532 2.90323 49.3416 3.53919 50.6068 4.21966C51.3812 4.63534 51.6019 4.99871 51.8563 5.98647L56.0527 22.0331H61.6136L70.1393 1.92502L64.6135 1.92477Z" fill="white"/>
</svg>
