<svg width="112" height="23" viewBox="0 0 112 23" fill="none" xmlns="http://www.w3.org/2000/svg">
<g clip-path="url(#clip0_2964_624)">
<path d="M26.6628 7.82177C26.6628 11.3444 23.8134 14.1938 20.2907 14.1938H17.1908L7.20215 1.44971H20.3064C23.8134 1.44971 26.6628 4.29913 26.6628 7.82177Z" fill="#0217EB"/>
<path d="M22.4666 14.1782C22.4666 17.7008 19.6172 20.5502 16.0945 20.5502H0L10.0043 7.82178H16.1102C19.6172 7.82178 22.4666 10.6712 22.4666 14.1782Z" fill="#00FFC6"/>
<path opacity="0.49" d="M26.6628 7.82177C26.6628 11.3444 23.8134 14.1938 20.2907 14.1938H17.1908L7.20215 1.44971H20.3064C23.8134 1.44971 26.6628 4.29913 26.6628 7.82177Z" fill="#0217EB"/>
</g>
<path d="M34.1909 12.9257V3.79196H36.2004V9.15042C36.992 8.23705 38.088 7.68903 39.4073 7.68903C42.2083 7.62813 44.6846 10.1044 44.644 12.9257C44.6846 15.747 42.2083 18.2233 39.4073 18.1624C36.586 18.2233 34.1301 15.747 34.1909 12.9257ZM36.1598 12.9257C36.1598 14.7727 37.5806 16.2341 39.4073 16.2341C41.2341 16.2341 42.6549 14.7727 42.6549 12.9257C42.6549 11.0787 41.2341 9.61726 39.4073 9.61726C37.5806 9.61726 36.1598 11.0787 36.1598 12.9257ZM45.9088 18.9134H48.1415C48.6286 19.7253 49.3187 20.1312 50.2321 20.1312C51.7544 20.1312 52.688 19.1366 52.688 17.7361V17.1881C52.1197 17.8173 51.2266 18.1624 50.2321 18.1624C47.5325 18.1624 45.7667 16.498 45.7667 13.1896V7.8514H47.7558V13.1896C47.7558 15.2193 48.6286 16.2341 50.2321 16.2341C51.8355 16.2341 52.7083 15.2599 52.7083 13.3113V7.8514H54.6975V17.4926C54.6975 20.0703 52.7895 22.0594 50.2321 22.0594C48.2024 22.0594 46.6192 20.8416 45.9088 18.9134ZM65.0896 13.9C65.0896 16.3153 63.3035 18 61.0099 18H55.9153V3.79196H60.0559C62.5119 3.79196 63.9936 5.05039 63.9936 7.1613C63.9936 8.72418 63.3238 9.69845 62.4916 10.2465C64.1965 10.9163 65.0896 12.195 65.0896 13.9ZM60.0559 5.61871H57.9044V9.39399H60.2589C60.7257 9.39399 61.1317 9.19102 61.4767 8.78507C61.8218 8.37913 62.0044 7.93259 62.0044 7.44546C62.0044 6.32911 61.3752 5.61871 60.0559 5.61871ZM63.1005 13.5955C63.1005 12.3777 62.2277 11.3628 60.8272 11.3628H57.9044V16.1733H60.9896C62.2074 16.1733 63.1005 15.0569 63.1005 13.5955ZM66.1011 12.9257C66.0403 10.1044 68.5165 7.62813 71.3378 7.68903C74.1591 7.62813 76.6151 10.1044 76.5542 12.9257V18H74.5651V16.3965C74.0779 17.3911 72.7383 18.1624 71.3378 18.1624C68.5165 18.2233 66.0403 15.747 66.1011 12.9257ZM74.5854 12.9257C74.5854 11.0787 73.2052 9.61726 71.3581 9.61726C69.5111 9.61726 68.0903 11.0787 68.0903 12.9257C68.0903 14.7727 69.5314 16.2341 71.3581 16.2341C73.1849 16.2341 74.5854 14.7727 74.5854 12.9257ZM77.9766 18V12.7024C77.9766 9.45488 79.6613 7.81081 82.239 7.81081H82.442V9.73904H82.239C80.7776 9.73904 79.9657 10.693 79.9657 12.7024V18H77.9766ZM89.0644 9.77964H86.8723V13.1896C86.8723 15.0772 87.603 15.9906 89.0644 16.1327V18.0609C86.5273 17.9594 84.9035 16.3559 84.8832 13.2099V9.77964H83.3812V7.8514H84.8832V4.21821H86.8723V7.8514H89.0644V9.77964ZM94.8045 7.68903C97.4432 7.68903 99.96 9.67815 100.041 12.743C100.041 13.0881 100.021 13.3925 99.9803 13.6564H91.7803C91.9426 15.1787 93.1808 16.2341 94.8045 16.2341C95.7991 16.2341 96.611 15.8891 97.2402 15.2193L99.615 15.2396C98.7219 17.0054 96.8952 18.1624 94.8654 18.1624C92.0035 18.2233 89.5882 15.7673 89.6491 12.946C89.5882 10.1247 91.9832 7.62813 94.8045 7.68903ZM91.7803 12.0326H97.91C97.5244 10.6321 96.3065 9.61726 94.8654 9.61726C93.3229 9.61726 92.1659 10.5915 91.7803 12.0326ZM101.148 18V12.7024C101.148 9.45488 102.833 7.81081 105.41 7.81081H105.613V9.73904H105.41C103.949 9.73904 103.137 10.693 103.137 12.7024V18H101.148ZM106.222 18V12.7024C106.222 9.45488 107.907 7.81081 110.485 7.81081H110.688V9.73904H110.485C109.023 9.73904 108.211 10.693 108.211 12.7024V18H106.222Z" fill="white"/>
<defs>
<clipPath id="clip0_2964_624">
<rect width="26.6625" height="19.1005" fill="white" transform="translate(0 1.44971)"/>
</clipPath>
</defs>
</svg>
